<svg width="162" height="133" viewBox="0 0 162 133" fill="none" xmlns="http://www.w3.org/2000/svg">
<path d="M49.4305 92.7665C49.9546 93.2905 50.6426 93.5539 51.3306 93.5539C52.0186 93.5539 52.7066 93.2905 53.2306 92.7665L62.8196 83.1775C64.3031 86.1982 66.2731 89.0416 68.7886 91.5544L109.015 131.781C109.52 132.286 110.203 132.568 110.915 132.568C111.627 132.568 112.313 132.286 112.815 131.781L152.359 92.2371C158.156 86.4401 161.311 78.7001 161.239 70.4441C161.169 62.2015 157.893 54.4293 152.018 48.5517C140.505 37.0385 122.281 36.3102 110.238 46.4609C107.268 43.9319 103.895 42.0265 100.286 40.7634C101.232 37.7614 101.694 34.6305 101.651 31.427C101.595 23.1817 98.3188 15.4122 92.4305 9.55073C86.4938 3.60061 78.6248 0.324546 70.272 0.324546C62.9836 0.324546 56.1116 2.83736 50.6587 7.44911C38.4386 -2.91121 20.1986 -2.48389 8.86268 8.85198C-3.08863 20.8033 -2.93276 40.4059 9.20937 52.548L49.4251 92.7638L49.4305 92.7665ZM112.135 52.0105C121.993 42.1582 138.177 42.3114 148.22 52.3492C153.093 57.2216 155.807 63.6609 155.866 70.4844C155.923 77.2892 153.329 83.6639 148.562 88.4342L110.918 126.078L72.5914 87.7516C62.5509 77.7111 62.3977 61.5243 72.2527 51.6692C76.9639 46.958 83.25 44.3727 89.9768 44.3727H90.1999C97.0288 44.4291 103.471 47.1435 108.335 52.0079C109.386 53.0587 111.084 53.0614 112.135 52.0105ZM12.6682 12.6548C22.5152 2.8078 38.7047 2.96636 48.764 13.0042C49.2692 13.5067 49.9519 13.7889 50.6641 13.7889C51.3789 13.7889 52.0616 13.504 52.5641 12.9988C57.2592 8.29298 63.5479 5.69954 70.2747 5.69954C77.1897 5.69954 83.7069 8.41392 88.6331 13.3535C93.5136 18.2152 96.2306 24.6464 96.2763 31.4807C96.3112 34.222 95.892 36.8853 95.0562 39.4304C93.4759 39.1724 91.8715 39.0111 90.2429 38.9977C82.0433 38.8552 74.2388 42.0775 68.4472 47.8691C60.4331 55.8832 57.8907 67.332 60.7261 77.6681L51.3279 87.0663L13.0122 48.7506C2.9663 38.702 2.81312 22.5099 12.6682 12.6548Z" fill="#628F15"/>
</svg>
