<svg width="172" height="172" viewBox="0 0 172 172" fill="none" xmlns="http://www.w3.org/2000/svg">
<g clip-path="url(#clip0_4097_8316)">
<path d="M26.337 128.837H36.7904V149.585C36.7904 150.627 37.3914 151.575 38.3336 152.017C38.6984 152.189 39.0895 152.273 39.4779 152.273C40.092 152.273 40.7009 152.063 41.1917 151.655L68.7465 128.837H88.9995C94.1307 145.357 109.406 156.733 126.903 156.733C148.805 156.733 166.625 138.914 166.625 117.013C166.625 103.433 159.895 91.1237 148.566 83.7521V36.2261C148.566 24.6678 139.175 15.2642 127.63 15.2642H26.337C14.7786 15.2642 5.375 24.6678 5.375 36.2261V107.875C5.375 119.434 14.7786 128.837 26.337 128.837ZM161.25 117.013C161.25 135.951 145.841 151.358 126.903 151.358C111.156 151.358 97.4639 140.721 93.6085 125.503C92.9103 122.689 92.556 119.834 92.556 117.013C92.556 98.0885 107.965 82.6931 126.903 82.6931C128.457 82.6931 130.003 82.7976 131.53 83.0038C134.584 83.416 137.565 84.2348 140.39 85.4377C141.802 86.0389 143.174 86.736 144.498 87.5262C154.988 93.7987 161.25 104.822 161.25 117.013ZM10.75 36.2261C10.75 27.6309 17.7417 20.6392 26.337 20.6392H127.63C136.21 20.6392 143.191 27.6309 143.191 36.2261V80.7956C143.109 80.7587 143.021 80.7346 142.939 80.6983C141.827 80.2084 140.694 79.771 139.543 79.3859C139.308 79.3075 139.071 79.2397 138.835 79.1658C137.774 78.8326 136.7 78.5406 135.614 78.2976C135.446 78.2602 135.282 78.2134 135.114 78.1781C133.918 77.9268 132.708 77.7412 131.49 77.6004C131.212 77.5683 130.935 77.5423 130.656 77.5161C129.411 77.3987 128.161 77.3181 126.903 77.3181C105.001 77.3181 87.181 95.1254 87.181 117.013C87.181 118.463 87.2913 119.921 87.452 121.378C87.4901 121.726 87.5314 122.071 87.5786 122.419C87.6262 122.767 87.6495 123.115 87.7059 123.462H67.778C67.1534 123.462 66.5471 123.68 66.0642 124.08L42.1654 143.87V126.15C42.1654 124.666 40.9634 123.462 39.4779 123.462H26.337C17.7417 123.462 10.75 116.471 10.75 107.875V36.2261Z" fill="#628F15"/>
<path d="M34.1914 45.0051H119.753C121.239 45.0051 122.441 43.8018 122.441 42.3176C122.441 40.8335 121.239 39.6301 119.753 39.6301H34.1914C32.7059 39.6301 31.5039 40.8335 31.5039 42.3176C31.5039 43.8018 32.7059 45.0051 34.1914 45.0051Z" fill="#628F15"/>
<path d="M34.1914 64.0722H119.753C121.239 64.0722 122.441 62.8689 122.441 61.3847C122.441 59.9005 121.239 58.6972 119.753 58.6972H34.1914C32.7059 58.6972 31.5039 59.9005 31.5039 61.3847C31.5039 62.8689 32.7059 64.0722 34.1914 64.0722Z" fill="#628F15"/>
<path d="M34.1797 83.1498H97.1942C98.6797 83.1498 99.8817 81.9464 99.8817 80.4623C99.8817 78.9781 98.6797 77.7748 97.1942 77.7748H34.1797C32.6942 77.7748 31.4922 78.9781 31.4922 80.4623C31.4922 81.9464 32.6942 83.1498 34.1797 83.1498Z" fill="#628F15"/>
<path d="M34.1797 102.204H82.2634C83.7488 102.204 84.9509 101 84.9509 99.5162C84.9509 98.0321 83.7488 96.8287 82.2634 96.8287H34.1797C32.6942 96.8287 31.4922 98.0321 31.4922 99.5162C31.4922 101 32.6942 102.204 34.1797 102.204Z" fill="#628F15"/>
<path d="M137.673 124.62C134.796 127.496 130.975 129.08 126.907 129.08C122.839 129.08 119.015 127.496 116.138 124.62C115.089 123.57 113.388 123.57 112.338 124.62C111.288 125.669 111.288 127.37 112.338 128.42C116.23 132.312 121.403 134.455 126.907 134.455C132.41 134.455 137.583 132.312 141.473 128.42C142.523 127.37 142.523 125.668 141.473 124.62C140.423 123.57 138.722 123.57 137.673 124.62Z" fill="#628F15"/>
<path d="M135.027 110.024C135.027 111.804 136.47 113.247 138.25 113.247C140.029 113.247 141.472 111.804 141.472 110.024C141.472 108.245 140.029 106.802 138.25 106.802C136.47 106.802 135.027 108.245 135.027 110.024Z" fill="#628F15"/>
<path d="M115.574 113.247C117.354 113.247 118.796 111.804 118.796 110.024C118.796 108.245 117.354 106.802 115.574 106.802C113.794 106.802 112.352 108.245 112.352 110.024C112.352 111.804 113.794 113.247 115.574 113.247Z" fill="#628F15"/>
</g>
<defs>
<clipPath id="clip0_4097_8316">
<rect width="172" height="172" fill="white"/>
</clipPath>
</defs>
</svg>
