<svg xmlns="http://www.w3.org/2000/svg" xmlns:xlink="http://www.w3.org/1999/xlink" width="512" zoomAndPan="magnify" viewBox="0 0 384 383.999986" height="512" preserveAspectRatio="xMidYMid meet" version="1.0"><defs><clipPath id="85d064aef5"><path d="M 100 29 L 311 29 L 311 323 L 100 323 Z M 100 29 " clip-rule="nonzero"/></clipPath><clipPath id="4ffbfaa204"><path d="M 0.144531 191.996094 C 0.144531 185.710938 0.449219 179.441406 1.066406 173.1875 C 1.683594 166.933594 2.601562 160.726562 3.828125 154.5625 C 5.054688 148.398438 6.578125 142.308594 8.402344 136.296875 C 10.226562 130.285156 12.34375 124.375 14.746094 118.566406 C 17.152344 112.761719 19.835938 107.085938 22.796875 101.546875 C 25.757812 96.003906 28.984375 90.621094 32.476562 85.394531 C 35.96875 80.167969 39.707031 75.128906 43.691406 70.269531 C 47.679688 65.414062 51.894531 60.761719 56.335938 56.316406 C 60.78125 51.875 65.429688 47.660156 70.289062 43.671875 C 75.144531 39.6875 80.1875 35.949219 85.410156 32.457031 C 90.636719 28.964844 96.019531 25.738281 101.558594 22.777344 C 107.101562 19.8125 112.777344 17.128906 118.582031 14.726562 C 124.386719 12.320312 130.296875 10.207031 136.308594 8.382812 C 142.320312 6.558594 148.410156 5.03125 154.574219 3.804688 C 160.734375 2.578125 166.945312 1.660156 173.195312 1.042969 C 179.449219 0.425781 185.71875 0.117188 192.003906 0.117188 C 198.285156 0.117188 204.554688 0.425781 210.808594 1.042969 C 217.0625 1.660156 223.269531 2.578125 229.433594 3.804688 C 235.59375 5.03125 241.683594 6.558594 247.695312 8.382812 C 253.710938 10.207031 259.617188 12.320312 265.425781 14.726562 C 271.230469 17.128906 276.902344 19.8125 282.445312 22.777344 C 287.984375 25.738281 293.371094 28.964844 298.59375 32.457031 C 303.820312 35.949219 308.859375 39.6875 313.71875 43.671875 C 318.574219 47.660156 323.226562 51.875 327.667969 56.316406 C 332.109375 60.761719 336.324219 65.414062 340.3125 70.269531 C 344.296875 75.128906 348.039062 80.167969 351.527344 85.394531 C 355.019531 90.621094 358.246094 96.003906 361.207031 101.546875 C 364.167969 107.085938 366.851562 112.761719 369.257812 118.566406 C 371.664062 124.375 373.777344 130.285156 375.601562 136.296875 C 377.425781 142.308594 378.949219 148.398438 380.175781 154.5625 C 381.402344 160.726562 382.324219 166.933594 382.9375 173.1875 C 383.554688 179.441406 383.863281 185.710938 383.863281 191.996094 C 383.863281 198.28125 383.554688 204.550781 382.9375 210.804688 C 382.324219 217.058594 381.402344 223.265625 380.175781 229.429688 C 378.949219 235.59375 377.425781 241.679688 375.601562 247.695312 C 373.777344 253.707031 371.664062 259.617188 369.257812 265.421875 C 366.851562 271.230469 364.167969 276.902344 361.207031 282.445312 C 358.246094 287.988281 355.019531 293.371094 351.527344 298.597656 C 348.039062 303.820312 344.296875 308.863281 340.3125 313.722656 C 336.324219 318.578125 332.109375 323.230469 327.667969 327.671875 C 323.226562 332.117188 318.574219 336.332031 313.71875 340.320312 C 308.859375 344.304688 303.820312 348.042969 298.59375 351.535156 C 293.371094 355.027344 287.984375 358.253906 282.445312 361.214844 C 276.902344 364.179688 271.230469 366.863281 265.425781 369.265625 C 259.617188 371.671875 253.710938 373.785156 247.695312 375.609375 C 241.683594 377.433594 235.59375 378.960938 229.433594 380.1875 C 223.269531 381.410156 217.0625 382.332031 210.808594 382.949219 C 204.554688 383.566406 198.285156 383.871094 192.003906 383.871094 C 185.71875 383.871094 179.449219 383.566406 173.195312 382.949219 C 166.945312 382.332031 160.734375 381.410156 154.574219 380.1875 C 148.410156 378.960938 142.320312 377.433594 136.308594 375.609375 C 130.296875 373.785156 124.386719 371.671875 118.582031 369.265625 C 112.777344 366.863281 107.101562 364.179688 101.558594 361.214844 C 96.019531 358.253906 90.636719 355.027344 85.410156 351.535156 C 80.1875 348.042969 75.144531 344.304688 70.289062 340.320312 C 65.429688 336.332031 60.78125 332.117188 56.335938 327.671875 C 51.894531 323.230469 47.679688 318.578125 43.691406 313.722656 C 39.707031 308.863281 35.96875 303.820312 32.476562 298.597656 C 28.984375 293.371094 25.757812 287.988281 22.796875 282.445312 C 19.835938 276.902344 17.152344 271.230469 14.746094 265.421875 C 12.34375 259.617188 10.226562 253.707031 8.402344 247.695312 C 6.578125 241.679688 5.054688 235.59375 3.828125 229.429688 C 2.601562 223.265625 1.683594 217.058594 1.066406 210.804688 C 0.449219 204.550781 0.144531 198.28125 0.144531 191.996094 Z M 0.144531 191.996094 " clip-rule="nonzero"/></clipPath><clipPath id="37e54790bf"><path d="M 161 195 L 236 195 L 236 279 L 161 279 Z M 161 195 " clip-rule="nonzero"/></clipPath><clipPath id="65d11fd58d"><path d="M 0.144531 191.996094 C 0.144531 185.710938 0.449219 179.441406 1.066406 173.1875 C 1.683594 166.933594 2.601562 160.726562 3.828125 154.5625 C 5.054688 148.398438 6.578125 142.308594 8.402344 136.296875 C 10.226562 130.285156 12.34375 124.375 14.746094 118.566406 C 17.152344 112.761719 19.835938 107.085938 22.796875 101.546875 C 25.757812 96.003906 28.984375 90.621094 32.476562 85.394531 C 35.96875 80.167969 39.707031 75.128906 43.691406 70.269531 C 47.679688 65.414062 51.894531 60.761719 56.335938 56.316406 C 60.78125 51.875 65.429688 47.660156 70.289062 43.671875 C 75.144531 39.6875 80.1875 35.949219 85.410156 32.457031 C 90.636719 28.964844 96.019531 25.738281 101.558594 22.777344 C 107.101562 19.8125 112.777344 17.128906 118.582031 14.726562 C 124.386719 12.320312 130.296875 10.207031 136.308594 8.382812 C 142.320312 6.558594 148.410156 5.03125 154.574219 3.804688 C 160.734375 2.578125 166.945312 1.660156 173.195312 1.042969 C 179.449219 0.425781 185.71875 0.117188 192.003906 0.117188 C 198.285156 0.117188 204.554688 0.425781 210.808594 1.042969 C 217.0625 1.660156 223.269531 2.578125 229.433594 3.804688 C 235.59375 5.03125 241.683594 6.558594 247.695312 8.382812 C 253.710938 10.207031 259.617188 12.320312 265.425781 14.726562 C 271.230469 17.128906 276.902344 19.8125 282.445312 22.777344 C 287.984375 25.738281 293.371094 28.964844 298.59375 32.457031 C 303.820312 35.949219 308.859375 39.6875 313.71875 43.671875 C 318.574219 47.660156 323.226562 51.875 327.667969 56.316406 C 332.109375 60.761719 336.324219 65.414062 340.3125 70.269531 C 344.296875 75.128906 348.039062 80.167969 351.527344 85.394531 C 355.019531 90.621094 358.246094 96.003906 361.207031 101.546875 C 364.167969 107.085938 366.851562 112.761719 369.257812 118.566406 C 371.664062 124.375 373.777344 130.285156 375.601562 136.296875 C 377.425781 142.308594 378.949219 148.398438 380.175781 154.5625 C 381.402344 160.726562 382.324219 166.933594 382.9375 173.1875 C 383.554688 179.441406 383.863281 185.710938 383.863281 191.996094 C 383.863281 198.28125 383.554688 204.550781 382.9375 210.804688 C 382.324219 217.058594 381.402344 223.265625 380.175781 229.429688 C 378.949219 235.59375 377.425781 241.679688 375.601562 247.695312 C 373.777344 253.707031 371.664062 259.617188 369.257812 265.421875 C 366.851562 271.230469 364.167969 276.902344 361.207031 282.445312 C 358.246094 287.988281 355.019531 293.371094 351.527344 298.597656 C 348.039062 303.820312 344.296875 308.863281 340.3125 313.722656 C 336.324219 318.578125 332.109375 323.230469 327.667969 327.671875 C 323.226562 332.117188 318.574219 336.332031 313.71875 340.320312 C 308.859375 344.304688 303.820312 348.042969 298.59375 351.535156 C 293.371094 355.027344 287.984375 358.253906 282.445312 361.214844 C 276.902344 364.179688 271.230469 366.863281 265.425781 369.265625 C 259.617188 371.671875 253.710938 373.785156 247.695312 375.609375 C 241.683594 377.433594 235.59375 378.960938 229.433594 380.1875 C 223.269531 381.410156 217.0625 382.332031 210.808594 382.949219 C 204.554688 383.566406 198.285156 383.871094 192.003906 383.871094 C 185.71875 383.871094 179.449219 383.566406 173.195312 382.949219 C 166.945312 382.332031 160.734375 381.410156 154.574219 380.1875 C 148.410156 378.960938 142.320312 377.433594 136.308594 375.609375 C 130.296875 373.785156 124.386719 371.671875 118.582031 369.265625 C 112.777344 366.863281 107.101562 364.179688 101.558594 361.214844 C 96.019531 358.253906 90.636719 355.027344 85.410156 351.535156 C 80.1875 348.042969 75.144531 344.304688 70.289062 340.320312 C 65.429688 336.332031 60.78125 332.117188 56.335938 327.671875 C 51.894531 323.230469 47.679688 318.578125 43.691406 313.722656 C 39.707031 308.863281 35.96875 303.820312 32.476562 298.597656 C 28.984375 293.371094 25.757812 287.988281 22.796875 282.445312 C 19.835938 276.902344 17.152344 271.230469 14.746094 265.421875 C 12.34375 259.617188 10.226562 253.707031 8.402344 247.695312 C 6.578125 241.679688 5.054688 235.59375 3.828125 229.429688 C 2.601562 223.265625 1.683594 217.058594 1.066406 210.804688 C 0.449219 204.550781 0.144531 198.28125 0.144531 191.996094 Z M 0.144531 191.996094 " clip-rule="nonzero"/></clipPath><clipPath id="cf39ce181a"><path d="M 161 195 L 235.550781 195 L 235.550781 242 L 161 242 Z M 161 195 " clip-rule="nonzero"/></clipPath><clipPath id="7bf0566e9b"><path d="M 0.144531 191.996094 C 0.144531 185.710938 0.449219 179.441406 1.066406 173.1875 C 1.683594 166.933594 2.601562 160.726562 3.828125 154.5625 C 5.054688 148.398438 6.578125 142.308594 8.402344 136.296875 C 10.226562 130.285156 12.34375 124.375 14.746094 118.566406 C 17.152344 112.761719 19.835938 107.085938 22.796875 101.546875 C 25.757812 96.003906 28.984375 90.621094 32.476562 85.394531 C 35.96875 80.167969 39.707031 75.128906 43.691406 70.269531 C 47.679688 65.414062 51.894531 60.761719 56.335938 56.316406 C 60.78125 51.875 65.429688 47.660156 70.289062 43.671875 C 75.144531 39.6875 80.1875 35.949219 85.410156 32.457031 C 90.636719 28.964844 96.019531 25.738281 101.558594 22.777344 C 107.101562 19.8125 112.777344 17.128906 118.582031 14.726562 C 124.386719 12.320312 130.296875 10.207031 136.308594 8.382812 C 142.320312 6.558594 148.410156 5.03125 154.574219 3.804688 C 160.734375 2.578125 166.945312 1.660156 173.195312 1.042969 C 179.449219 0.425781 185.71875 0.117188 192.003906 0.117188 C 198.285156 0.117188 204.554688 0.425781 210.808594 1.042969 C 217.0625 1.660156 223.269531 2.578125 229.433594 3.804688 C 235.59375 5.03125 241.683594 6.558594 247.695312 8.382812 C 253.710938 10.207031 259.617188 12.320312 265.425781 14.726562 C 271.230469 17.128906 276.902344 19.8125 282.445312 22.777344 C 287.984375 25.738281 293.371094 28.964844 298.59375 32.457031 C 303.820312 35.949219 308.859375 39.6875 313.71875 43.671875 C 318.574219 47.660156 323.226562 51.875 327.667969 56.316406 C 332.109375 60.761719 336.324219 65.414062 340.3125 70.269531 C 344.296875 75.128906 348.039062 80.167969 351.527344 85.394531 C 355.019531 90.621094 358.246094 96.003906 361.207031 101.546875 C 364.167969 107.085938 366.851562 112.761719 369.257812 118.566406 C 371.664062 124.375 373.777344 130.285156 375.601562 136.296875 C 377.425781 142.308594 378.949219 148.398438 380.175781 154.5625 C 381.402344 160.726562 382.324219 166.933594 382.9375 173.1875 C 383.554688 179.441406 383.863281 185.710938 383.863281 191.996094 C 383.863281 198.28125 383.554688 204.550781 382.9375 210.804688 C 382.324219 217.058594 381.402344 223.265625 380.175781 229.429688 C 378.949219 235.59375 377.425781 241.679688 375.601562 247.695312 C 373.777344 253.707031 371.664062 259.617188 369.257812 265.421875 C 366.851562 271.230469 364.167969 276.902344 361.207031 282.445312 C 358.246094 287.988281 355.019531 293.371094 351.527344 298.597656 C 348.039062 303.820312 344.296875 308.863281 340.3125 313.722656 C 336.324219 318.578125 332.109375 323.230469 327.667969 327.671875 C 323.226562 332.117188 318.574219 336.332031 313.71875 340.320312 C 308.859375 344.304688 303.820312 348.042969 298.59375 351.535156 C 293.371094 355.027344 287.984375 358.253906 282.445312 361.214844 C 276.902344 364.179688 271.230469 366.863281 265.425781 369.265625 C 259.617188 371.671875 253.710938 373.785156 247.695312 375.609375 C 241.683594 377.433594 235.59375 378.960938 229.433594 380.1875 C 223.269531 381.410156 217.0625 382.332031 210.808594 382.949219 C 204.554688 383.566406 198.285156 383.871094 192.003906 383.871094 C 185.71875 383.871094 179.449219 383.566406 173.195312 382.949219 C 166.945312 382.332031 160.734375 381.410156 154.574219 380.1875 C 148.410156 378.960938 142.320312 377.433594 136.308594 375.609375 C 130.296875 373.785156 124.386719 371.671875 118.582031 369.265625 C 112.777344 366.863281 107.101562 364.179688 101.558594 361.214844 C 96.019531 358.253906 90.636719 355.027344 85.410156 351.535156 C 80.1875 348.042969 75.144531 344.304688 70.289062 340.320312 C 65.429688 336.332031 60.78125 332.117188 56.335938 327.671875 C 51.894531 323.230469 47.679688 318.578125 43.691406 313.722656 C 39.707031 308.863281 35.96875 303.820312 32.476562 298.597656 C 28.984375 293.371094 25.757812 287.988281 22.796875 282.445312 C 19.835938 276.902344 17.152344 271.230469 14.746094 265.421875 C 12.34375 259.617188 10.226562 253.707031 8.402344 247.695312 C 6.578125 241.679688 5.054688 235.59375 3.828125 229.429688 C 2.601562 223.265625 1.683594 217.058594 1.066406 210.804688 C 0.449219 204.550781 0.144531 198.28125 0.144531 191.996094 Z M 0.144531 191.996094 " clip-rule="nonzero"/></clipPath><clipPath id="2510a7e86e"><path d="M 161.246094 202.921875 C 160.945312 211.800781 163.914062 254.902344 162.261719 268.410156 C 184.589844 273.542969 213.5 285.109375 235.328125 272.285156 C 232.199219 263.148438 232.070312 252.160156 231.625 242.640625 C 230.765625 224.199219 227.695312 213.457031 229.9375 195.117188 Z M 161.246094 202.921875 " clip-rule="evenodd"/></clipPath><clipPath id="6198cc98f6"><path d="M 47 245 L 343 245 L 343 384 L 47 384 Z M 47 245 " clip-rule="nonzero"/></clipPath><clipPath id="ec56e6d611"><path d="M 0.144531 191.996094 C 0.144531 185.710938 0.449219 179.441406 1.066406 173.1875 C 1.683594 166.933594 2.601562 160.726562 3.828125 154.5625 C 5.054688 148.398438 6.578125 142.308594 8.402344 136.296875 C 10.226562 130.285156 12.34375 124.375 14.746094 118.566406 C 17.152344 112.761719 19.835938 107.085938 22.796875 101.546875 C 25.757812 96.003906 28.984375 90.621094 32.476562 85.394531 C 35.96875 80.167969 39.707031 75.128906 43.691406 70.269531 C 47.679688 65.414062 51.894531 60.761719 56.335938 56.316406 C 60.78125 51.875 65.429688 47.660156 70.289062 43.671875 C 75.144531 39.6875 80.1875 35.949219 85.410156 32.457031 C 90.636719 28.964844 96.019531 25.738281 101.558594 22.777344 C 107.101562 19.8125 112.777344 17.128906 118.582031 14.726562 C 124.386719 12.320312 130.296875 10.207031 136.308594 8.382812 C 142.320312 6.558594 148.410156 5.03125 154.574219 3.804688 C 160.734375 2.578125 166.945312 1.660156 173.195312 1.042969 C 179.449219 0.425781 185.71875 0.117188 192.003906 0.117188 C 198.285156 0.117188 204.554688 0.425781 210.808594 1.042969 C 217.0625 1.660156 223.269531 2.578125 229.433594 3.804688 C 235.59375 5.03125 241.683594 6.558594 247.695312 8.382812 C 253.710938 10.207031 259.617188 12.320312 265.425781 14.726562 C 271.230469 17.128906 276.902344 19.8125 282.445312 22.777344 C 287.984375 25.738281 293.371094 28.964844 298.59375 32.457031 C 303.820312 35.949219 308.859375 39.6875 313.71875 43.671875 C 318.574219 47.660156 323.226562 51.875 327.667969 56.316406 C 332.109375 60.761719 336.324219 65.414062 340.3125 70.269531 C 344.296875 75.128906 348.039062 80.167969 351.527344 85.394531 C 355.019531 90.621094 358.246094 96.003906 361.207031 101.546875 C 364.167969 107.085938 366.851562 112.761719 369.257812 118.566406 C 371.664062 124.375 373.777344 130.285156 375.601562 136.296875 C 377.425781 142.308594 378.949219 148.398438 380.175781 154.5625 C 381.402344 160.726562 382.324219 166.933594 382.9375 173.1875 C 383.554688 179.441406 383.863281 185.710938 383.863281 191.996094 C 383.863281 198.28125 383.554688 204.550781 382.9375 210.804688 C 382.324219 217.058594 381.402344 223.265625 380.175781 229.429688 C 378.949219 235.59375 377.425781 241.679688 375.601562 247.695312 C 373.777344 253.707031 371.664062 259.617188 369.257812 265.421875 C 366.851562 271.230469 364.167969 276.902344 361.207031 282.445312 C 358.246094 287.988281 355.019531 293.371094 351.527344 298.597656 C 348.039062 303.820312 344.296875 308.863281 340.3125 313.722656 C 336.324219 318.578125 332.109375 323.230469 327.667969 327.671875 C 323.226562 332.117188 318.574219 336.332031 313.71875 340.320312 C 308.859375 344.304688 303.820312 348.042969 298.59375 351.535156 C 293.371094 355.027344 287.984375 358.253906 282.445312 361.214844 C 276.902344 364.179688 271.230469 366.863281 265.425781 369.265625 C 259.617188 371.671875 253.710938 373.785156 247.695312 375.609375 C 241.683594 377.433594 235.59375 378.960938 229.433594 380.1875 C 223.269531 381.410156 217.0625 382.332031 210.808594 382.949219 C 204.554688 383.566406 198.285156 383.871094 192.003906 383.871094 C 185.71875 383.871094 179.449219 383.566406 173.195312 382.949219 C 166.945312 382.332031 160.734375 381.410156 154.574219 380.1875 C 148.410156 378.960938 142.320312 377.433594 136.308594 375.609375 C 130.296875 373.785156 124.386719 371.671875 118.582031 369.265625 C 112.777344 366.863281 107.101562 364.179688 101.558594 361.214844 C 96.019531 358.253906 90.636719 355.027344 85.410156 351.535156 C 80.1875 348.042969 75.144531 344.304688 70.289062 340.320312 C 65.429688 336.332031 60.78125 332.117188 56.335938 327.671875 C 51.894531 323.230469 47.679688 318.578125 43.691406 313.722656 C 39.707031 308.863281 35.96875 303.820312 32.476562 298.597656 C 28.984375 293.371094 25.757812 287.988281 22.796875 282.445312 C 19.835938 276.902344 17.152344 271.230469 14.746094 265.421875 C 12.34375 259.617188 10.226562 253.707031 8.402344 247.695312 C 6.578125 241.679688 5.054688 235.59375 3.828125 229.429688 C 2.601562 223.265625 1.683594 217.058594 1.066406 210.804688 C 0.449219 204.550781 0.144531 198.28125 0.144531 191.996094 Z M 0.144531 191.996094 " clip-rule="nonzero"/></clipPath><clipPath id="1b1c5d39ca"><path d="M 190 258 L 203 258 L 203 384 L 190 384 Z M 190 258 " clip-rule="nonzero"/></clipPath><clipPath id="beacfb3e0f"><path d="M 0.144531 191.996094 C 0.144531 185.710938 0.449219 179.441406 1.066406 173.1875 C 1.683594 166.933594 2.601562 160.726562 3.828125 154.5625 C 5.054688 148.398438 6.578125 142.308594 8.402344 136.296875 C 10.226562 130.285156 12.34375 124.375 14.746094 118.566406 C 17.152344 112.761719 19.835938 107.085938 22.796875 101.546875 C 25.757812 96.003906 28.984375 90.621094 32.476562 85.394531 C 35.96875 80.167969 39.707031 75.128906 43.691406 70.269531 C 47.679688 65.414062 51.894531 60.761719 56.335938 56.316406 C 60.78125 51.875 65.429688 47.660156 70.289062 43.671875 C 75.144531 39.6875 80.1875 35.949219 85.410156 32.457031 C 90.636719 28.964844 96.019531 25.738281 101.558594 22.777344 C 107.101562 19.8125 112.777344 17.128906 118.582031 14.726562 C 124.386719 12.320312 130.296875 10.207031 136.308594 8.382812 C 142.320312 6.558594 148.410156 5.03125 154.574219 3.804688 C 160.734375 2.578125 166.945312 1.660156 173.195312 1.042969 C 179.449219 0.425781 185.71875 0.117188 192.003906 0.117188 C 198.285156 0.117188 204.554688 0.425781 210.808594 1.042969 C 217.0625 1.660156 223.269531 2.578125 229.433594 3.804688 C 235.59375 5.03125 241.683594 6.558594 247.695312 8.382812 C 253.710938 10.207031 259.617188 12.320312 265.425781 14.726562 C 271.230469 17.128906 276.902344 19.8125 282.445312 22.777344 C 287.984375 25.738281 293.371094 28.964844 298.59375 32.457031 C 303.820312 35.949219 308.859375 39.6875 313.71875 43.671875 C 318.574219 47.660156 323.226562 51.875 327.667969 56.316406 C 332.109375 60.761719 336.324219 65.414062 340.3125 70.269531 C 344.296875 75.128906 348.039062 80.167969 351.527344 85.394531 C 355.019531 90.621094 358.246094 96.003906 361.207031 101.546875 C 364.167969 107.085938 366.851562 112.761719 369.257812 118.566406 C 371.664062 124.375 373.777344 130.285156 375.601562 136.296875 C 377.425781 142.308594 378.949219 148.398438 380.175781 154.5625 C 381.402344 160.726562 382.324219 166.933594 382.9375 173.1875 C 383.554688 179.441406 383.863281 185.710938 383.863281 191.996094 C 383.863281 198.28125 383.554688 204.550781 382.9375 210.804688 C 382.324219 217.058594 381.402344 223.265625 380.175781 229.429688 C 378.949219 235.59375 377.425781 241.679688 375.601562 247.695312 C 373.777344 253.707031 371.664062 259.617188 369.257812 265.421875 C 366.851562 271.230469 364.167969 276.902344 361.207031 282.445312 C 358.246094 287.988281 355.019531 293.371094 351.527344 298.597656 C 348.039062 303.820312 344.296875 308.863281 340.3125 313.722656 C 336.324219 318.578125 332.109375 323.230469 327.667969 327.671875 C 323.226562 332.117188 318.574219 336.332031 313.71875 340.320312 C 308.859375 344.304688 303.820312 348.042969 298.59375 351.535156 C 293.371094 355.027344 287.984375 358.253906 282.445312 361.214844 C 276.902344 364.179688 271.230469 366.863281 265.425781 369.265625 C 259.617188 371.671875 253.710938 373.785156 247.695312 375.609375 C 241.683594 377.433594 235.59375 378.960938 229.433594 380.1875 C 223.269531 381.410156 217.0625 382.332031 210.808594 382.949219 C 204.554688 383.566406 198.285156 383.871094 192.003906 383.871094 C 185.71875 383.871094 179.449219 383.566406 173.195312 382.949219 C 166.945312 382.332031 160.734375 381.410156 154.574219 380.1875 C 148.410156 378.960938 142.320312 377.433594 136.308594 375.609375 C 130.296875 373.785156 124.386719 371.671875 118.582031 369.265625 C 112.777344 366.863281 107.101562 364.179688 101.558594 361.214844 C 96.019531 358.253906 90.636719 355.027344 85.410156 351.535156 C 80.1875 348.042969 75.144531 344.304688 70.289062 340.320312 C 65.429688 336.332031 60.78125 332.117188 56.335938 327.671875 C 51.894531 323.230469 47.679688 318.578125 43.691406 313.722656 C 39.707031 308.863281 35.96875 303.820312 32.476562 298.597656 C 28.984375 293.371094 25.757812 287.988281 22.796875 282.445312 C 19.835938 276.902344 17.152344 271.230469 14.746094 265.421875 C 12.34375 259.617188 10.226562 253.707031 8.402344 247.695312 C 6.578125 241.679688 5.054688 235.59375 3.828125 229.429688 C 2.601562 223.265625 1.683594 217.058594 1.066406 210.804688 C 0.449219 204.550781 0.144531 198.28125 0.144531 191.996094 Z M 0.144531 191.996094 " clip-rule="nonzero"/></clipPath><clipPath id="6583288b29"><path d="M 47.390625 368.199219 C 55.105469 348.089844 62.511719 304.53125 75.261719 286.703125 C 83.042969 275.824219 145.6875 256.003906 162.429688 247.191406 C 170.085938 254.730469 189.242188 271.25 200.746094 268.976562 C 211.027344 266.945312 223.417969 258.214844 231.984375 245.542969 C 248.695312 254.535156 292.894531 262.546875 310.433594 277.722656 C 324.292969 289.710938 336.136719 329.242188 342.613281 350.847656 C 237.804688 448.542969 134.753906 463.914062 47.390625 368.199219 " clip-rule="evenodd"/></clipPath><clipPath id="86ce9337df"><path d="M 124 245.183594 L 272 245.183594 L 272 298 L 124 298 Z M 124 245.183594 " clip-rule="nonzero"/></clipPath><clipPath id="0eec70d8b6"><path d="M 0.144531 191.996094 C 0.144531 185.710938 0.449219 179.441406 1.066406 173.1875 C 1.683594 166.933594 2.601562 160.726562 3.828125 154.5625 C 5.054688 148.398438 6.578125 142.308594 8.402344 136.296875 C 10.226562 130.285156 12.34375 124.375 14.746094 118.566406 C 17.152344 112.761719 19.835938 107.085938 22.796875 101.546875 C 25.757812 96.003906 28.984375 90.621094 32.476562 85.394531 C 35.96875 80.167969 39.707031 75.128906 43.691406 70.269531 C 47.679688 65.414062 51.894531 60.761719 56.335938 56.316406 C 60.78125 51.875 65.429688 47.660156 70.289062 43.671875 C 75.144531 39.6875 80.1875 35.949219 85.410156 32.457031 C 90.636719 28.964844 96.019531 25.738281 101.558594 22.777344 C 107.101562 19.8125 112.777344 17.128906 118.582031 14.726562 C 124.386719 12.320312 130.296875 10.207031 136.308594 8.382812 C 142.320312 6.558594 148.410156 5.03125 154.574219 3.804688 C 160.734375 2.578125 166.945312 1.660156 173.195312 1.042969 C 179.449219 0.425781 185.71875 0.117188 192.003906 0.117188 C 198.285156 0.117188 204.554688 0.425781 210.808594 1.042969 C 217.0625 1.660156 223.269531 2.578125 229.433594 3.804688 C 235.59375 5.03125 241.683594 6.558594 247.695312 8.382812 C 253.710938 10.207031 259.617188 12.320312 265.425781 14.726562 C 271.230469 17.128906 276.902344 19.8125 282.445312 22.777344 C 287.984375 25.738281 293.371094 28.964844 298.59375 32.457031 C 303.820312 35.949219 308.859375 39.6875 313.71875 43.671875 C 318.574219 47.660156 323.226562 51.875 327.667969 56.316406 C 332.109375 60.761719 336.324219 65.414062 340.3125 70.269531 C 344.296875 75.128906 348.039062 80.167969 351.527344 85.394531 C 355.019531 90.621094 358.246094 96.003906 361.207031 101.546875 C 364.167969 107.085938 366.851562 112.761719 369.257812 118.566406 C 371.664062 124.375 373.777344 130.285156 375.601562 136.296875 C 377.425781 142.308594 378.949219 148.398438 380.175781 154.5625 C 381.402344 160.726562 382.324219 166.933594 382.9375 173.1875 C 383.554688 179.441406 383.863281 185.710938 383.863281 191.996094 C 383.863281 198.28125 383.554688 204.550781 382.9375 210.804688 C 382.324219 217.058594 381.402344 223.265625 380.175781 229.429688 C 378.949219 235.59375 377.425781 241.679688 375.601562 247.695312 C 373.777344 253.707031 371.664062 259.617188 369.257812 265.421875 C 366.851562 271.230469 364.167969 276.902344 361.207031 282.445312 C 358.246094 287.988281 355.019531 293.371094 351.527344 298.597656 C 348.039062 303.820312 344.296875 308.863281 340.3125 313.722656 C 336.324219 318.578125 332.109375 323.230469 327.667969 327.671875 C 323.226562 332.117188 318.574219 336.332031 313.71875 340.320312 C 308.859375 344.304688 303.820312 348.042969 298.59375 351.535156 C 293.371094 355.027344 287.984375 358.253906 282.445312 361.214844 C 276.902344 364.179688 271.230469 366.863281 265.425781 369.265625 C 259.617188 371.671875 253.710938 373.785156 247.695312 375.609375 C 241.683594 377.433594 235.59375 378.960938 229.433594 380.1875 C 223.269531 381.410156 217.0625 382.332031 210.808594 382.949219 C 204.554688 383.566406 198.285156 383.871094 192.003906 383.871094 C 185.71875 383.871094 179.449219 383.566406 173.195312 382.949219 C 166.945312 382.332031 160.734375 381.410156 154.574219 380.1875 C 148.410156 378.960938 142.320312 377.433594 136.308594 375.609375 C 130.296875 373.785156 124.386719 371.671875 118.582031 369.265625 C 112.777344 366.863281 107.101562 364.179688 101.558594 361.214844 C 96.019531 358.253906 90.636719 355.027344 85.410156 351.535156 C 80.1875 348.042969 75.144531 344.304688 70.289062 340.320312 C 65.429688 336.332031 60.78125 332.117188 56.335938 327.671875 C 51.894531 323.230469 47.679688 318.578125 43.691406 313.722656 C 39.707031 308.863281 35.96875 303.820312 32.476562 298.597656 C 28.984375 293.371094 25.757812 287.988281 22.796875 282.445312 C 19.835938 276.902344 17.152344 271.230469 14.746094 265.421875 C 12.34375 259.617188 10.226562 253.707031 8.402344 247.695312 C 6.578125 241.679688 5.054688 235.59375 3.828125 229.429688 C 2.601562 223.265625 1.683594 217.058594 1.066406 210.804688 C 0.449219 204.550781 0.144531 198.28125 0.144531 191.996094 Z M 0.144531 191.996094 " clip-rule="nonzero"/></clipPath><clipPath id="cceb9087a5"><path d="M 47.390625 368.199219 C 55.105469 348.089844 62.511719 304.53125 75.261719 286.703125 C 83.042969 275.824219 145.6875 256.003906 162.429688 247.191406 C 170.085938 254.730469 189.242188 271.25 200.746094 268.976562 C 211.027344 266.945312 223.417969 258.214844 231.984375 245.542969 C 248.695312 254.535156 292.894531 262.546875 310.433594 277.722656 C 324.292969 289.710938 336.136719 329.242188 342.613281 350.847656 C 237.804688 448.542969 134.753906 463.914062 47.390625 368.199219 " clip-rule="evenodd"/></clipPath><clipPath id="7d3ad91e2e"><path d="M 124 70 L 264 70 L 264 232 L 124 232 Z M 124 70 " clip-rule="nonzero"/></clipPath><clipPath id="91f2f8e81a"><path d="M 0.144531 191.996094 C 0.144531 185.710938 0.449219 179.441406 1.066406 173.1875 C 1.683594 166.933594 2.601562 160.726562 3.828125 154.5625 C 5.054688 148.398438 6.578125 142.308594 8.402344 136.296875 C 10.226562 130.285156 12.34375 124.375 14.746094 118.566406 C 17.152344 112.761719 19.835938 107.085938 22.796875 101.546875 C 25.757812 96.003906 28.984375 90.621094 32.476562 85.394531 C 35.96875 80.167969 39.707031 75.128906 43.691406 70.269531 C 47.679688 65.414062 51.894531 60.761719 56.335938 56.316406 C 60.78125 51.875 65.429688 47.660156 70.289062 43.671875 C 75.144531 39.6875 80.1875 35.949219 85.410156 32.457031 C 90.636719 28.964844 96.019531 25.738281 101.558594 22.777344 C 107.101562 19.8125 112.777344 17.128906 118.582031 14.726562 C 124.386719 12.320312 130.296875 10.207031 136.308594 8.382812 C 142.320312 6.558594 148.410156 5.03125 154.574219 3.804688 C 160.734375 2.578125 166.945312 1.660156 173.195312 1.042969 C 179.449219 0.425781 185.71875 0.117188 192.003906 0.117188 C 198.285156 0.117188 204.554688 0.425781 210.808594 1.042969 C 217.0625 1.660156 223.269531 2.578125 229.433594 3.804688 C 235.59375 5.03125 241.683594 6.558594 247.695312 8.382812 C 253.710938 10.207031 259.617188 12.320312 265.425781 14.726562 C 271.230469 17.128906 276.902344 19.8125 282.445312 22.777344 C 287.984375 25.738281 293.371094 28.964844 298.59375 32.457031 C 303.820312 35.949219 308.859375 39.6875 313.71875 43.671875 C 318.574219 47.660156 323.226562 51.875 327.667969 56.316406 C 332.109375 60.761719 336.324219 65.414062 340.3125 70.269531 C 344.296875 75.128906 348.039062 80.167969 351.527344 85.394531 C 355.019531 90.621094 358.246094 96.003906 361.207031 101.546875 C 364.167969 107.085938 366.851562 112.761719 369.257812 118.566406 C 371.664062 124.375 373.777344 130.285156 375.601562 136.296875 C 377.425781 142.308594 378.949219 148.398438 380.175781 154.5625 C 381.402344 160.726562 382.324219 166.933594 382.9375 173.1875 C 383.554688 179.441406 383.863281 185.710938 383.863281 191.996094 C 383.863281 198.28125 383.554688 204.550781 382.9375 210.804688 C 382.324219 217.058594 381.402344 223.265625 380.175781 229.429688 C 378.949219 235.59375 377.425781 241.679688 375.601562 247.695312 C 373.777344 253.707031 371.664062 259.617188 369.257812 265.421875 C 366.851562 271.230469 364.167969 276.902344 361.207031 282.445312 C 358.246094 287.988281 355.019531 293.371094 351.527344 298.597656 C 348.039062 303.820312 344.296875 308.863281 340.3125 313.722656 C 336.324219 318.578125 332.109375 323.230469 327.667969 327.671875 C 323.226562 332.117188 318.574219 336.332031 313.71875 340.320312 C 308.859375 344.304688 303.820312 348.042969 298.59375 351.535156 C 293.371094 355.027344 287.984375 358.253906 282.445312 361.214844 C 276.902344 364.179688 271.230469 366.863281 265.425781 369.265625 C 259.617188 371.671875 253.710938 373.785156 247.695312 375.609375 C 241.683594 377.433594 235.59375 378.960938 229.433594 380.1875 C 223.269531 381.410156 217.0625 382.332031 210.808594 382.949219 C 204.554688 383.566406 198.285156 383.871094 192.003906 383.871094 C 185.71875 383.871094 179.449219 383.566406 173.195312 382.949219 C 166.945312 382.332031 160.734375 381.410156 154.574219 380.1875 C 148.410156 378.960938 142.320312 377.433594 136.308594 375.609375 C 130.296875 373.785156 124.386719 371.671875 118.582031 369.265625 C 112.777344 366.863281 107.101562 364.179688 101.558594 361.214844 C 96.019531 358.253906 90.636719 355.027344 85.410156 351.535156 C 80.1875 348.042969 75.144531 344.304688 70.289062 340.320312 C 65.429688 336.332031 60.78125 332.117188 56.335938 327.671875 C 51.894531 323.230469 47.679688 318.578125 43.691406 313.722656 C 39.707031 308.863281 35.96875 303.820312 32.476562 298.597656 C 28.984375 293.371094 25.757812 287.988281 22.796875 282.445312 C 19.835938 276.902344 17.152344 271.230469 14.746094 265.421875 C 12.34375 259.617188 10.226562 253.707031 8.402344 247.695312 C 6.578125 241.679688 5.054688 235.59375 3.828125 229.429688 C 2.601562 223.265625 1.683594 217.058594 1.066406 210.804688 C 0.449219 204.550781 0.144531 198.28125 0.144531 191.996094 Z M 0.144531 191.996094 " clip-rule="nonzero"/></clipPath><clipPath id="dc5da2df5f"><path d="M 115 42 L 240 42 L 240 151 L 115 151 Z M 115 42 " clip-rule="nonzero"/></clipPath><clipPath id="488b3737cd"><path d="M 0.144531 191.996094 C 0.144531 185.710938 0.449219 179.441406 1.066406 173.1875 C 1.683594 166.933594 2.601562 160.726562 3.828125 154.5625 C 5.054688 148.398438 6.578125 142.308594 8.402344 136.296875 C 10.226562 130.285156 12.34375 124.375 14.746094 118.566406 C 17.152344 112.761719 19.835938 107.085938 22.796875 101.546875 C 25.757812 96.003906 28.984375 90.621094 32.476562 85.394531 C 35.96875 80.167969 39.707031 75.128906 43.691406 70.269531 C 47.679688 65.414062 51.894531 60.761719 56.335938 56.316406 C 60.78125 51.875 65.429688 47.660156 70.289062 43.671875 C 75.144531 39.6875 80.1875 35.949219 85.410156 32.457031 C 90.636719 28.964844 96.019531 25.738281 101.558594 22.777344 C 107.101562 19.8125 112.777344 17.128906 118.582031 14.726562 C 124.386719 12.320312 130.296875 10.207031 136.308594 8.382812 C 142.320312 6.558594 148.410156 5.03125 154.574219 3.804688 C 160.734375 2.578125 166.945312 1.660156 173.195312 1.042969 C 179.449219 0.425781 185.71875 0.117188 192.003906 0.117188 C 198.285156 0.117188 204.554688 0.425781 210.808594 1.042969 C 217.0625 1.660156 223.269531 2.578125 229.433594 3.804688 C 235.59375 5.03125 241.683594 6.558594 247.695312 8.382812 C 253.710938 10.207031 259.617188 12.320312 265.425781 14.726562 C 271.230469 17.128906 276.902344 19.8125 282.445312 22.777344 C 287.984375 25.738281 293.371094 28.964844 298.59375 32.457031 C 303.820312 35.949219 308.859375 39.6875 313.71875 43.671875 C 318.574219 47.660156 323.226562 51.875 327.667969 56.316406 C 332.109375 60.761719 336.324219 65.414062 340.3125 70.269531 C 344.296875 75.128906 348.039062 80.167969 351.527344 85.394531 C 355.019531 90.621094 358.246094 96.003906 361.207031 101.546875 C 364.167969 107.085938 366.851562 112.761719 369.257812 118.566406 C 371.664062 124.375 373.777344 130.285156 375.601562 136.296875 C 377.425781 142.308594 378.949219 148.398438 380.175781 154.5625 C 381.402344 160.726562 382.324219 166.933594 382.9375 173.1875 C 383.554688 179.441406 383.863281 185.710938 383.863281 191.996094 C 383.863281 198.28125 383.554688 204.550781 382.9375 210.804688 C 382.324219 217.058594 381.402344 223.265625 380.175781 229.429688 C 378.949219 235.59375 377.425781 241.679688 375.601562 247.695312 C 373.777344 253.707031 371.664062 259.617188 369.257812 265.421875 C 366.851562 271.230469 364.167969 276.902344 361.207031 282.445312 C 358.246094 287.988281 355.019531 293.371094 351.527344 298.597656 C 348.039062 303.820312 344.296875 308.863281 340.3125 313.722656 C 336.324219 318.578125 332.109375 323.230469 327.667969 327.671875 C 323.226562 332.117188 318.574219 336.332031 313.71875 340.320312 C 308.859375 344.304688 303.820312 348.042969 298.59375 351.535156 C 293.371094 355.027344 287.984375 358.253906 282.445312 361.214844 C 276.902344 364.179688 271.230469 366.863281 265.425781 369.265625 C 259.617188 371.671875 253.710938 373.785156 247.695312 375.609375 C 241.683594 377.433594 235.59375 378.960938 229.433594 380.1875 C 223.269531 381.410156 217.0625 382.332031 210.808594 382.949219 C 204.554688 383.566406 198.285156 383.871094 192.003906 383.871094 C 185.71875 383.871094 179.449219 383.566406 173.195312 382.949219 C 166.945312 382.332031 160.734375 381.410156 154.574219 380.1875 C 148.410156 378.960938 142.320312 377.433594 136.308594 375.609375 C 130.296875 373.785156 124.386719 371.671875 118.582031 369.265625 C 112.777344 366.863281 107.101562 364.179688 101.558594 361.214844 C 96.019531 358.253906 90.636719 355.027344 85.410156 351.535156 C 80.1875 348.042969 75.144531 344.304688 70.289062 340.320312 C 65.429688 336.332031 60.78125 332.117188 56.335938 327.671875 C 51.894531 323.230469 47.679688 318.578125 43.691406 313.722656 C 39.707031 308.863281 35.96875 303.820312 32.476562 298.597656 C 28.984375 293.371094 25.757812 287.988281 22.796875 282.445312 C 19.835938 276.902344 17.152344 271.230469 14.746094 265.421875 C 12.34375 259.617188 10.226562 253.707031 8.402344 247.695312 C 6.578125 241.679688 5.054688 235.59375 3.828125 229.429688 C 2.601562 223.265625 1.683594 217.058594 1.066406 210.804688 C 0.449219 204.550781 0.144531 198.28125 0.144531 191.996094 Z M 0.144531 191.996094 " clip-rule="nonzero"/></clipPath></defs><path fill="#628f15" d="M 383.863281 191.996094 C 383.863281 195.136719 383.785156 198.273438 383.632812 201.410156 C 383.476562 204.546875 383.246094 207.679688 382.9375 210.804688 C 382.628906 213.929688 382.246094 217.042969 381.785156 220.148438 C 381.324219 223.257812 380.789062 226.347656 380.175781 229.429688 C 379.5625 232.507812 378.875 235.570312 378.113281 238.617188 C 377.351562 241.664062 376.511719 244.691406 375.601562 247.695312 C 374.691406 250.699219 373.703125 253.679688 372.648438 256.636719 C 371.589844 259.59375 370.460938 262.523438 369.257812 265.421875 C 368.054688 268.324219 366.785156 271.195312 365.441406 274.035156 C 364.097656 276.871094 362.6875 279.675781 361.207031 282.445312 C 359.726562 285.214844 358.179688 287.945312 356.566406 290.640625 C 354.953125 293.332031 353.273438 295.984375 351.527344 298.597656 C 349.785156 301.207031 347.976562 303.773438 346.105469 306.296875 C 344.234375 308.820312 342.304688 311.292969 340.3125 313.722656 C 338.320312 316.148438 336.269531 318.527344 334.160156 320.851562 C 332.050781 323.179688 329.886719 325.453125 327.667969 327.671875 C 325.449219 329.894531 323.175781 332.058594 320.847656 334.167969 C 318.519531 336.277344 316.144531 338.328125 313.71875 340.320312 C 311.289062 342.3125 308.816406 344.242188 306.292969 346.113281 C 303.769531 347.984375 301.203125 349.789062 298.59375 351.535156 C 295.984375 353.28125 293.332031 354.960938 290.636719 356.574219 C 287.945312 358.1875 285.214844 359.734375 282.445312 361.214844 C 279.675781 362.695312 276.871094 364.109375 274.03125 365.449219 C 271.195312 366.792969 268.324219 368.066406 265.425781 369.265625 C 262.523438 370.46875 259.59375 371.597656 256.636719 372.65625 C 253.683594 373.714844 250.699219 374.699219 247.695312 375.609375 C 244.691406 376.523438 241.667969 377.359375 238.621094 378.121094 C 235.574219 378.886719 232.511719 379.574219 229.433594 380.1875 C 226.351562 380.796875 223.261719 381.335938 220.152344 381.796875 C 217.046875 382.257812 213.933594 382.640625 210.808594 382.949219 C 207.683594 383.257812 204.554688 383.488281 201.417969 383.640625 C 198.28125 383.796875 195.140625 383.871094 192.003906 383.871094 C 188.863281 383.871094 185.722656 383.796875 182.589844 383.640625 C 179.453125 383.488281 176.320312 383.257812 173.195312 382.949219 C 170.070312 382.640625 166.957031 382.257812 163.851562 381.796875 C 160.746094 381.335938 157.652344 380.796875 154.574219 380.1875 C 151.492188 379.574219 148.429688 378.886719 145.382812 378.121094 C 142.339844 377.359375 139.3125 376.523438 136.308594 375.609375 C 133.304688 374.699219 130.324219 373.714844 127.367188 372.65625 C 124.410156 371.597656 121.480469 370.46875 118.582031 369.265625 C 115.679688 368.066406 112.808594 366.792969 109.972656 365.449219 C 107.132812 364.109375 104.328125 362.695312 101.558594 361.214844 C 98.792969 359.734375 96.058594 358.1875 93.367188 356.574219 C 90.671875 354.960938 88.023438 353.28125 85.410156 351.535156 C 82.800781 349.789062 80.234375 347.984375 77.710938 346.113281 C 75.191406 344.242188 72.714844 342.3125 70.289062 340.320312 C 67.859375 338.328125 65.484375 336.277344 63.15625 334.167969 C 60.832031 332.058594 58.558594 329.894531 56.335938 327.671875 C 54.117188 325.453125 51.953125 323.179688 49.84375 320.851562 C 47.734375 318.527344 45.683594 316.148438 43.691406 313.722656 C 41.699219 311.292969 39.769531 308.820312 37.898438 306.296875 C 36.027344 303.773438 34.222656 301.207031 32.476562 298.597656 C 30.730469 295.984375 29.054688 293.332031 27.4375 290.640625 C 25.824219 287.945312 24.277344 285.214844 22.796875 282.445312 C 21.316406 279.675781 19.90625 276.871094 18.5625 274.035156 C 17.21875 271.195312 15.949219 268.324219 14.746094 265.421875 C 13.546875 262.523438 12.414062 259.59375 11.359375 256.636719 C 10.300781 253.679688 9.316406 250.699219 8.402344 247.695312 C 7.492188 244.691406 6.65625 241.664062 5.890625 238.617188 C 5.128906 235.570312 4.441406 232.507812 3.828125 229.429688 C 3.214844 226.347656 2.679688 223.257812 2.21875 220.148438 C 1.757812 217.042969 1.375 213.929688 1.066406 210.804688 C 0.757812 207.679688 0.527344 204.546875 0.375 201.410156 C 0.21875 198.273438 0.140625 195.136719 0.144531 191.996094 C 0.140625 188.855469 0.21875 185.71875 0.375 182.582031 C 0.527344 179.445312 0.757812 176.3125 1.066406 173.1875 C 1.375 170.0625 1.757812 166.949219 2.21875 163.839844 C 2.679688 160.734375 3.214844 157.640625 3.828125 154.5625 C 4.441406 151.484375 5.128906 148.417969 5.890625 145.375 C 6.65625 142.328125 7.492188 139.300781 8.402344 136.296875 C 9.316406 133.292969 10.300781 130.3125 11.359375 127.355469 C 12.414062 124.398438 13.546875 121.46875 14.746094 118.566406 C 15.949219 115.667969 17.21875 112.796875 18.5625 109.957031 C 19.90625 107.117188 21.316406 104.316406 22.796875 101.546875 C 24.277344 98.777344 25.824219 96.042969 27.4375 93.351562 C 29.054688 90.65625 30.730469 88.003906 32.476562 85.394531 C 34.222656 82.785156 36.027344 80.21875 37.898438 77.695312 C 39.769531 75.171875 41.699219 72.699219 43.691406 70.269531 C 45.683594 67.84375 47.734375 65.464844 49.84375 63.140625 C 51.953125 60.8125 54.117188 58.539062 56.335938 56.316406 C 58.558594 54.097656 60.832031 51.933594 63.15625 49.824219 C 65.484375 47.714844 67.859375 45.664062 70.289062 43.671875 C 72.714844 41.679688 75.191406 39.75 77.710938 37.878906 C 80.234375 36.007812 82.800781 34.199219 85.410156 32.457031 C 88.023438 30.710938 90.671875 29.03125 93.367188 27.417969 C 96.058594 25.804688 98.792969 24.253906 101.558594 22.777344 C 104.328125 21.296875 107.132812 19.882812 109.972656 18.542969 C 112.808594 17.199219 115.679688 15.925781 118.582031 14.726562 C 121.480469 13.523438 124.410156 12.394531 127.367188 11.335938 C 130.324219 10.277344 133.304688 9.292969 136.308594 8.382812 C 139.3125 7.46875 142.339844 6.632812 145.382812 5.871094 C 148.429688 5.105469 151.492188 4.417969 154.574219 3.804688 C 157.652344 3.191406 160.746094 2.65625 163.851562 2.195312 C 166.957031 1.734375 170.070312 1.351562 173.195312 1.042969 C 176.320312 0.734375 179.453125 0.503906 182.589844 0.351562 C 185.722656 0.195312 188.863281 0.117188 192.003906 0.117188 C 195.140625 0.117188 198.28125 0.195312 201.417969 0.351562 C 204.554688 0.503906 207.683594 0.734375 210.808594 1.042969 C 213.933594 1.351562 217.046875 1.734375 220.152344 2.195312 C 223.261719 2.65625 226.351562 3.191406 229.433594 3.804688 C 232.511719 4.417969 235.574219 5.105469 238.621094 5.871094 C 241.667969 6.632812 244.691406 7.46875 247.695312 8.382812 C 250.699219 9.292969 253.683594 10.277344 256.636719 11.335938 C 259.59375 12.394531 262.523438 13.523438 265.425781 14.726562 C 268.324219 15.925781 271.195312 17.199219 274.03125 18.542969 C 276.871094 19.882812 279.675781 21.296875 282.445312 22.777344 C 285.214844 24.253906 287.945312 25.804688 290.636719 27.417969 C 293.332031 29.03125 295.984375 30.710938 298.59375 32.457031 C 301.203125 34.199219 303.769531 36.007812 306.292969 37.878906 C 308.816406 39.75 311.289062 41.679688 313.71875 43.671875 C 316.144531 45.664062 318.519531 47.714844 320.847656 49.824219 C 323.175781 51.933594 325.449219 54.097656 327.667969 56.316406 C 329.886719 58.539062 332.050781 60.8125 334.160156 63.140625 C 336.269531 65.464844 338.320312 67.84375 340.3125 70.269531 C 342.304688 72.699219 344.234375 75.171875 346.105469 77.695312 C 347.976562 80.21875 349.785156 82.785156 351.527344 85.394531 C 353.273438 88.003906 354.953125 90.65625 356.566406 93.351562 C 358.179688 96.042969 359.726562 98.777344 361.207031 101.546875 C 362.6875 104.316406 364.097656 107.117188 365.441406 109.957031 C 366.785156 112.796875 368.054688 115.667969 369.257812 118.566406 C 370.460938 121.46875 371.589844 124.398438 372.648438 127.355469 C 373.703125 130.3125 374.6875 133.292969 375.601562 136.296875 C 376.511719 139.300781 377.351562 142.328125 378.113281 145.375 C 378.875 148.417969 379.5625 151.484375 380.175781 154.5625 C 380.789062 157.640625 381.324219 160.734375 381.785156 163.839844 C 382.246094 166.949219 382.628906 170.0625 382.9375 173.1875 C 383.246094 176.3125 383.476562 179.445312 383.632812 182.582031 C 383.785156 185.71875 383.863281 188.855469 383.863281 191.996094 Z M 383.863281 191.996094 " fill-opacity="1" fill-rule="nonzero"/><g clip-path="url(#85d064aef5)"><g clip-path="url(#4ffbfaa204)"><path fill="#000000" d="M 147.671875 43.496094 C 129.28125 42.992188 105.1875 76.328125 103.492188 110.605469 C 102.132812 138.039062 107.554688 166.640625 109.265625 179.304688 C 110.914062 191.550781 116.941406 220.105469 109.765625 239.148438 C 91.984375 286.359375 105.8125 304.375 105.15625 321.023438 C 122.890625 327.152344 122.96875 315.160156 141.464844 316.488281 C 206.28125 321.144531 250.09375 316.605469 310.613281 296.863281 C 303.714844 288.566406 299.089844 277.515625 295.503906 267.511719 C 289.773438 251.527344 285.890625 234.078125 285.089844 217.097656 C 284.199219 198.273438 287.269531 179.726562 288.28125 160.988281 C 289.21875 143.683594 288.003906 118.566406 283.960938 101.714844 C 271.222656 48.582031 229.660156 32.96875 210.699219 30.839844 C 192.503906 28.792969 167.054688 28.488281 147.671875 43.496094 Z M 147.671875 43.496094 " fill-opacity="1" fill-rule="evenodd"/></g></g><g clip-path="url(#37e54790bf)"><g clip-path="url(#65d11fd58d)"><path fill="#ffc281" d="M 161.246094 202.921875 C 160.945312 211.800781 163.914062 254.902344 162.261719 268.410156 C 184.589844 273.542969 213.5 285.109375 235.328125 272.285156 C 232.199219 263.148438 232.070312 252.160156 231.625 242.640625 C 230.765625 224.199219 227.695312 213.457031 229.9375 195.117188 Z M 161.246094 202.921875 " fill-opacity="1" fill-rule="evenodd"/></g></g><g clip-path="url(#cf39ce181a)"><g clip-path="url(#7bf0566e9b)"><g clip-path="url(#2510a7e86e)"><path fill="#000000" d="M 127.671875 202.558594 C 132.253906 208.050781 145.289062 224.445312 151 228.808594 C 165.722656 240.058594 190.398438 246.691406 207.164062 236.554688 C 224.378906 226.148438 232.96875 205.789062 237.078125 186.964844 Z M 127.671875 202.558594 " fill-opacity="1" fill-rule="evenodd"/></g></g></g><g clip-path="url(#6198cc98f6)"><g clip-path="url(#ec56e6d611)"><path fill="#1d1d1d" d="M 47.390625 368.199219 C 55.105469 348.089844 62.511719 304.53125 75.261719 286.703125 C 83.042969 275.824219 145.6875 256.003906 162.429688 247.191406 C 170.085938 254.730469 189.242188 271.25 200.746094 268.976562 C 211.027344 266.945312 223.417969 258.214844 231.984375 245.542969 C 248.695312 254.535156 292.894531 262.546875 310.433594 277.722656 C 324.292969 289.710938 336.136719 329.242188 342.613281 350.847656 C 237.804688 448.542969 134.753906 463.914062 47.390625 368.199219 " fill-opacity="1" fill-rule="evenodd"/></g></g><g clip-path="url(#1b1c5d39ca)"><g clip-path="url(#beacfb3e0f)"><g clip-path="url(#6583288b29)"><path fill="#ffffff" d="M 190.5625 399.238281 C 189.523438 364.808594 193.734375 287.707031 198.28125 258.105469 C 198.9375 258.210938 201.546875 259.730469 202.855469 258.90625 C 199.925781 293.109375 195.78125 357.066406 196.4375 399.09375 Z M 190.5625 399.238281 " fill-opacity="1" fill-rule="evenodd"/></g></g></g><g clip-path="url(#86ce9337df)"><g clip-path="url(#0eec70d8b6)"><g clip-path="url(#cceb9087a5)"><path fill="#ffffff" d="M 124.542969 243.9375 C 130.582031 259.0625 169.628906 298.882812 177.027344 296.453125 C 181.585938 294.957031 193.617188 280.558594 199.308594 269.121094 C 204.070312 279.617188 218.464844 297.847656 222.859375 297.769531 C 222.859375 297.769531 261.308594 267.554688 271.800781 237.710938 C 223.390625 225.910156 171.726562 228.042969 124.542969 243.9375 Z M 124.542969 243.9375 " fill-opacity="1" fill-rule="evenodd"/></g></g></g><g clip-path="url(#7d3ad91e2e)"><g clip-path="url(#91f2f8e81a)"><path fill="#ffc281" d="M 124.128906 111.570312 C 123.546875 139.921875 124.390625 177.984375 142.648438 201.566406 C 149.492188 210.402344 157.226562 217.929688 166.839844 223.359375 C 174.332031 227.59375 183.761719 231.761719 192.5 231.097656 C 202.816406 230.316406 209.9375 225.804688 216.253906 220.46875 C 230.8125 208.171875 241.074219 190.019531 246.601562 171.953125 C 256 166.742188 266.371094 156.476562 263.503906 144.632812 C 261.667969 137.050781 253.621094 134.671875 247.175781 138.28125 C 242.714844 140.78125 240.136719 144.972656 238.011719 149.472656 C 239.980469 129.644531 231.332031 104.328125 217.746094 89.027344 C 189.542969 57.265625 141.21875 68.015625 124.128906 111.570312 Z M 124.128906 111.570312 " fill-opacity="1" fill-rule="evenodd"/></g></g><g clip-path="url(#dc5da2df5f)"><g clip-path="url(#488b3737cd)"><path fill="#000000" d="M 118.222656 141.550781 C 121.421875 138.324219 123.292969 133.648438 125.472656 129.738281 C 134.707031 113.164062 136.375 93.863281 136.746094 95.066406 C 137.703125 98.164062 145.191406 113.078125 161.390625 119.796875 C 175.683594 125.722656 191.40625 127.550781 206.71875 128.273438 C 218.59375 128.835938 231.300781 138.925781 237.851562 150.628906 C 240.46875 141.378906 239.234375 120.105469 236.957031 111.109375 C 235.269531 104.457031 232.972656 98.136719 230.011719 92.238281 C 223.988281 80.238281 215.226562 69.996094 203.324219 62.296875 C 187.816406 52.265625 149.507812 42.089844 149.507812 42.089844 L 147.476562 43.507812 C 147.476562 43.507812 147.03125 43.570312 146.777344 43.5625 C 134.449219 43.316406 127.003906 66.289062 120.242188 78.292969 C 116.019531 85.792969 114.511719 119.710938 117.351562 129.152344 Z M 118.222656 141.550781 " fill-opacity="1" fill-rule="evenodd"/></g></g><path stroke-linecap="round" transform="matrix(0.501385, 0, 0, 0.468923, -230.445781, -174.516008)" fill="none" stroke-linejoin="round" d="M 1225.224741 781.603814 C 1225.224741 788.301341 1225.068923 794.990537 1224.765077 801.679733 C 1224.45344 808.368929 1223.993776 815.049795 1223.378293 821.714001 C 1222.76281 828.378206 1221.999299 835.017421 1221.079971 841.639975 C 1220.160642 848.270859 1219.093285 854.860092 1217.870111 861.432665 C 1216.646936 867.996907 1215.275733 874.527828 1213.756504 881.025429 C 1212.237274 887.523029 1210.562226 893.978978 1208.746941 900.384945 C 1206.931656 906.790913 1204.960552 913.146898 1202.857003 919.452903 C 1200.745663 925.758907 1198.494087 932.0066 1196.094483 938.18765 C 1193.694879 944.377031 1191.162829 950.49977 1188.482752 956.555866 C 1185.802675 962.603633 1182.990152 968.584757 1180.037392 974.490909 C 1177.084633 980.397061 1173.999427 986.219911 1170.781776 991.967788 C 1167.564126 997.707335 1164.214029 1003.363579 1160.731487 1008.936521 C 1157.256735 1014.501132 1153.649538 1019.974111 1149.917687 1025.355457 C 1146.185835 1030.736802 1142.337119 1036.009855 1138.363749 1041.191275 C 1134.390379 1046.364364 1130.300144 1051.43749 1126.093046 1056.393993 C 1121.885948 1061.358826 1117.569777 1066.207036 1113.144534 1070.938621 C 1108.71929 1075.678538 1104.184973 1080.2935 1099.541583 1084.791838 C 1094.898194 1089.290177 1090.161313 1093.663562 1085.32315 1097.911993 C 1080.477197 1102.160424 1075.545543 1106.275571 1070.512607 1110.265763 C 1065.479671 1114.255956 1060.361035 1118.104535 1055.156699 1121.82816 C 1049.952363 1125.551785 1044.662327 1129.133795 1039.286591 1132.574191 C 1033.918645 1136.014587 1028.472791 1139.313369 1022.949027 1142.470536 C 1017.425263 1145.627703 1011.831381 1148.643256 1006.16738 1151.500534 C 1000.511171 1154.366143 994.784843 1157.081806 989.003978 1159.639195 C 983.215323 1162.204914 977.372131 1164.612358 971.474403 1166.869858 C 965.584466 1169.127358 959.632201 1171.226582 953.640982 1173.167532 C 947.649763 1175.116812 941.619589 1176.899487 935.54267 1178.523887 C 929.46575 1180.156617 923.357667 1181.622743 917.218421 1182.930593 C 911.071383 1184.230113 904.908764 1185.379688 898.707189 1186.362659 C 892.513406 1187.345629 886.304041 1188.161994 880.071303 1188.820084 C 873.838566 1189.478175 867.598037 1189.96966 861.341926 1190.29454 C 855.085816 1190.62775 848.821914 1190.786025 842.565804 1190.786025 C 836.301902 1190.786025 830.038001 1190.62775 823.789681 1190.29454 C 817.53357 1189.96966 811.285251 1189.478175 805.052513 1188.820084 C 798.819775 1188.161994 792.61041 1187.345629 786.416627 1186.362659 C 780.222844 1185.379688 774.052433 1184.230113 767.913187 1182.930593 C 761.766149 1181.622743 755.658066 1180.156617 749.581147 1178.523887 C 743.512018 1176.899487 737.474053 1175.116812 731.482834 1173.167532 C 725.491615 1171.226582 719.547141 1169.127358 713.649413 1166.869858 C 707.751685 1164.612358 701.908493 1162.204914 696.127629 1159.639195 C 690.338974 1157.081806 684.612646 1154.366143 678.956436 1151.500534 C 673.292436 1148.643256 667.698554 1145.627703 662.17479 1142.470536 C 656.658817 1139.313369 651.205171 1136.014587 645.837226 1132.574191 C 640.461489 1129.133795 635.179244 1125.551785 629.967117 1121.82816 C 624.762781 1118.104535 619.644145 1114.255956 614.611209 1110.265763 C 609.586064 1106.275571 604.64662 1102.160424 599.808457 1097.911993 C 594.962503 1093.663562 590.225623 1089.290177 585.582233 1084.791838 C 580.946634 1080.2935 576.412318 1075.678538 571.979283 1070.938621 C 567.554039 1066.207036 563.237868 1061.358826 559.03077 1056.393993 C 554.823672 1051.43749 550.733438 1046.364364 546.760067 1041.191275 C 542.786697 1036.009855 538.937981 1030.736802 535.20613 1025.355457 C 531.474278 1019.974111 527.874872 1014.501132 524.39233 1008.936521 C 520.909787 1003.363579 517.567482 997.707335 514.34204 991.967788 C 511.124389 986.219911 508.039184 980.397061 505.086424 974.490909 C 502.133665 968.584757 499.321142 962.603633 496.641065 956.555866 C 493.960987 950.49977 491.428938 944.377031 489.029333 938.18765 C 486.63752 932.0066 484.378153 925.758907 482.274604 919.452903 C 480.163264 913.146898 478.199952 906.790913 476.376876 900.384945 C 474.561591 893.978978 472.894333 887.523029 471.367313 881.025429 C 469.848083 874.527828 468.476881 867.996907 467.253706 861.432665 C 466.030531 854.860092 464.963175 848.270859 464.043846 841.639975 C 463.124517 835.017421 462.361007 828.378206 461.745524 821.714001 C 461.130041 815.049795 460.670376 808.368929 460.36653 801.679733 C 460.054894 794.990537 459.899075 788.301341 459.906866 781.603814 C 459.899075 774.906288 460.054894 768.217092 460.36653 761.527896 C 460.670376 754.8387 461.130041 748.157834 461.745524 741.493628 C 462.361007 734.829423 463.124517 728.190208 464.043846 721.559324 C 464.963175 714.93677 466.030531 708.339207 467.253706 701.774964 C 468.476881 695.210722 469.848083 688.67147 471.367313 682.1822 C 472.894333 675.6846 474.561591 669.228651 476.376876 662.822684 C 478.199952 656.416716 480.163264 650.06073 482.274604 643.754726 C 484.378153 637.448722 486.63752 631.201029 489.029333 625.011648 C 491.428938 618.830598 493.960987 612.707859 496.641065 606.651763 C 499.321142 600.595666 502.133665 594.622872 505.086424 588.71672 C 508.039184 582.810568 511.124389 576.979388 514.34204 571.239841 C 517.567482 565.491964 520.909787 559.83572 524.39233 554.271108 C 527.874872 548.706497 531.474278 543.233518 535.20613 537.852172 C 538.937981 532.470826 542.786697 527.197774 546.760067 522.016354 C 550.733438 516.843265 554.823672 511.770138 559.03077 506.813636 C 563.237868 501.848803 567.554039 497.000593 571.979283 492.260677 C 576.412318 487.529091 580.946634 482.914129 585.582233 478.415791 C 590.225623 473.917452 594.962503 469.544067 599.808457 465.295636 C 604.64662 461.047205 609.586064 456.932058 614.611209 452.941865 C 619.644145 448.951672 624.762781 445.094764 629.967117 441.379469 C 635.179244 437.655844 640.461489 434.073834 645.837226 430.633438 C 651.205171 427.193042 656.658817 423.88593 662.17479 420.737093 C 667.698554 417.579926 673.292436 414.564373 678.956436 411.707095 C 684.612646 408.841486 690.338974 406.125823 696.127629 403.568434 C 701.908493 401.002715 707.751685 398.595271 713.649413 396.337771 C 719.547141 394.080271 725.491615 391.981047 731.482834 390.040097 C 737.474053 388.090817 743.512018 386.308142 749.581147 384.683742 C 755.658066 383.051012 761.766149 381.584886 767.913187 380.277036 C 774.052433 378.969186 780.222844 377.827941 786.416627 376.84497 C 792.61041 375.862 798.819775 375.045635 805.052513 374.387545 C 811.285251 373.729454 817.53357 373.237969 823.789681 372.913089 C 830.038001 372.579879 836.301902 372.413274 842.565804 372.413274 C 848.821914 372.413274 855.085816 372.579879 861.341926 372.913089 C 867.598037 373.237969 873.838566 373.729454 880.071303 374.387545 C 886.304041 375.045635 892.513406 375.862 898.707189 376.84497 C 904.908764 377.827941 911.071383 378.969186 917.218421 380.277036 C 923.357667 381.584886 929.46575 383.051012 935.54267 384.683742 C 941.619589 386.308142 947.649763 388.090817 953.640982 390.040097 C 959.632201 391.981047 965.584466 394.080271 971.474403 396.337771 C 977.372131 398.595271 983.215323 401.002715 989.003978 403.568434 C 994.784843 406.125823 1000.511171 408.841486 1006.16738 411.707095 C 1011.831381 414.564373 1017.425263 417.579926 1022.949027 420.737093 C 1028.472791 423.88593 1033.918645 427.193042 1039.286591 430.633438 C 1044.662327 434.073834 1049.952363 437.655844 1055.156699 441.379469 C 1060.361035 445.094764 1065.479671 448.951672 1070.512607 452.941865 C 1075.545543 456.932058 1080.477197 461.047205 1085.32315 465.295636 C 1090.161313 469.544067 1094.898194 473.917452 1099.541583 478.415791 C 1104.184973 482.914129 1108.71929 487.529091 1113.144534 492.260677 C 1117.569777 497.000593 1121.885948 501.848803 1126.093046 506.813636 C 1130.300144 511.770138 1134.390379 516.843265 1138.363749 522.016354 C 1142.337119 527.197774 1146.185835 532.470826 1149.917687 537.852172 C 1153.649538 543.233518 1157.256735 548.706497 1160.731487 554.271108 C 1164.214029 559.83572 1167.564126 565.491964 1170.781776 571.239841 C 1173.999427 576.979388 1177.084633 582.810568 1180.037392 588.71672 C 1182.990152 594.622872 1185.802675 600.595666 1188.482752 606.651763 C 1191.162829 612.707859 1193.694879 618.830598 1196.094483 625.011648 C 1198.494087 631.201029 1200.745663 637.448722 1202.857003 643.754726 C 1204.960552 650.06073 1206.923865 656.416716 1208.746941 662.822684 C 1210.562226 669.228651 1212.237274 675.6846 1213.756504 682.1822 C 1215.275733 688.67147 1216.646936 695.210722 1217.870111 701.774964 C 1219.093285 708.339207 1220.160642 714.93677 1221.079971 721.559324 C 1221.999299 728.190208 1222.76281 734.829423 1223.378293 741.493628 C 1223.993776 748.157834 1224.45344 754.8387 1224.765077 761.527896 C 1225.068923 768.217092 1225.224741 774.906288 1225.224741 781.603814 Z M 1225.224741 781.603814 " stroke="#ffffff" stroke-width="0.52" stroke-opacity="1" stroke-miterlimit="1.5"/></svg>