<svg xmlns="http://www.w3.org/2000/svg" xmlns:xlink="http://www.w3.org/1999/xlink" width="512" zoomAndPan="magnify" viewBox="0 0 384 383.999986" height="512" preserveAspectRatio="xMidYMid meet" version="1.0"><path fill="#628f15" d="M 379.980469 193.167969 C 379.980469 196.246094 379.90625 199.320312 379.757812 202.394531 C 379.605469 205.46875 379.378906 208.539062 379.078125 211.601562 C 378.777344 214.667969 378.402344 217.722656 377.949219 220.765625 C 377.5 223.8125 376.972656 226.84375 376.371094 229.863281 C 375.773438 232.882812 375.097656 235.882812 374.351562 238.871094 C 373.601562 241.855469 372.78125 244.824219 371.890625 247.769531 C 370.996094 250.714844 370.03125 253.636719 368.996094 256.535156 C 367.957031 259.433594 366.851562 262.304688 365.671875 265.148438 C 364.496094 267.992188 363.25 270.808594 361.933594 273.589844 C 360.617188 276.371094 359.234375 279.121094 357.78125 281.835938 C 356.332031 284.550781 354.816406 287.230469 353.234375 289.871094 C 351.648438 292.511719 350.003906 295.109375 348.292969 297.671875 C 346.585938 300.230469 344.8125 302.746094 342.980469 305.21875 C 341.144531 307.691406 339.253906 310.117188 337.300781 312.5 C 335.347656 314.878906 333.335938 317.207031 331.269531 319.488281 C 329.203125 321.769531 327.082031 324 324.90625 326.175781 C 322.726562 328.351562 320.5 330.476562 318.21875 332.542969 C 315.9375 334.609375 313.609375 336.621094 311.230469 338.574219 C 308.847656 340.527344 306.421875 342.421875 303.949219 344.253906 C 301.480469 346.089844 298.960938 347.859375 296.402344 349.570312 C 293.84375 351.28125 291.242188 352.929688 288.605469 354.511719 C 285.964844 356.09375 283.285156 357.609375 280.570312 359.0625 C 277.855469 360.511719 275.109375 361.898438 272.324219 363.214844 C 269.542969 364.53125 266.730469 365.777344 263.886719 366.957031 C 261.042969 368.132812 258.171875 369.242188 255.273438 370.277344 C 252.375 371.316406 249.453125 372.28125 246.503906 373.175781 C 243.558594 374.070312 240.59375 374.890625 237.609375 375.636719 C 234.621094 376.386719 231.621094 377.0625 228.601562 377.660156 C 225.582031 378.261719 222.550781 378.789062 219.503906 379.242188 C 216.457031 379.691406 213.40625 380.070312 210.339844 380.371094 C 207.277344 380.671875 204.207031 380.898438 201.132812 381.050781 C 198.058594 381.203125 194.984375 381.277344 191.90625 381.277344 C 188.828125 381.277344 185.75 381.203125 182.675781 381.050781 C 179.601562 380.902344 176.53125 380.675781 173.46875 380.371094 C 170.40625 380.070312 167.351562 379.695312 164.304688 379.242188 C 161.261719 378.792969 158.226562 378.265625 155.207031 377.664062 C 152.1875 377.0625 149.1875 376.390625 146.199219 375.640625 C 143.214844 374.894531 140.25 374.074219 137.304688 373.179688 C 134.355469 372.285156 131.433594 371.320312 128.535156 370.285156 C 125.636719 369.246094 122.765625 368.140625 119.921875 366.960938 C 117.078125 365.785156 114.265625 364.535156 111.484375 363.21875 C 108.699219 361.90625 105.949219 360.519531 103.234375 359.070312 C 100.519531 357.617188 97.84375 356.101562 95.203125 354.519531 C 92.5625 352.9375 89.960938 351.289062 87.402344 349.582031 C 84.84375 347.871094 82.328125 346.097656 79.855469 344.265625 C 77.382812 342.429688 74.957031 340.539062 72.578125 338.585938 C 70.195312 336.632812 67.867188 334.621094 65.585938 332.554688 C 63.304688 330.488281 61.078125 328.363281 58.898438 326.1875 C 56.722656 324.011719 54.601562 321.78125 52.535156 319.5 C 50.464844 317.222656 48.457031 314.890625 46.503906 312.511719 C 44.550781 310.132812 42.65625 307.707031 40.824219 305.234375 C 38.988281 302.761719 37.21875 300.242188 35.507812 297.683594 C 33.796875 295.125 32.152344 292.523438 30.570312 289.882812 C 28.984375 287.242188 27.46875 284.566406 26.019531 281.851562 C 24.566406 279.136719 23.183594 276.386719 21.867188 273.605469 C 20.550781 270.820312 19.304688 268.007812 18.125 265.164062 C 16.949219 262.320312 15.839844 259.449219 14.804688 256.550781 C 13.765625 253.652344 12.800781 250.730469 11.90625 247.785156 C 11.015625 244.839844 10.195312 241.871094 9.445312 238.886719 C 8.699219 235.902344 8.023438 232.898438 7.421875 229.878906 C 6.824219 226.859375 6.296875 223.828125 5.84375 220.78125 C 5.394531 217.738281 5.015625 214.683594 4.714844 211.621094 C 4.414062 208.554688 4.1875 205.488281 4.039062 202.414062 C 3.886719 199.335938 3.8125 196.261719 3.8125 193.183594 C 3.8125 190.105469 3.886719 187.027344 4.039062 183.953125 C 4.1875 180.878906 4.414062 177.808594 4.71875 174.746094 C 5.019531 171.683594 5.398438 168.628906 5.847656 165.582031 C 6.300781 162.539062 6.828125 159.507812 7.425781 156.488281 C 8.027344 153.46875 8.703125 150.464844 9.449219 147.480469 C 10.199219 144.492188 11.019531 141.527344 11.914062 138.582031 C 12.808594 135.636719 13.773438 132.714844 14.808594 129.816406 C 15.847656 126.917969 16.957031 124.046875 18.132812 121.203125 C 19.3125 118.359375 20.558594 115.546875 21.875 112.761719 C 23.191406 109.980469 24.574219 107.230469 26.027344 104.515625 C 27.476562 101.800781 28.996094 99.125 30.578125 96.484375 C 32.160156 93.84375 33.808594 91.242188 35.519531 88.683594 C 37.230469 86.125 39 83.609375 40.835938 81.136719 C 42.667969 78.664062 44.5625 76.238281 46.515625 73.859375 C 48.46875 71.480469 50.480469 69.148438 52.546875 66.867188 C 54.613281 64.589844 56.734375 62.359375 58.914062 60.183594 C 61.089844 58.007812 63.320312 55.882812 65.601562 53.816406 C 67.882812 51.75 70.210938 49.742188 72.589844 47.789062 C 74.972656 45.835938 77.398438 43.941406 79.871094 42.109375 C 82.34375 40.273438 84.859375 38.503906 87.417969 36.792969 C 89.980469 35.082031 92.578125 33.4375 95.21875 31.855469 C 97.859375 30.273438 100.539062 28.757812 103.253906 27.304688 C 105.96875 25.855469 108.714844 24.472656 111.5 23.15625 C 114.28125 21.839844 117.097656 20.59375 119.941406 19.414062 C 122.785156 18.238281 125.65625 17.128906 128.554688 16.09375 C 131.453125 15.058594 134.375 14.09375 137.320312 13.199219 C 140.265625 12.304688 143.234375 11.484375 146.21875 10.738281 C 149.207031 9.988281 152.207031 9.316406 155.226562 8.714844 C 158.246094 8.117188 161.277344 7.589844 164.324219 7.140625 C 167.367188 6.6875 170.421875 6.3125 173.488281 6.011719 C 176.550781 5.707031 179.621094 5.484375 182.695312 5.332031 C 185.769531 5.179688 188.84375 5.105469 191.921875 5.105469 C 195.003906 5.097656 198.082031 5.160156 201.160156 5.300781 C 204.238281 5.441406 207.3125 5.660156 210.378906 5.949219 C 213.445312 6.242188 216.503906 6.609375 219.550781 7.054688 C 222.601562 7.496094 225.636719 8.015625 228.660156 8.609375 C 231.683594 9.199219 234.6875 9.867188 237.679688 10.609375 C 240.667969 11.347656 243.640625 12.164062 246.589844 13.050781 C 249.539062 13.9375 252.46875 14.898438 255.371094 15.929688 C 258.273438 16.964844 261.148438 18.066406 263.996094 19.238281 C 266.84375 20.414062 269.664062 21.65625 272.449219 22.96875 C 275.238281 24.28125 277.988281 25.664062 280.707031 27.113281 C 283.429688 28.558594 286.109375 30.074219 288.753906 31.65625 C 291.398438 33.238281 294 34.882812 296.566406 36.589844 C 299.128906 38.300781 301.648438 40.070312 304.125 41.90625 C 306.597656 43.738281 309.027344 45.632812 311.410156 47.585938 C 313.792969 49.539062 316.125 51.550781 318.410156 53.617188 C 320.691406 55.6875 322.921875 57.808594 325.101562 59.988281 C 327.28125 62.167969 329.402344 64.398438 331.472656 66.679688 C 333.539062 68.964844 335.550781 71.296875 337.503906 73.679688 C 339.457031 76.0625 341.351562 78.492188 343.183594 80.964844 C 345.019531 83.441406 346.789062 85.960938 348.5 88.523438 C 350.207031 91.089844 351.851562 93.691406 353.433594 96.335938 C 355.015625 98.980469 356.527344 101.660156 357.976562 104.382812 C 359.425781 107.101562 360.808594 109.851562 362.121094 112.640625 C 363.433594 115.425781 364.675781 118.246094 365.847656 121.09375 C 367.023438 123.941406 368.125 126.816406 369.15625 129.71875 C 370.191406 132.621094 371.148438 135.550781 372.039062 138.5 C 372.925781 141.449219 373.738281 144.421875 374.480469 147.410156 C 375.222656 150.402344 375.886719 153.40625 376.480469 156.429688 C 377.074219 159.453125 377.59375 162.488281 378.035156 165.539062 C 378.476562 168.585938 378.847656 171.644531 379.136719 174.710938 C 379.429688 177.777344 379.648438 180.851562 379.789062 183.929688 C 379.929688 187.007812 379.992188 190.085938 379.980469 193.167969 Z M 379.980469 193.167969 " fill-opacity="1" fill-rule="nonzero"/><path fill="#000000" d="M 336.996094 312.90625 C 334.777344 315.59375 332.484375 318.222656 330.117188 320.785156 C 327.75 323.347656 325.3125 325.84375 322.808594 328.269531 C 320.304688 330.695312 317.730469 333.054688 315.09375 335.335938 C 312.460938 337.621094 309.761719 339.832031 307 341.964844 C 304.242188 344.097656 301.425781 346.15625 298.550781 348.132812 C 295.679688 350.109375 292.75 352.007812 289.773438 353.820312 C 286.792969 355.636719 283.765625 357.367188 280.691406 359.011719 C 277.613281 360.660156 274.496094 362.21875 271.332031 363.691406 C 268.171875 365.164062 264.972656 366.546875 261.730469 367.84375 C 258.492188 369.136719 255.21875 370.339844 251.914062 371.453125 C 248.605469 372.566406 245.273438 373.585938 241.910156 374.511719 C 238.546875 375.441406 235.160156 376.273438 231.75 377.011719 C 228.34375 377.75 224.914062 378.394531 221.46875 378.941406 C 218.023438 379.492188 214.566406 379.941406 211.097656 380.300781 C 207.625 380.65625 204.148438 380.914062 200.664062 381.074219 C 197.179688 381.238281 193.695312 381.304688 190.207031 381.273438 C 186.71875 381.242188 183.230469 381.113281 179.75 380.886719 C 176.269531 380.660156 172.796875 380.339844 169.335938 379.921875 C 165.871094 379.5 162.421875 378.988281 158.988281 378.375 C 155.554688 377.765625 152.136719 377.058594 148.742188 376.261719 C 145.347656 375.460938 141.976562 374.566406 138.632812 373.578125 C 135.285156 372.589844 131.972656 371.507812 128.683594 370.335938 C 125.398438 369.164062 122.148438 367.902344 118.933594 366.546875 C 115.71875 365.195312 112.542969 363.753906 109.410156 362.222656 C 106.273438 360.691406 103.183594 359.078125 100.140625 357.375 C 97.09375 355.671875 94.097656 353.886719 91.152344 352.019531 C 88.207031 350.152344 85.316406 348.203125 82.476562 346.171875 C 79.640625 344.144531 76.859375 342.039062 74.140625 339.851562 C 71.421875 337.667969 68.761719 335.410156 66.167969 333.078125 C 63.574219 330.75 61.046875 328.347656 58.585938 325.875 C 56.125 323.402344 53.734375 320.863281 51.414062 318.257812 C 49.09375 315.652344 46.847656 312.984375 44.679688 310.253906 C 64.710938 281.683594 95.773438 261.859375 161.082031 261.117188 C 236.453125 260.210938 291.894531 257.460938 314.792969 282.796875 C 323.128906 292.144531 330.53125 302.179688 336.996094 312.90625 Z M 336.996094 312.90625 " fill-opacity="1" fill-rule="nonzero"/><path fill="#14213d" d="M 129.609375 145.738281 C 93.445312 132.65625 99.34375 84.957031 104.476562 83.929688 C 109.605469 82.90625 120.625 91.367188 121.140625 91.625 C 121.660156 91.878906 118.582031 70.335938 125.507812 60.335938 C 132.433594 50.332031 158.847656 70.59375 179.109375 70.851562 C 199.371094 71.105469 248.355469 72.386719 262.714844 85.210938 C 277.078125 98.035156 269.625 125.480469 269.625 125.480469 C 269.625 125.480469 286.054688 129.839844 282.714844 152.921875 C 279.375 176.003906 253.476562 195.828125 244.242188 212.460938 C 235.011719 229.089844 180.167969 232.171875 171.660156 208.0625 " fill-opacity="1" fill-rule="nonzero"/><path fill="#ffb5a6" d="M 189.175781 288.917969 C 162.882812 288.917969 159.015625 266.972656 158.910156 263.261719 C 158.910156 262.839844 158.855469 262.09375 158.910156 261.089844 C 158.855469 259.023438 158.855469 255.839844 158.855469 252.132812 C 158.960938 242.113281 159.066406 228.28125 158.910156 222.34375 L 209.105469 204.375 L 218.21875 201.085938 L 228.34375 197.484375 C 228.34375 197.484375 228.292969 199.445312 228.1875 202.679688 C 228.132812 204.53125 228.078125 206.8125 228.027344 209.410156 C 228.035156 209.714844 228.015625 210.015625 227.972656 210.316406 C 227.921875 214.074219 227.867188 218.375 227.761719 222.878906 C 227.601562 237.03125 227.550781 252.933594 228.292969 258.65625 C 229.664062 269.78125 215.460938 288.917969 189.175781 288.917969 Z M 189.175781 288.917969 " fill-opacity="1" fill-rule="nonzero"/><path fill="#e86b70" d="M 228.390625 209.515625 C 228.273438 209.792969 228.128906 210.058594 227.96875 210.308594 C 210.160156 246.9375 183.390625 261.460938 158.90625 261.089844 C 158.851562 259.023438 158.851562 255.839844 158.851562 252.132812 C 158.957031 242.113281 159.0625 228.28125 158.90625 222.34375 L 209.097656 204.375 L 228.023438 209.410156 Z M 228.390625 209.515625 " fill-opacity="1" fill-rule="nonzero"/><path fill="#ffb5a6" d="M 128.613281 113.167969 C 157.851562 148.21875 230.0625 141.894531 230.0625 141.894531 C 230.0625 141.894531 231.429688 182.929688 238.609375 182.585938 C 245.792969 182.246094 246.988281 159.503906 264.601562 163.273438 C 282.210938 167.039062 271.269531 201.058594 257.589844 202.9375 C 243.914062 204.816406 240.492188 193.191406 240.492188 193.191406 C 240.492188 193.191406 215.273438 243.203125 175.261719 243.203125 C 135.25 243.203125 125.011719 204.847656 125.25 183.953125 C 125.488281 163.0625 128.613281 113.167969 128.613281 113.167969 Z M 128.613281 113.167969 " fill-opacity="1" fill-rule="nonzero"/></svg>