<svg xmlns="http://www.w3.org/2000/svg" xmlns:xlink="http://www.w3.org/1999/xlink" width="150" zoomAndPan="magnify" viewBox="0 0 112.5 112.499997" height="150" preserveAspectRatio="xMidYMid meet" version="1.0"><defs><clipPath id="3670e431e8"><path d="M 0 28.1875 L 112.003906 28.1875 L 112.003906 84.1875 L 0 84.1875 Z M 0 28.1875 " clip-rule="nonzero"/></clipPath></defs><g clip-path="url(#3670e431e8)"><path stroke-linecap="butt" transform="matrix(0.553627, 0, 0, 0.557669, 2.527093, 37.519263)" fill="none" stroke-linejoin="miter" d="M 32.499193 3.502784 C 31.850065 3.523798 31.207993 3.565826 30.558865 3.628867 C 29.916792 3.691909 29.27472 3.775964 28.632648 3.881033 C 27.997631 3.986102 27.362614 4.112185 26.727598 4.259282 C 26.099637 4.406378 25.471676 4.567484 24.850771 4.756609 C 24.229865 4.945733 23.616016 5.148867 23.009222 5.373014 C 22.402429 5.604166 21.809746 5.849327 21.217064 6.115502 C 20.624382 6.381677 20.045811 6.661862 19.467241 6.96306 C 18.895726 7.271262 18.338322 7.58647 17.780919 7.929695 C 17.230571 8.265916 16.694335 8.623151 16.165154 9.0014 C 15.635974 9.372644 15.120904 9.764902 14.612891 10.171169 C 14.111934 10.577436 13.625087 11.004717 13.145297 11.446007 C 12.672563 11.880293 12.206884 12.335592 11.762372 12.804901 C 11.31786 13.27421 10.88746 13.757527 10.471171 14.254854 C 10.054883 14.752182 9.652706 15.263518 9.271696 15.788863 C 8.890686 16.307204 8.523787 16.846559 8.178056 17.392918 C 7.832325 17.939277 7.500705 18.499646 7.190252 19.067019 C 6.8798 19.634392 6.590514 20.20877 6.31534 20.797157 C 6.040166 21.385543 5.78616 21.980935 5.546265 22.583331 C 5.313425 23.185727 5.101753 23.795128 4.904192 24.411533 C 4.706632 25.034943 4.530238 25.658353 4.375012 26.281763 C 4.219785 26.912178 4.085726 27.542592 3.972834 28.180011 C 3.859943 28.824435 3.761162 29.461854 3.690605 30.106278 C 3.620047 30.750702 3.563602 31.395126 3.535379 32.039549 C 3.5001 32.690978 3.493044 33.335401 3.5001 33.98683 C 3.514211 34.631254 3.54949 35.275677 3.59888 35.920101 C 3.64827 36.571529 3.725884 37.208949 3.817608 37.853372 C 3.916389 38.490792 4.02928 39.128211 4.163339 39.76563 C 4.297399 40.396044 4.452625 41.026459 4.629018 41.649869 C 4.805412 42.273279 5.002973 42.889684 5.221701 43.499085 C 5.440429 44.108486 5.673268 44.710882 5.927275 45.306273 C 6.181281 45.901665 6.456455 46.490052 6.752796 47.071434 C 7.042082 47.645812 7.35959 48.213185 7.684154 48.773553 C 8.015774 49.326917 8.361505 49.873276 8.728404 50.412631 C 9.095302 50.944981 9.476312 51.463322 9.878489 51.974658 C 10.273611 52.485994 10.689899 52.983322 11.1203 53.466639 C 11.557756 53.949957 12.002267 54.419266 12.46089 54.874565 C 12.926569 55.329865 13.399304 55.76415 13.893206 56.191431 C 14.380052 56.611707 14.888065 57.017975 15.403134 57.410233 C 15.918203 57.80249 16.447384 58.173735 16.990676 58.53097 C 17.526912 58.888204 18.084315 59.224426 18.641719 59.546637 C 19.206178 59.868849 19.777693 60.170047 20.36332 60.450232 C 20.94189 60.73742 21.534573 61.003595 22.134311 61.248757 C 22.734048 61.493918 23.340842 61.718065 23.954692 61.921199 C 24.568541 62.131337 25.189446 62.313457 25.817407 62.481567 C 26.438312 62.649678 27.073329 62.796775 27.708346 62.915853 C 28.343362 63.041936 28.985435 63.147005 29.627507 63.23106 C 30.269579 63.315115 30.911652 63.378157 31.56078 63.420185 C 32.202852 63.462212 32.85198 63.483226 33.501108 63.483226 C 34.150237 63.483226 34.792309 63.462212 35.441437 63.420185 C 36.083509 63.378157 36.732638 63.315115 37.37471 63.23106 C 38.016782 63.147005 38.651799 63.041936 39.293871 62.915853 C 39.928888 62.796775 40.556849 62.649678 41.18481 62.481567 C 41.812771 62.313457 42.42662 62.131337 43.04047 61.921199 C 43.661375 61.718065 44.268168 61.493918 44.860851 61.248757 C 45.460589 61.003595 46.053271 60.73742 46.638897 60.450232 C 47.217468 60.170047 47.788983 59.868849 48.353442 59.546637 C 48.917901 59.224426 49.468249 58.888204 50.011541 58.53097 C 50.547778 58.173735 51.076958 57.80249 51.599083 57.410233 C 52.114152 57.017975 52.615109 56.611707 53.109011 56.191431 C 53.595857 55.76415 54.075648 55.329865 54.534271 54.874565 C 54.99995 54.419266 55.444461 53.949957 55.874862 53.466639 C 56.305262 52.983322 56.72155 52.485994 57.123728 51.974658 C 57.518849 51.463322 57.899859 50.944981 58.266758 50.412631 C 58.633656 49.873276 58.979387 49.326917 59.311007 48.773553 C 59.642627 48.213185 59.95308 47.645812 60.249421 47.071434 C 60.538706 46.490052 60.81388 45.901665 61.067887 45.306273 C 61.321893 44.710882 61.561788 44.108486 61.780516 43.499085 C 61.992189 42.889684 62.189749 42.273279 62.366143 41.649869 C 62.542536 41.026459 62.697763 40.396044 62.831822 39.76563 C 62.972937 39.128211 63.085828 38.490792 63.177553 37.853372 C 63.276333 37.208949 63.346891 36.571529 63.403337 35.920101 C 63.452727 35.275677 63.48095 34.631254 63.495061 33.98683 C 63.509173 33.335401 63.495061 32.690978 63.466838 32.039549 C 63.43156 31.395126 63.382169 30.750702 63.311612 30.106278 C 63.233999 29.461854 63.142274 28.824435 63.029382 28.180011 C 62.916491 27.542592 62.775376 26.912178 62.620149 26.281763 C 62.464923 25.658353 62.28853 25.034943 62.098025 24.411533 C 61.900464 23.795128 61.681736 23.185727 61.448897 22.583331 C 61.216057 21.980935 60.96205 21.385543 60.686877 20.797157 C 60.411703 20.20877 60.115362 19.634392 59.804909 19.067019 C 59.494456 18.499646 59.162837 17.939277 58.817105 17.392918 C 58.471374 16.846559 58.104476 16.307204 57.723466 15.788863 C 57.342456 15.263518 56.940278 14.752182 56.531045 14.254854 C 56.114757 13.757527 55.684357 13.27421 55.232789 12.804901 C 54.788278 12.335592 54.329654 11.880293 53.849864 11.446007 C 53.377129 11.004717 52.890283 10.577436 52.38227 10.171169 C 51.881312 9.764902 51.366243 9.372644 50.837063 9.0014 C 50.307882 8.623151 49.76459 8.265916 49.214243 7.929695 C 48.663895 7.58647 48.099436 7.271262 47.527921 6.96306 C 46.956406 6.661862 46.377835 6.381677 45.785153 6.115502 C 45.19247 5.849327 44.592733 5.604166 43.985939 5.373014 C 43.379145 5.148867 42.765296 4.945733 42.144391 4.756609 C 41.523485 4.567484 40.90258 4.406378 40.267564 4.259282 C 39.639603 4.112185 39.004586 3.986102 38.362514 3.881033 C 37.727497 3.775964 37.085425 3.691909 36.436297 3.628867 C 35.794224 3.565826 35.145096 3.523798 34.495968 3.502784 Z M 74.502016 3.502784 C 73.852888 3.523798 73.20376 3.565826 72.561688 3.628867 C 71.919615 3.691909 71.277543 3.775964 70.635471 3.881033 C 69.993398 3.986102 69.358382 4.112185 68.730421 4.259282 C 68.095404 4.406378 67.474499 4.567484 66.853594 4.756609 C 66.232689 4.945733 65.618839 5.148867 65.012046 5.373014 C 64.405252 5.604166 63.805514 5.849327 63.212832 6.115502 C 62.627205 6.381677 62.041579 6.661862 61.470064 6.96306 C 60.898549 7.271262 60.33409 7.58647 59.783742 7.929695 C 59.233394 8.265916 58.690102 8.623151 58.160921 9.0014 C 57.631741 9.372644 57.116672 9.764902 56.615714 10.171169 C 56.114757 10.577436 55.620855 11.004717 55.14812 11.446007 C 54.66833 11.880293 54.209707 12.335592 53.765195 12.804901 C 53.313628 13.27421 52.883228 13.757527 52.466939 14.254854 C 52.057706 14.752182 51.655529 15.263518 51.274519 15.788863 C 50.893509 16.307204 50.52661 16.846559 50.180879 17.392918 C 49.835148 17.939277 49.503528 18.499646 49.193075 19.067019 C 48.882623 19.634392 48.586282 20.20877 48.311108 20.797157 C 48.04299 21.385543 47.781927 21.980935 47.549088 22.583331 C 47.316248 23.185727 47.09752 23.795128 46.89996 24.411533 C 46.709455 25.034943 46.533061 25.658353 46.377835 26.281763 C 46.222609 26.912178 46.08855 27.542592 45.968602 28.180011 C 45.85571 28.824435 45.763985 29.461854 45.693428 30.106278 C 45.615815 30.750702 45.566425 31.395126 45.531146 32.039549 C 45.502923 32.690978 45.495867 33.335401 45.502923 33.98683 C 45.517035 34.631254 45.545257 35.275677 45.601703 35.920101 C 45.651094 36.571529 45.721651 37.208949 45.820431 37.853372 C 45.912156 38.490792 46.032104 39.128211 46.166163 39.76563 C 46.300222 40.396044 46.455448 41.026459 46.631842 41.649869 C 46.808235 42.273279 47.005796 42.889684 47.224524 43.499085 C 47.436196 44.108486 47.676091 44.710882 47.930098 45.306273 C 48.184104 45.901665 48.459278 46.490052 48.748564 47.071434 C 49.044905 47.645812 49.355357 48.213185 49.686977 48.773553 C 50.018597 49.326917 50.364328 49.873276 50.731227 50.412631 C 51.098125 50.944981 51.479135 51.463322 51.874257 51.974658 C 52.276434 52.485994 52.692723 52.983322 53.123123 53.466639 C 53.553523 53.949957 54.00509 54.419266 54.463713 54.874565 C 54.922337 55.329865 55.402127 55.76415 55.888973 56.191431 C 56.382875 56.611707 56.883832 57.017975 57.398902 57.410233 C 57.921026 57.80249 58.450207 58.173735 58.986443 58.53097 C 59.529735 58.888204 60.080083 59.224426 60.644542 59.546637 C 61.209001 59.868849 61.780516 60.170047 62.359087 60.450232 C 62.944714 60.73742 63.537396 61.003595 64.137134 61.248757 C 64.736872 61.493918 65.343665 61.718065 65.957515 61.921199 C 66.571364 62.131337 67.192269 62.313457 67.813174 62.481567 C 68.441135 62.649678 69.069096 62.796775 69.711169 62.915853 C 70.346185 63.041936 70.981202 63.147005 71.623274 63.23106 C 72.265347 63.315115 72.914475 63.378157 73.556547 63.420185 C 74.205675 63.462212 74.854804 63.483226 75.496876 63.483226 C 76.146004 63.483226 76.795132 63.462212 77.437205 63.420185 C 78.086333 63.378157 78.728405 63.315115 79.370477 63.23106 C 80.019606 63.147005 80.654622 63.041936 81.289639 62.915853 C 81.924655 62.796775 82.559672 62.649678 83.180577 62.481567 C 83.808538 62.313457 84.429443 62.131337 85.043293 61.921199 C 85.657142 61.718065 86.263936 61.493918 86.863674 61.248757 C 87.463412 61.003595 88.056094 60.73742 88.634665 60.450232 C 89.220291 60.170047 89.791806 59.868849 90.356265 59.546637 C 90.920725 59.224426 91.471072 58.888204 92.007309 58.53097 C 92.550601 58.173735 93.079781 57.80249 93.59485 57.410233 C 94.109919 57.017975 94.617933 56.611707 95.104779 56.191431 C 95.598681 55.76415 96.071415 55.329865 96.537094 54.874565 C 96.995717 54.419266 97.440229 53.949957 97.877685 53.466639 C 98.308085 52.983322 98.724374 52.485994 99.119495 51.974658 C 99.521672 51.463322 99.902682 50.944981 100.269581 50.412631 C 100.636479 49.873276 100.982211 49.326917 101.31383 48.773553 C 101.638394 48.213185 101.955903 47.645812 102.245188 47.071434 C 102.541529 46.490052 102.816703 45.901665 103.07071 45.306273 C 103.324716 44.710882 103.564612 44.108486 103.776284 43.499085 C 103.995012 42.889684 104.192572 42.273279 104.368966 41.649869 C 104.54536 41.026459 104.700586 40.396044 104.834645 39.76563 C 104.968704 39.128211 105.081596 38.490792 105.180376 37.853372 C 105.272101 37.208949 105.349714 36.571529 105.399104 35.920101 C 105.45555 35.275677 105.483773 34.631254 105.497884 33.98683 C 105.50494 33.335401 105.497884 32.690978 105.462606 32.039549 C 105.434383 31.395126 105.377937 30.750702 105.307379 30.106278 C 105.236822 29.461854 105.145097 28.824435 105.02515 28.180011 C 104.912258 27.542592 104.778199 26.912178 104.622973 26.281763 C 104.467746 25.658353 104.291353 25.034943 104.093792 24.411533 C 103.903287 23.795128 103.684559 23.185727 103.45172 22.583331 C 103.211825 21.980935 102.957818 21.385543 102.682644 20.797157 C 102.40747 20.20877 102.118185 19.634392 101.807732 19.067019 C 101.49728 18.499646 101.16566 17.939277 100.819929 17.392918 C 100.474197 16.846559 100.107299 16.307204 99.726289 15.788863 C 99.345279 15.263518 98.943102 14.752182 98.526813 14.254854 C 98.110524 13.757527 97.680124 13.27421 97.235612 12.804901 C 96.791101 12.335592 96.325422 11.880293 95.852687 11.446007 C 95.379953 11.004717 94.886051 10.577436 94.385093 10.171169 C 93.87708 9.764902 93.362011 9.372644 92.83283 9.0014 C 92.310706 8.623151 91.767413 8.265916 91.217066 7.929695 C 90.666718 7.58647 90.102259 7.271262 89.530744 6.96306 C 88.959229 6.661862 88.373602 6.381677 87.78092 6.115502 C 87.195294 5.849327 86.595556 5.604166 85.988762 5.373014 C 85.381968 5.148867 84.768119 4.945733 84.147214 4.756609 C 83.526309 4.567484 82.898348 4.406378 82.270387 4.259282 C 81.63537 4.112185 81.000353 3.986102 80.365337 3.881033 C 79.723264 3.775964 79.081192 3.691909 78.43912 3.628867 C 77.789992 3.565826 77.147919 3.523798 76.498791 3.502784 Z M 116.497784 3.502784 C 115.848656 3.523798 115.206583 3.565826 114.564511 3.628867 C 113.915383 3.691909 113.273311 3.775964 112.638294 3.881033 C 111.996221 3.986102 111.361205 4.112185 110.733244 4.259282 C 110.098227 4.406378 109.470266 4.567484 108.849361 4.756609 C 108.235512 4.945733 107.621662 5.148867 107.014869 5.373014 C 106.408075 5.604166 105.808337 5.849327 105.215655 6.115502 C 104.622973 6.381677 104.044402 6.661862 103.472887 6.96306 C 102.894316 7.271262 102.336913 7.58647 101.786565 7.929695 C 101.229161 8.265916 100.692925 8.623151 100.163745 9.0014 C 99.634564 9.372644 99.119495 9.764902 98.611482 10.171169 C 98.110524 10.577436 97.623678 11.004717 97.143888 11.446007 C 96.671153 11.880293 96.205474 12.335592 95.760963 12.804901 C 95.316451 13.27421 94.886051 13.757527 94.469762 14.254854 C 94.053473 14.752182 93.658352 15.263518 93.277342 15.788863 C 92.889276 16.307204 92.529433 16.846559 92.176646 17.392918 C 91.830915 17.939277 91.506351 18.499646 91.188843 19.067019 C 90.87839 19.634392 90.589105 20.20877 90.313931 20.797157 C 90.038757 21.385543 89.78475 21.980935 89.551911 22.583331 C 89.312016 23.185727 89.100344 23.795128 88.902783 24.411533 C 88.705222 25.034943 88.528829 25.658353 88.373602 26.281763 C 88.218376 26.912178 88.084317 27.542592 87.971425 28.180011 C 87.858533 28.824435 87.759753 29.461854 87.689195 30.106278 C 87.618638 30.750702 87.562192 31.395126 87.533969 32.039549 C 87.505746 32.690978 87.491635 33.335401 87.505746 33.98683 C 87.512802 34.631254 87.548081 35.275677 87.597471 35.920101 C 87.653917 36.571529 87.724474 37.208949 87.816199 37.853372 C 87.914979 38.490792 88.027871 39.128211 88.16193 39.76563 C 88.303045 40.396044 88.458271 41.026459 88.634665 41.649869 C 88.811058 42.273279 89.001563 42.889684 89.220291 43.499085 C 89.439019 44.108486 89.671859 44.710882 89.925865 45.306273 C 90.186928 45.901665 90.455046 46.490052 90.751387 47.071434 C 91.047728 47.645812 91.358181 48.213185 91.6898 48.773553 C 92.014364 49.326917 92.367151 49.873276 92.726994 50.412631 C 93.093893 50.944981 93.474903 51.463322 93.87708 51.974658 C 94.279257 52.485994 94.695546 52.983322 95.125946 53.466639 C 95.556346 53.949957 96.000858 54.419266 96.466537 54.874565 C 96.92516 55.329865 97.40495 55.76415 97.891796 56.191431 C 98.378642 56.611707 98.886656 57.017975 99.401725 57.410233 C 99.916794 57.80249 100.445974 58.173735 100.989266 58.53097 C 101.532558 58.888204 102.082906 59.224426 102.647365 59.546637 C 103.204769 59.868849 103.776284 60.170047 104.36191 60.450232 C 104.940481 60.73742 105.533163 61.003595 106.132901 61.248757 C 106.732639 61.493918 107.339433 61.718065 107.953282 61.921199 C 108.567132 62.131337 109.188037 62.313457 109.815998 62.481567 C 110.443959 62.649678 111.071919 62.796775 111.706936 62.915853 C 112.341953 63.041936 112.984025 63.147005 113.626098 63.23106 C 114.26817 63.315115 114.910242 63.378157 115.55937 63.420185 C 116.201443 63.462212 116.850571 63.483226 117.499699 63.483226 C 118.148827 63.483226 118.7909 63.462212 119.440028 63.420185 C 120.089156 63.378157 120.731228 63.315115 121.373301 63.23106 C 122.015373 63.147005 122.657445 63.041936 123.292462 62.915853 C 123.927479 62.796775 124.55544 62.649678 125.1834 62.481567 C 125.811361 62.313457 126.432267 62.131337 127.046116 61.921199 C 127.659965 61.718065 128.266759 61.493918 128.866497 61.248757 C 129.466235 61.003595 130.051861 60.73742 130.637488 60.450232 C 131.216059 60.170047 131.794629 59.868849 132.352033 59.546637 C 132.916492 59.224426 133.46684 58.888204 134.010132 58.53097 C 134.553424 58.173735 135.082604 57.80249 135.597673 57.410233 C 136.112743 57.017975 136.6137 56.611707 137.107602 56.191431 C 137.594448 55.76415 138.074238 55.329865 138.532861 54.874565 C 138.99854 54.419266 139.443052 53.949957 139.873452 53.466639 C 140.303852 52.983322 140.720141 52.485994 141.122318 51.974658 C 141.51744 51.463322 141.905505 50.944981 142.265348 50.412631 C 142.632247 49.873276 142.985034 49.326917 143.309598 48.773553 C 143.641218 48.213185 143.95167 47.645812 144.248011 47.071434 C 144.537297 46.490052 144.812471 45.901665 145.066477 45.306273 C 145.32754 44.710882 145.560379 44.108486 145.779107 43.499085 C 145.990779 42.889684 146.18834 42.273279 146.364733 41.649869 C 146.541127 41.026459 146.696353 40.396044 146.837468 39.76563 C 146.971527 39.128211 147.084419 38.490792 147.176144 37.853372 C 147.274924 37.208949 147.345481 36.571529 147.401927 35.920101 C 147.451317 35.275677 147.486596 34.631254 147.493652 33.98683 C 147.507763 33.335401 147.493652 32.690978 147.465429 32.039549 C 147.43015 31.395126 147.38076 30.750702 147.310203 30.106278 C 147.23259 29.461854 147.140865 28.824435 147.027973 28.180011 C 146.915081 27.542592 146.781022 26.912178 146.625796 26.281763 C 146.47057 25.658353 146.294176 25.034943 146.096615 24.411533 C 145.899055 23.795128 145.687382 23.185727 145.447487 22.583331 C 145.214648 21.980935 144.960641 21.385543 144.685467 20.797157 C 144.410293 20.20877 144.121008 19.634392 143.8035 19.067019 C 143.493047 18.499646 143.168483 17.939277 142.815696 17.392918 C 142.469965 16.846559 142.110122 16.307204 141.722056 15.788863 C 141.341046 15.263518 140.945925 14.752182 140.529636 14.254854 C 140.113347 13.757527 139.682947 13.27421 139.238436 12.804901 C 138.786868 12.335592 138.328245 11.880293 137.85551 11.446007 C 137.37572 11.004717 136.888874 10.577436 136.380861 10.171169 C 135.879903 9.764902 135.364834 9.372644 134.835653 9.0014 C 134.306473 8.623151 133.770237 8.265916 133.212833 7.929695 C 132.662485 7.58647 132.098026 7.271262 131.526511 6.96306 C 130.954996 6.661862 130.376425 6.381677 129.783743 6.115502 C 129.191061 5.849327 128.591323 5.604166 127.984529 5.373014 C 127.377736 5.148867 126.763886 4.945733 126.142981 4.756609 C 125.522076 4.567484 124.901171 4.406378 124.266154 4.259282 C 123.638193 4.112185 123.003177 3.986102 122.361104 3.881033 C 121.726088 3.775964 121.084015 3.691909 120.434887 3.628867 C 119.792815 3.565826 119.143687 3.523798 118.501614 3.502784 Z M 158.500607 3.502784 C 157.851479 3.523798 157.202351 3.565826 156.560278 3.628867 C 155.918206 3.691909 155.276134 3.775964 154.634061 3.881033 C 153.999045 3.986102 153.364028 4.112185 152.729011 4.259282 C 152.10105 4.406378 151.47309 4.567484 150.852184 4.756609 C 150.231279 4.945733 149.61743 5.148867 149.010636 5.373014 C 148.403842 5.604166 147.804105 5.849327 147.218478 6.115502 C 146.625796 6.381677 146.040169 6.661862 145.468654 6.96306 C 144.897139 7.271262 144.33268 7.58647 143.782332 7.929695 C 143.231985 8.265916 142.688693 8.623151 142.159512 9.0014 C 141.637387 9.372644 141.115263 9.764902 140.614305 10.171169 C 140.113347 10.577436 139.619446 11.004717 139.146711 11.446007 C 138.666921 11.880293 138.208297 12.335592 137.763786 12.804901 C 137.319274 13.27421 136.881818 13.757527 136.472585 14.254854 C 136.056297 14.752182 135.654119 15.263518 135.273109 15.788863 C 134.892099 16.307204 134.525201 16.846559 134.17947 17.392918 C 133.833738 17.939277 133.502119 18.499646 133.191666 19.067019 C 132.881213 19.634392 132.584872 20.20877 132.316754 20.797157 C 132.04158 21.385543 131.787574 21.980935 131.547678 22.583331 C 131.314839 23.185727 131.096111 23.795128 130.905606 24.411533 C 130.708045 25.034943 130.531652 25.658353 130.376425 26.281763 C 130.221199 26.912178 130.08714 27.542592 129.974248 28.180011 C 129.854301 28.824435 129.762576 29.461854 129.692019 30.106278 C 129.614406 30.750702 129.565015 31.395126 129.536792 32.039549 C 129.501514 32.690978 129.494458 33.335401 129.501514 33.98683 C 129.515625 34.631254 129.543848 35.275677 129.600294 35.920101 C 129.649684 36.571529 129.727297 37.208949 129.819022 37.853372 C 129.910747 38.490792 130.030694 39.128211 130.164753 39.76563 C 130.298812 40.396044 130.454039 41.026459 130.630432 41.649869 C 130.806826 42.273279 131.004386 42.889684 131.223114 43.499085 C 131.434787 44.108486 131.674682 44.710882 131.928688 45.306273 C 132.182695 45.901665 132.457869 46.490052 132.75421 47.071434 C 133.043495 47.645812 133.353948 48.213185 133.685568 48.773553 C 134.017188 49.326917 134.362919 49.873276 134.729817 50.412631 C 135.096716 50.944981 135.477726 51.463322 135.879903 51.974658 C 136.275025 52.485994 136.691313 52.983322 137.121713 53.466639 C 137.552114 53.949957 138.003681 54.419266 138.462304 54.874565 C 138.927983 55.329865 139.400718 55.76415 139.894619 56.191431 C 140.381466 56.611707 140.882423 57.017975 141.404548 57.410233 C 141.919617 57.80249 142.448797 58.173735 142.985034 58.53097 C 143.528326 58.888204 144.078674 59.224426 144.643133 59.546637 C 145.207592 59.868849 145.779107 60.170047 146.364733 60.450232 C 146.943304 60.73742 147.535986 61.003595 148.135724 61.248757 C 148.735462 61.493918 149.342256 61.718065 149.956105 61.921199 C 150.569955 62.131337 151.19086 62.313457 151.811765 62.481567 C 152.439726 62.649678 153.074743 62.796775 153.709759 62.915853 C 154.344776 63.041936 154.979793 63.147005 155.621865 63.23106 C 156.263937 63.315115 156.913065 63.378157 157.555138 63.420185 C 158.204266 63.462212 158.853394 63.483226 159.502522 63.483226 C 160.144595 63.483226 160.793723 63.462212 161.442851 63.420185 C 162.084923 63.378157 162.734051 63.315115 163.376124 63.23106 C 164.018196 63.147005 164.653213 63.041936 165.288229 62.915853 C 165.923246 62.796775 166.558263 62.649678 167.186224 62.481567 C 167.807129 62.313457 168.428034 62.131337 169.041883 61.921199 C 169.655733 61.718065 170.262527 61.493918 170.862264 61.248757 C 171.462002 61.003595 172.054685 60.73742 172.640311 60.450232 C 173.218882 60.170047 173.790397 59.868849 174.354856 59.546637 C 174.919315 59.224426 175.469663 58.888204 176.012955 58.53097 C 176.549191 58.173735 177.078372 57.80249 177.593441 57.410233 C 178.115566 57.017975 178.616523 56.611707 179.103369 56.191431 C 179.597271 55.76415 180.070006 55.329865 180.535685 54.874565 C 180.994308 54.419266 181.445875 53.949957 181.876275 53.466639 C 182.306676 52.983322 182.722964 52.485994 183.118086 51.974658 C 183.520263 51.463322 183.901273 50.944981 184.268171 50.412631 C 184.63507 49.873276 184.980801 49.326917 185.312421 48.773553 C 185.644041 48.213185 185.954493 47.645812 186.243779 47.071434 C 186.54012 46.490052 186.815294 45.901665 187.0693 45.306273 C 187.323307 44.710882 187.563202 44.108486 187.774874 43.499085 C 187.993602 42.889684 188.191163 42.273279 188.367557 41.649869 C 188.54395 41.026459 188.699176 40.396044 188.833235 39.76563 C 188.967295 39.128211 189.087242 38.490792 189.178967 37.853372 C 189.270691 37.208949 189.348305 36.571529 189.397695 35.920101 C 189.454141 35.275677 189.482364 34.631254 189.496475 33.98683 C 189.503531 33.335401 189.496475 32.690978 189.461196 32.039549 C 189.432973 31.395126 189.383583 30.750702 189.30597 30.106278 C 189.235413 29.461854 189.143688 28.824435 189.030796 28.180011 C 188.910849 27.542592 188.77679 26.912178 188.621563 26.281763 C 188.466337 25.658353 188.289943 25.034943 188.092383 24.411533 C 187.901878 23.795128 187.68315 23.185727 187.45031 22.583331 C 187.210415 21.980935 186.956409 21.385543 186.68829 20.797157 C 186.413116 20.20877 186.116775 19.634392 185.806323 19.067019 C 185.49587 18.499646 185.16425 17.939277 184.818519 17.392918 C 184.472788 16.846559 184.105889 16.307204 183.724879 15.788863 C 183.343869 15.263518 182.941692 14.752182 182.525403 14.254854 C 182.116171 13.757527 181.68577 13.27421 181.234203 12.804901 C 180.789691 12.335592 180.331068 11.880293 179.851278 11.446007 C 179.378543 11.004717 178.884641 10.577436 178.383684 10.171169 C 177.882726 9.764902 177.367657 9.372644 176.838477 9.0014 C 176.309296 8.623151 175.766004 8.265916 175.215656 7.929695 C 174.665309 7.58647 174.100849 7.271262 173.529334 6.96306 C 172.957819 6.661862 172.372193 6.381677 171.786566 6.115502 C 171.193884 5.849327 170.594146 5.604166 169.987353 5.373014 C 169.380559 5.148867 168.76671 4.945733 168.145804 4.756609 C 167.524899 4.567484 166.896938 4.406378 166.268977 4.259282 C 165.641016 4.112185 164.998944 3.986102 164.363927 3.881033 C 163.721855 3.775964 163.079783 3.691909 162.43771 3.628867 C 161.795638 3.565826 161.14651 3.523798 160.497382 3.502784 Z M 158.500607 3.502784 " stroke="#000000" stroke-width="7" stroke-opacity="1" stroke-miterlimit="4"/></g></svg>