<svg xmlns="http://www.w3.org/2000/svg" xmlns:xlink="http://www.w3.org/1999/xlink" width="150" zoomAndPan="magnify" viewBox="0 0 112.5 30.000001" height="40" preserveAspectRatio="xMidYMid meet" version="1.0"><path fill="#cc0000" d="M 94.503906 14.773438 L 99.21875 14.773438 L 96.839844 11.023438 Z M 86.714844 20.648438 L 86.714844 19.019531 L 88.359375 18.832031 C 88.929688 18.757812 89.167969 18.234375 89.238281 18.117188 L 93.335938 11.429688 C 93.671875 10.902344 93.34375 10.441406 92.914062 10.394531 L 90.761719 10.140625 L 90.761719 8.492188 L 100.101562 8.492188 C 100.628906 8.492188 100.960938 8.851562 101.171875 9.160156 L 106.628906 17.519531 C 107.058594 18.1875 107.390625 18.714844 107.9375 18.785156 L 109.65625 18.980469 L 109.65625 20.648438 L 99.148438 20.648438 L 99.148438 19 L 100.484375 18.832031 C 101.128906 18.761719 101.652344 18.476562 101.128906 17.6875 L 100.628906 16.921875 L 93.167969 16.921875 L 92.597656 17.855469 C 92.242188 18.425781 92.597656 18.761719 93.144531 18.832031 L 94.480469 19 L 94.480469 20.648438 Z M 77.902344 18.304688 L 74.804688 18.304688 L 74.804688 10.808594 L 77.902344 10.808594 C 80.855469 10.808594 82.09375 11.5 82.09375 14.558594 C 82.09375 17.640625 80.855469 18.304688 77.902344 18.304688 M 79.757812 8.492188 L 67.746094 8.492188 L 67.742188 10.140625 L 69.25 10.296875 C 69.8125 10.378906 70.039062 10.785156 70.039062 11.332031 L 70.039062 17.878906 C 70.039062 18.332031 69.847656 18.761719 69.347656 18.832031 L 67.734375 19.042969 L 67.734375 20.644531 L 79.757812 20.648438 C 85.285156 20.648438 87.667969 17.949219 87.667969 14.390625 C 87.667969 11.191406 85.285156 8.492188 79.757812 8.492188 M 2.519531 20.648438 L 12.238281 20.648438 L 12.238281 19.023438 L 10.570312 18.835938 C 10.1875 18.785156 9.808594 18.546875 9.808594 17.734375 L 9.808594 15.777344 L 17.289062 15.777344 L 17.289062 17.640625 C 17.289062 18.1875 17.195312 18.714844 16.550781 18.785156 L 14.859375 18.980469 L 14.859375 20.648438 L 24.578125 20.648438 L 24.578125 18.980469 L 22.863281 18.785156 C 22.53125 18.738281 22.148438 18.476562 22.148438 17.78125 L 22.148438 11.453125 C 22.148438 10.808594 22.386719 10.378906 22.886719 10.332031 L 24.578125 10.140625 L 24.578125 8.492188 L 14.859375 8.492188 L 14.859375 10.117188 L 16.550781 10.332031 C 17.121094 10.402344 17.289062 10.855469 17.289062 11.453125 L 17.289062 13.339844 L 9.808594 13.339844 L 9.808594 11.429688 C 9.808594 10.714844 10.09375 10.378906 10.59375 10.332031 L 12.238281 10.140625 L 12.238281 8.492188 L 2.542969 8.492188 L 2.542969 10.140625 L 4.164062 10.332031 C 4.808594 10.402344 4.972656 10.878906 4.949219 11.503906 L 4.949219 17.664062 C 4.949219 18.355469 4.757812 18.761719 4.140625 18.835938 L 2.519531 19.023438 Z M 34.964844 10.355469 C 32.203125 10.355469 30.628906 11.382812 30.628906 14.535156 C 30.628906 17.734375 32.203125 18.761719 34.964844 18.761719 C 37.730469 18.761719 39.300781 17.734375 39.300781 14.535156 C 39.300781 11.382812 37.730469 10.355469 34.964844 10.355469 M 25.058594 14.507812 C 25.058594 10.6875 28.128906 8.011719 34.988281 8.011719 C 41.804688 8.011719 44.878906 10.6875 44.878906 14.507812 C 44.878906 18.425781 41.804688 21.078125 34.988281 21.078125 C 28.128906 21.078125 25.058594 18.425781 25.058594 14.507812 M 45.417969 20.648438 L 53.183594 20.648438 L 53.183594 19.023438 L 51.515625 18.835938 C 51.039062 18.785156 50.753906 18.382812 50.753906 17.828125 L 50.753906 11.644531 L 57.210938 20.171875 C 57.425781 20.457031 57.828125 20.648438 58.210938 20.648438 L 64.308594 20.648438 L 64.308594 11.429688 C 64.308594 10.996094 64.425781 10.40625 65.046875 10.332031 L 66.738281 10.140625 L 66.738281 8.492188 L 58.972656 8.492188 L 58.972656 10.117188 L 60.664062 10.332031 C 61.261719 10.402344 61.402344 10.902344 61.402344 11.476562 L 61.402344 17.496094 L 54.996094 9.015625 C 54.757812 8.707031 54.449219 8.492188 53.996094 8.492188 L 45.417969 8.492188 L 45.417969 10.140625 L 47.039062 10.332031 C 47.609375 10.417969 47.824219 10.707031 47.824219 11.503906 L 47.824219 17.664062 C 47.824219 18.394531 47.625 18.746094 47.011719 18.835938 L 45.417969 19.023438 Z M 45.417969 20.648438 " fill-opacity="1" fill-rule="nonzero"/></svg>