<svg xmlns="http://www.w3.org/2000/svg" xmlns:xlink="http://www.w3.org/1999/xlink" width="150" zoomAndPan="magnify" viewBox="0 0 112.5 112.499997" height="150" preserveAspectRatio="xMidYMid meet" version="1.0"><defs><clipPath id="bbd47e0c7d"><path d="M 11 25 L 103 25 L 103 82 L 11 82 Z M 11 25 " clip-rule="nonzero"/></clipPath><clipPath id="379a9b148b"><path d="M 94.574219 33.425781 C 94.574219 33.425781 98.160156 48.414062 92.738281 60 C 87.3125 71.582031 83.402344 77.429688 56.882812 78.472656 C 35.371094 79.011719 29.78125 73.417969 25.804688 69.347656 C 22.660156 66.128906 20.472656 60.742188 20.472656 60.742188 C 20.472656 60.742188 10.761719 42.804688 11.792969 48.464844 C 13.140625 55.878906 15.292969 66.503906 23.652344 73.171875 C 28.777344 77.253906 39.105469 79.773438 39.105469 79.773438 L 55.285156 81.050781 L 69.765625 80.195312 L 92.664062 71.378906 L 102.457031 50.003906 C 102 40.066406 101.039062 31.847656 99.578125 25.347656 L 96.382812 28.097656 Z M 94.574219 33.425781 " clip-rule="nonzero"/></clipPath><linearGradient x1="484.125607" gradientTransform="matrix(0.177859, 0, 0, -0.177598, 5.624459, 108.910832)" y1="472.01054" x2="476.12056" gradientUnits="userSpaceOnUse" y2="145.887879" id="40466bda74"><stop stop-opacity="1" stop-color="rgb(59.999084%, 59.999084%, 59.999084%)" offset="0"/><stop stop-opacity="1" stop-color="rgb(59.999084%, 59.999084%, 59.999084%)" offset="0.0387791"/><stop stop-opacity="1" stop-color="rgb(59.999084%, 59.999084%, 59.999084%)" offset="0.0625"/><stop stop-opacity="1" stop-color="rgb(59.999084%, 59.999084%, 59.999084%)" offset="0.078125"/><stop stop-opacity="1" stop-color="rgb(60.098267%, 60.098267%, 60.098267%)" offset="0.0859375"/><stop stop-opacity="1" stop-color="rgb(60.348511%, 60.348511%, 60.348511%)" offset="0.09375"/><stop stop-opacity="1" stop-color="rgb(60.650635%, 60.650635%, 60.650635%)" offset="0.101563"/><stop stop-opacity="1" stop-color="rgb(60.952759%, 60.952759%, 60.952759%)" offset="0.109375"/><stop stop-opacity="1" stop-color="rgb(61.254883%, 61.254883%, 61.254883%)" offset="0.117188"/><stop stop-opacity="1" stop-color="rgb(61.555481%, 61.555481%, 61.555481%)" offset="0.125"/><stop stop-opacity="1" stop-color="rgb(61.857605%, 61.857605%, 61.857605%)" offset="0.132812"/><stop stop-opacity="1" stop-color="rgb(62.159729%, 62.159729%, 62.159729%)" offset="0.140625"/><stop stop-opacity="1" stop-color="rgb(62.461853%, 62.461853%, 62.461853%)" offset="0.148438"/><stop stop-opacity="1" stop-color="rgb(62.762451%, 62.762451%, 62.762451%)" offset="0.15625"/><stop stop-opacity="1" stop-color="rgb(63.064575%, 63.064575%, 63.064575%)" offset="0.164063"/><stop stop-opacity="1" stop-color="rgb(63.366699%, 63.366699%, 63.366699%)" offset="0.171875"/><stop stop-opacity="1" stop-color="rgb(63.668823%, 63.668823%, 63.668823%)" offset="0.179688"/><stop stop-opacity="1" stop-color="rgb(63.969421%, 63.969421%, 63.969421%)" offset="0.1875"/><stop stop-opacity="1" stop-color="rgb(64.271545%, 64.271545%, 64.271545%)" offset="0.195313"/><stop stop-opacity="1" stop-color="rgb(64.573669%, 64.573669%, 64.573669%)" offset="0.203125"/><stop stop-opacity="1" stop-color="rgb(64.874268%, 64.874268%, 64.874268%)" offset="0.210938"/><stop stop-opacity="1" stop-color="rgb(65.176392%, 65.176392%, 65.176392%)" offset="0.21875"/><stop stop-opacity="1" stop-color="rgb(65.478516%, 65.478516%, 65.478516%)" offset="0.226563"/><stop stop-opacity="1" stop-color="rgb(65.78064%, 65.78064%, 65.78064%)" offset="0.234375"/><stop stop-opacity="1" stop-color="rgb(66.081238%, 66.081238%, 66.081238%)" offset="0.242188"/><stop stop-opacity="1" stop-color="rgb(66.383362%, 66.383362%, 66.383362%)" offset="0.25"/><stop stop-opacity="1" stop-color="rgb(66.685486%, 66.685486%, 66.685486%)" offset="0.257813"/><stop stop-opacity="1" stop-color="rgb(66.98761%, 66.98761%, 66.98761%)" offset="0.265625"/><stop stop-opacity="1" stop-color="rgb(67.288208%, 67.288208%, 67.288208%)" offset="0.273438"/><stop stop-opacity="1" stop-color="rgb(67.590332%, 67.590332%, 67.590332%)" offset="0.28125"/><stop stop-opacity="1" stop-color="rgb(67.892456%, 67.892456%, 67.892456%)" offset="0.289063"/><stop stop-opacity="1" stop-color="rgb(68.193054%, 68.193054%, 68.193054%)" offset="0.296875"/><stop stop-opacity="1" stop-color="rgb(68.495178%, 68.495178%, 68.495178%)" offset="0.304688"/><stop stop-opacity="1" stop-color="rgb(68.797302%, 68.797302%, 68.797302%)" offset="0.3125"/><stop stop-opacity="1" stop-color="rgb(69.099426%, 69.099426%, 69.099426%)" offset="0.320313"/><stop stop-opacity="1" stop-color="rgb(69.400024%, 69.400024%, 69.400024%)" offset="0.328125"/><stop stop-opacity="1" stop-color="rgb(69.702148%, 69.702148%, 69.702148%)" offset="0.335938"/><stop stop-opacity="1" stop-color="rgb(70.004272%, 70.004272%, 70.004272%)" offset="0.34375"/><stop stop-opacity="1" stop-color="rgb(70.306396%, 70.306396%, 70.306396%)" offset="0.351563"/><stop stop-opacity="1" stop-color="rgb(70.606995%, 70.606995%, 70.606995%)" offset="0.359375"/><stop stop-opacity="1" stop-color="rgb(70.909119%, 70.909119%, 70.909119%)" offset="0.367188"/><stop stop-opacity="1" stop-color="rgb(71.211243%, 71.211243%, 71.211243%)" offset="0.375"/><stop stop-opacity="1" stop-color="rgb(71.513367%, 71.513367%, 71.513367%)" offset="0.382813"/><stop stop-opacity="1" stop-color="rgb(71.813965%, 71.813965%, 71.813965%)" offset="0.390625"/><stop stop-opacity="1" stop-color="rgb(72.116089%, 72.116089%, 72.116089%)" offset="0.398438"/><stop stop-opacity="1" stop-color="rgb(72.418213%, 72.418213%, 72.418213%)" offset="0.40625"/><stop stop-opacity="1" stop-color="rgb(72.718811%, 72.718811%, 72.718811%)" offset="0.414063"/><stop stop-opacity="1" stop-color="rgb(73.020935%, 73.020935%, 73.020935%)" offset="0.421875"/><stop stop-opacity="1" stop-color="rgb(73.323059%, 73.323059%, 73.323059%)" offset="0.429688"/><stop stop-opacity="1" stop-color="rgb(73.625183%, 73.625183%, 73.625183%)" offset="0.4375"/><stop stop-opacity="1" stop-color="rgb(73.925781%, 73.925781%, 73.925781%)" offset="0.445313"/><stop stop-opacity="1" stop-color="rgb(74.227905%, 74.227905%, 74.227905%)" offset="0.453125"/><stop stop-opacity="1" stop-color="rgb(74.530029%, 74.530029%, 74.530029%)" offset="0.460938"/><stop stop-opacity="1" stop-color="rgb(74.832153%, 74.832153%, 74.832153%)" offset="0.46875"/><stop stop-opacity="1" stop-color="rgb(75.132751%, 75.132751%, 75.132751%)" offset="0.476563"/><stop stop-opacity="1" stop-color="rgb(75.434875%, 75.434875%, 75.434875%)" offset="0.484375"/><stop stop-opacity="1" stop-color="rgb(75.737%, 75.737%, 75.737%)" offset="0.492188"/><stop stop-opacity="1" stop-color="rgb(76.037598%, 76.037598%, 76.037598%)" offset="0.5"/><stop stop-opacity="1" stop-color="rgb(76.339722%, 76.339722%, 76.339722%)" offset="0.507813"/><stop stop-opacity="1" stop-color="rgb(76.641846%, 76.641846%, 76.641846%)" offset="0.515625"/><stop stop-opacity="1" stop-color="rgb(76.94397%, 76.94397%, 76.94397%)" offset="0.523438"/><stop stop-opacity="1" stop-color="rgb(77.244568%, 77.244568%, 77.244568%)" offset="0.53125"/><stop stop-opacity="1" stop-color="rgb(77.546692%, 77.546692%, 77.546692%)" offset="0.539062"/><stop stop-opacity="1" stop-color="rgb(77.848816%, 77.848816%, 77.848816%)" offset="0.546875"/><stop stop-opacity="1" stop-color="rgb(78.15094%, 78.15094%, 78.15094%)" offset="0.554688"/><stop stop-opacity="1" stop-color="rgb(78.451538%, 78.451538%, 78.451538%)" offset="0.5625"/><stop stop-opacity="1" stop-color="rgb(78.753662%, 78.753662%, 78.753662%)" offset="0.570312"/><stop stop-opacity="1" stop-color="rgb(79.055786%, 79.055786%, 79.055786%)" offset="0.578125"/><stop stop-opacity="1" stop-color="rgb(79.35791%, 79.35791%, 79.35791%)" offset="0.585938"/><stop stop-opacity="1" stop-color="rgb(79.658508%, 79.658508%, 79.658508%)" offset="0.59375"/><stop stop-opacity="1" stop-color="rgb(79.960632%, 79.960632%, 79.960632%)" offset="0.601562"/><stop stop-opacity="1" stop-color="rgb(80.262756%, 80.262756%, 80.262756%)" offset="0.609375"/><stop stop-opacity="1" stop-color="rgb(80.563354%, 80.563354%, 80.563354%)" offset="0.617188"/><stop stop-opacity="1" stop-color="rgb(80.865479%, 80.865479%, 80.865479%)" offset="0.625"/><stop stop-opacity="1" stop-color="rgb(81.167603%, 81.167603%, 81.167603%)" offset="0.632812"/><stop stop-opacity="1" stop-color="rgb(81.469727%, 81.469727%, 81.469727%)" offset="0.640625"/><stop stop-opacity="1" stop-color="rgb(81.770325%, 81.770325%, 81.770325%)" offset="0.648438"/><stop stop-opacity="1" stop-color="rgb(82.072449%, 82.072449%, 82.072449%)" offset="0.65625"/><stop stop-opacity="1" stop-color="rgb(82.374573%, 82.374573%, 82.374573%)" offset="0.664062"/><stop stop-opacity="1" stop-color="rgb(82.676697%, 82.676697%, 82.676697%)" offset="0.671875"/><stop stop-opacity="1" stop-color="rgb(82.977295%, 82.977295%, 82.977295%)" offset="0.679688"/><stop stop-opacity="1" stop-color="rgb(83.279419%, 83.279419%, 83.279419%)" offset="0.6875"/><stop stop-opacity="1" stop-color="rgb(83.581543%, 83.581543%, 83.581543%)" offset="0.695312"/><stop stop-opacity="1" stop-color="rgb(83.882141%, 83.882141%, 83.882141%)" offset="0.703125"/><stop stop-opacity="1" stop-color="rgb(84.170532%, 84.170532%, 84.170532%)" offset="0.71875"/><stop stop-opacity="1" stop-color="rgb(84.309387%, 84.309387%, 84.309387%)" offset="0.75"/><stop stop-opacity="1" stop-color="rgb(84.309387%, 84.309387%, 84.309387%)" offset="0.961221"/><stop stop-opacity="1" stop-color="rgb(84.309387%, 84.309387%, 84.309387%)" offset="1"/></linearGradient><clipPath id="c4e4158102"><path d="M 6 16 L 19 16 L 19 71 L 6 71 Z M 6 16 " clip-rule="nonzero"/></clipPath><clipPath id="afdb269e75"><path d="M 13.761719 18.921875 C 13.761719 18.921875 13.339844 23.429688 14.347656 26.078125 C 12.984375 28.257812 11.1875 34.792969 10.957031 40.039062 C 10.722656 45.289062 11.707031 58.988281 18.480469 66.804688 C 17.351562 68.941406 16.675781 70.257812 16.675781 70.257812 C 16.675781 70.257812 6.011719 63.03125 6.011719 39.886719 C 6.011719 28.722656 12.03125 18.695312 15.226562 16.046875 C 14.25 17.410156 13.761719 18.921875 13.761719 18.921875 Z M 13.761719 18.921875 " clip-rule="nonzero"/></clipPath><radialGradient gradientTransform="matrix(0.991063, -0.739635, -0.457435, -0.61113, 83.670276, 176.547782)" gradientUnits="userSpaceOnUse" r="18.191308" cx="18.585137" id="03ba819aab" cy="202.368255" fx="18.585137" fy="202.368255"><stop stop-opacity="1" stop-color="rgb(99.830627%, 99.830627%, 99.830627%)" offset="0"/><stop stop-opacity="1" stop-color="rgb(99.577332%, 99.577332%, 99.577332%)" offset="0.0078125"/><stop stop-opacity="1" stop-color="rgb(99.409485%, 99.409485%, 99.409485%)" offset="0.0117188"/><stop stop-opacity="1" stop-color="rgb(99.240112%, 99.240112%, 99.240112%)" offset="0.015625"/><stop stop-opacity="1" stop-color="rgb(99.072266%, 99.072266%, 99.072266%)" offset="0.0195312"/><stop stop-opacity="1" stop-color="rgb(98.902893%, 98.902893%, 98.902893%)" offset="0.0234375"/><stop stop-opacity="1" stop-color="rgb(98.735046%, 98.735046%, 98.735046%)" offset="0.0273438"/><stop stop-opacity="1" stop-color="rgb(98.5672%, 98.5672%, 98.5672%)" offset="0.03125"/><stop stop-opacity="1" stop-color="rgb(98.397827%, 98.397827%, 98.397827%)" offset="0.0351562"/><stop stop-opacity="1" stop-color="rgb(98.22998%, 98.22998%, 98.22998%)" offset="0.0390625"/><stop stop-opacity="1" stop-color="rgb(98.060608%, 98.060608%, 98.060608%)" offset="0.0429688"/><stop stop-opacity="1" stop-color="rgb(97.892761%, 97.892761%, 97.892761%)" offset="0.046875"/><stop stop-opacity="1" stop-color="rgb(97.723389%, 97.723389%, 97.723389%)" offset="0.0507812"/><stop stop-opacity="1" stop-color="rgb(97.555542%, 97.555542%, 97.555542%)" offset="0.0546875"/><stop stop-opacity="1" stop-color="rgb(97.386169%, 97.386169%, 97.386169%)" offset="0.0585938"/><stop stop-opacity="1" stop-color="rgb(97.218323%, 97.218323%, 97.218323%)" offset="0.0625"/><stop stop-opacity="1" stop-color="rgb(97.050476%, 97.050476%, 97.050476%)" offset="0.0664062"/><stop stop-opacity="1" stop-color="rgb(96.881104%, 96.881104%, 96.881104%)" offset="0.0703125"/><stop stop-opacity="1" stop-color="rgb(96.713257%, 96.713257%, 96.713257%)" offset="0.0742188"/><stop stop-opacity="1" stop-color="rgb(96.543884%, 96.543884%, 96.543884%)" offset="0.078125"/><stop stop-opacity="1" stop-color="rgb(96.376038%, 96.376038%, 96.376038%)" offset="0.0820312"/><stop stop-opacity="1" stop-color="rgb(96.206665%, 96.206665%, 96.206665%)" offset="0.0859375"/><stop stop-opacity="1" stop-color="rgb(96.038818%, 96.038818%, 96.038818%)" offset="0.0898438"/><stop stop-opacity="1" stop-color="rgb(95.870972%, 95.870972%, 95.870972%)" offset="0.09375"/><stop stop-opacity="1" stop-color="rgb(95.701599%, 95.701599%, 95.701599%)" offset="0.0976562"/><stop stop-opacity="1" stop-color="rgb(95.533752%, 95.533752%, 95.533752%)" offset="0.101562"/><stop stop-opacity="1" stop-color="rgb(95.36438%, 95.36438%, 95.36438%)" offset="0.105469"/><stop stop-opacity="1" stop-color="rgb(95.196533%, 95.196533%, 95.196533%)" offset="0.109375"/><stop stop-opacity="1" stop-color="rgb(95.027161%, 95.027161%, 95.027161%)" offset="0.113281"/><stop stop-opacity="1" stop-color="rgb(94.859314%, 94.859314%, 94.859314%)" offset="0.117188"/><stop stop-opacity="1" stop-color="rgb(94.689941%, 94.689941%, 94.689941%)" offset="0.121094"/><stop stop-opacity="1" stop-color="rgb(94.522095%, 94.522095%, 94.522095%)" offset="0.125"/><stop stop-opacity="1" stop-color="rgb(94.354248%, 94.354248%, 94.354248%)" offset="0.128906"/><stop stop-opacity="1" stop-color="rgb(94.184875%, 94.184875%, 94.184875%)" offset="0.132812"/><stop stop-opacity="1" stop-color="rgb(94.017029%, 94.017029%, 94.017029%)" offset="0.136719"/><stop stop-opacity="1" stop-color="rgb(93.847656%, 93.847656%, 93.847656%)" offset="0.140625"/><stop stop-opacity="1" stop-color="rgb(93.67981%, 93.67981%, 93.67981%)" offset="0.144531"/><stop stop-opacity="1" stop-color="rgb(93.510437%, 93.510437%, 93.510437%)" offset="0.148438"/><stop stop-opacity="1" stop-color="rgb(93.34259%, 93.34259%, 93.34259%)" offset="0.152344"/><stop stop-opacity="1" stop-color="rgb(93.174744%, 93.174744%, 93.174744%)" offset="0.15625"/><stop stop-opacity="1" stop-color="rgb(93.005371%, 93.005371%, 93.005371%)" offset="0.160156"/><stop stop-opacity="1" stop-color="rgb(92.837524%, 92.837524%, 92.837524%)" offset="0.164062"/><stop stop-opacity="1" stop-color="rgb(92.668152%, 92.668152%, 92.668152%)" offset="0.167969"/><stop stop-opacity="1" stop-color="rgb(92.500305%, 92.500305%, 92.500305%)" offset="0.171875"/><stop stop-opacity="1" stop-color="rgb(92.330933%, 92.330933%, 92.330933%)" offset="0.175781"/><stop stop-opacity="1" stop-color="rgb(92.163086%, 92.163086%, 92.163086%)" offset="0.179688"/><stop stop-opacity="1" stop-color="rgb(91.993713%, 91.993713%, 91.993713%)" offset="0.183594"/><stop stop-opacity="1" stop-color="rgb(91.825867%, 91.825867%, 91.825867%)" offset="0.1875"/><stop stop-opacity="1" stop-color="rgb(91.65802%, 91.65802%, 91.65802%)" offset="0.191406"/><stop stop-opacity="1" stop-color="rgb(91.488647%, 91.488647%, 91.488647%)" offset="0.195312"/><stop stop-opacity="1" stop-color="rgb(91.320801%, 91.320801%, 91.320801%)" offset="0.199219"/><stop stop-opacity="1" stop-color="rgb(91.151428%, 91.151428%, 91.151428%)" offset="0.203125"/><stop stop-opacity="1" stop-color="rgb(90.983582%, 90.983582%, 90.983582%)" offset="0.207031"/><stop stop-opacity="1" stop-color="rgb(90.814209%, 90.814209%, 90.814209%)" offset="0.210938"/><stop stop-opacity="1" stop-color="rgb(90.646362%, 90.646362%, 90.646362%)" offset="0.214844"/><stop stop-opacity="1" stop-color="rgb(90.478516%, 90.478516%, 90.478516%)" offset="0.21875"/><stop stop-opacity="1" stop-color="rgb(90.309143%, 90.309143%, 90.309143%)" offset="0.222656"/><stop stop-opacity="1" stop-color="rgb(90.141296%, 90.141296%, 90.141296%)" offset="0.226562"/><stop stop-opacity="1" stop-color="rgb(89.971924%, 89.971924%, 89.971924%)" offset="0.230469"/><stop stop-opacity="1" stop-color="rgb(89.804077%, 89.804077%, 89.804077%)" offset="0.234375"/><stop stop-opacity="1" stop-color="rgb(89.634705%, 89.634705%, 89.634705%)" offset="0.238281"/><stop stop-opacity="1" stop-color="rgb(89.466858%, 89.466858%, 89.466858%)" offset="0.242188"/><stop stop-opacity="1" stop-color="rgb(89.297485%, 89.297485%, 89.297485%)" offset="0.246094"/><stop stop-opacity="1" stop-color="rgb(89.129639%, 89.129639%, 89.129639%)" offset="0.25"/><stop stop-opacity="1" stop-color="rgb(88.876343%, 88.876343%, 88.876343%)" offset="0.253906"/><stop stop-opacity="1" stop-color="rgb(88.539124%, 88.539124%, 88.539124%)" offset="0.261719"/><stop stop-opacity="1" stop-color="rgb(88.201904%, 88.201904%, 88.201904%)" offset="0.269531"/><stop stop-opacity="1" stop-color="rgb(87.864685%, 87.864685%, 87.864685%)" offset="0.277344"/><stop stop-opacity="1" stop-color="rgb(87.528992%, 87.528992%, 87.528992%)" offset="0.285156"/><stop stop-opacity="1" stop-color="rgb(87.191772%, 87.191772%, 87.191772%)" offset="0.292969"/><stop stop-opacity="1" stop-color="rgb(86.854553%, 86.854553%, 86.854553%)" offset="0.300781"/><stop stop-opacity="1" stop-color="rgb(86.517334%, 86.517334%, 86.517334%)" offset="0.308594"/><stop stop-opacity="1" stop-color="rgb(86.180115%, 86.180115%, 86.180115%)" offset="0.316406"/><stop stop-opacity="1" stop-color="rgb(85.842896%, 85.842896%, 85.842896%)" offset="0.324219"/><stop stop-opacity="1" stop-color="rgb(85.505676%, 85.505676%, 85.505676%)" offset="0.332031"/><stop stop-opacity="1" stop-color="rgb(85.168457%, 85.168457%, 85.168457%)" offset="0.339844"/><stop stop-opacity="1" stop-color="rgb(84.832764%, 84.832764%, 84.832764%)" offset="0.347656"/><stop stop-opacity="1" stop-color="rgb(84.495544%, 84.495544%, 84.495544%)" offset="0.355469"/><stop stop-opacity="1" stop-color="rgb(84.158325%, 84.158325%, 84.158325%)" offset="0.363281"/><stop stop-opacity="1" stop-color="rgb(83.821106%, 83.821106%, 83.821106%)" offset="0.371094"/><stop stop-opacity="1" stop-color="rgb(83.483887%, 83.483887%, 83.483887%)" offset="0.378906"/><stop stop-opacity="1" stop-color="rgb(83.146667%, 83.146667%, 83.146667%)" offset="0.386719"/><stop stop-opacity="1" stop-color="rgb(82.809448%, 82.809448%, 82.809448%)" offset="0.394531"/><stop stop-opacity="1" stop-color="rgb(82.472229%, 82.472229%, 82.472229%)" offset="0.402344"/><stop stop-opacity="1" stop-color="rgb(82.136536%, 82.136536%, 82.136536%)" offset="0.410156"/><stop stop-opacity="1" stop-color="rgb(81.799316%, 81.799316%, 81.799316%)" offset="0.417969"/><stop stop-opacity="1" stop-color="rgb(81.462097%, 81.462097%, 81.462097%)" offset="0.425781"/><stop stop-opacity="1" stop-color="rgb(81.124878%, 81.124878%, 81.124878%)" offset="0.433594"/><stop stop-opacity="1" stop-color="rgb(80.787659%, 80.787659%, 80.787659%)" offset="0.441406"/><stop stop-opacity="1" stop-color="rgb(80.450439%, 80.450439%, 80.450439%)" offset="0.449219"/><stop stop-opacity="1" stop-color="rgb(80.11322%, 80.11322%, 80.11322%)" offset="0.457031"/><stop stop-opacity="1" stop-color="rgb(79.776001%, 79.776001%, 79.776001%)" offset="0.464844"/><stop stop-opacity="1" stop-color="rgb(79.440308%, 79.440308%, 79.440308%)" offset="0.472656"/><stop stop-opacity="1" stop-color="rgb(79.103088%, 79.103088%, 79.103088%)" offset="0.480469"/><stop stop-opacity="1" stop-color="rgb(78.765869%, 78.765869%, 78.765869%)" offset="0.488281"/><stop stop-opacity="1" stop-color="rgb(78.42865%, 78.42865%, 78.42865%)" offset="0.496094"/><stop stop-opacity="1" stop-color="rgb(78.17688%, 78.17688%, 78.17688%)" offset="0.503906"/><stop stop-opacity="1" stop-color="rgb(78.007507%, 78.007507%, 78.007507%)" offset="0.507812"/><stop stop-opacity="1" stop-color="rgb(77.839661%, 77.839661%, 77.839661%)" offset="0.511719"/><stop stop-opacity="1" stop-color="rgb(77.670288%, 77.670288%, 77.670288%)" offset="0.515625"/><stop stop-opacity="1" stop-color="rgb(77.502441%, 77.502441%, 77.502441%)" offset="0.519531"/><stop stop-opacity="1" stop-color="rgb(77.333069%, 77.333069%, 77.333069%)" offset="0.523438"/><stop stop-opacity="1" stop-color="rgb(77.165222%, 77.165222%, 77.165222%)" offset="0.527344"/><stop stop-opacity="1" stop-color="rgb(76.99585%, 76.99585%, 76.99585%)" offset="0.53125"/><stop stop-opacity="1" stop-color="rgb(76.828003%, 76.828003%, 76.828003%)" offset="0.535156"/><stop stop-opacity="1" stop-color="rgb(76.660156%, 76.660156%, 76.660156%)" offset="0.539062"/><stop stop-opacity="1" stop-color="rgb(76.490784%, 76.490784%, 76.490784%)" offset="0.542969"/><stop stop-opacity="1" stop-color="rgb(76.322937%, 76.322937%, 76.322937%)" offset="0.546875"/><stop stop-opacity="1" stop-color="rgb(76.153564%, 76.153564%, 76.153564%)" offset="0.550781"/><stop stop-opacity="1" stop-color="rgb(75.985718%, 75.985718%, 75.985718%)" offset="0.554688"/><stop stop-opacity="1" stop-color="rgb(75.816345%, 75.816345%, 75.816345%)" offset="0.558594"/><stop stop-opacity="1" stop-color="rgb(75.648499%, 75.648499%, 75.648499%)" offset="0.5625"/><stop stop-opacity="1" stop-color="rgb(75.479126%, 75.479126%, 75.479126%)" offset="0.566406"/><stop stop-opacity="1" stop-color="rgb(75.311279%, 75.311279%, 75.311279%)" offset="0.570312"/><stop stop-opacity="1" stop-color="rgb(75.143433%, 75.143433%, 75.143433%)" offset="0.574219"/><stop stop-opacity="1" stop-color="rgb(74.97406%, 74.97406%, 74.97406%)" offset="0.578125"/><stop stop-opacity="1" stop-color="rgb(74.806213%, 74.806213%, 74.806213%)" offset="0.582031"/><stop stop-opacity="1" stop-color="rgb(74.636841%, 74.636841%, 74.636841%)" offset="0.585938"/><stop stop-opacity="1" stop-color="rgb(74.468994%, 74.468994%, 74.468994%)" offset="0.589844"/><stop stop-opacity="1" stop-color="rgb(74.299622%, 74.299622%, 74.299622%)" offset="0.59375"/><stop stop-opacity="1" stop-color="rgb(74.131775%, 74.131775%, 74.131775%)" offset="0.597656"/><stop stop-opacity="1" stop-color="rgb(73.963928%, 73.963928%, 73.963928%)" offset="0.601562"/><stop stop-opacity="1" stop-color="rgb(73.794556%, 73.794556%, 73.794556%)" offset="0.605469"/><stop stop-opacity="1" stop-color="rgb(73.626709%, 73.626709%, 73.626709%)" offset="0.609375"/><stop stop-opacity="1" stop-color="rgb(73.457336%, 73.457336%, 73.457336%)" offset="0.613281"/><stop stop-opacity="1" stop-color="rgb(73.28949%, 73.28949%, 73.28949%)" offset="0.617188"/><stop stop-opacity="1" stop-color="rgb(73.120117%, 73.120117%, 73.120117%)" offset="0.621094"/><stop stop-opacity="1" stop-color="rgb(72.952271%, 72.952271%, 72.952271%)" offset="0.625"/><stop stop-opacity="1" stop-color="rgb(72.698975%, 72.698975%, 72.698975%)" offset="0.628906"/><stop stop-opacity="1" stop-color="rgb(72.361755%, 72.361755%, 72.361755%)" offset="0.636719"/><stop stop-opacity="1" stop-color="rgb(72.024536%, 72.024536%, 72.024536%)" offset="0.644531"/><stop stop-opacity="1" stop-color="rgb(71.687317%, 71.687317%, 71.687317%)" offset="0.652344"/><stop stop-opacity="1" stop-color="rgb(71.351624%, 71.351624%, 71.351624%)" offset="0.660156"/><stop stop-opacity="1" stop-color="rgb(71.014404%, 71.014404%, 71.014404%)" offset="0.667969"/><stop stop-opacity="1" stop-color="rgb(70.677185%, 70.677185%, 70.677185%)" offset="0.675781"/><stop stop-opacity="1" stop-color="rgb(70.339966%, 70.339966%, 70.339966%)" offset="0.683594"/><stop stop-opacity="1" stop-color="rgb(70.002747%, 70.002747%, 70.002747%)" offset="0.691406"/><stop stop-opacity="1" stop-color="rgb(69.665527%, 69.665527%, 69.665527%)" offset="0.699219"/><stop stop-opacity="1" stop-color="rgb(69.328308%, 69.328308%, 69.328308%)" offset="0.707031"/><stop stop-opacity="1" stop-color="rgb(68.991089%, 68.991089%, 68.991089%)" offset="0.714844"/><stop stop-opacity="1" stop-color="rgb(68.655396%, 68.655396%, 68.655396%)" offset="0.722656"/><stop stop-opacity="1" stop-color="rgb(68.318176%, 68.318176%, 68.318176%)" offset="0.730469"/><stop stop-opacity="1" stop-color="rgb(67.980957%, 67.980957%, 67.980957%)" offset="0.738281"/><stop stop-opacity="1" stop-color="rgb(67.643738%, 67.643738%, 67.643738%)" offset="0.746094"/><stop stop-opacity="1" stop-color="rgb(67.390442%, 67.390442%, 67.390442%)" offset="0.753906"/><stop stop-opacity="1" stop-color="rgb(67.222595%, 67.222595%, 67.222595%)" offset="0.757812"/><stop stop-opacity="1" stop-color="rgb(67.054749%, 67.054749%, 67.054749%)" offset="0.761719"/><stop stop-opacity="1" stop-color="rgb(66.885376%, 66.885376%, 66.885376%)" offset="0.765625"/><stop stop-opacity="1" stop-color="rgb(66.717529%, 66.717529%, 66.717529%)" offset="0.769531"/><stop stop-opacity="1" stop-color="rgb(66.548157%, 66.548157%, 66.548157%)" offset="0.773438"/><stop stop-opacity="1" stop-color="rgb(66.38031%, 66.38031%, 66.38031%)" offset="0.777344"/><stop stop-opacity="1" stop-color="rgb(66.210938%, 66.210938%, 66.210938%)" offset="0.78125"/><stop stop-opacity="1" stop-color="rgb(66.043091%, 66.043091%, 66.043091%)" offset="0.785156"/><stop stop-opacity="1" stop-color="rgb(65.875244%, 65.875244%, 65.875244%)" offset="0.789062"/><stop stop-opacity="1" stop-color="rgb(65.705872%, 65.705872%, 65.705872%)" offset="0.792969"/><stop stop-opacity="1" stop-color="rgb(65.538025%, 65.538025%, 65.538025%)" offset="0.796875"/><stop stop-opacity="1" stop-color="rgb(65.368652%, 65.368652%, 65.368652%)" offset="0.800781"/><stop stop-opacity="1" stop-color="rgb(65.200806%, 65.200806%, 65.200806%)" offset="0.804688"/><stop stop-opacity="1" stop-color="rgb(65.031433%, 65.031433%, 65.031433%)" offset="0.808594"/><stop stop-opacity="1" stop-color="rgb(64.863586%, 64.863586%, 64.863586%)" offset="0.8125"/><stop stop-opacity="1" stop-color="rgb(64.610291%, 64.610291%, 64.610291%)" offset="0.816406"/><stop stop-opacity="1" stop-color="rgb(64.273071%, 64.273071%, 64.273071%)" offset="0.824219"/><stop stop-opacity="1" stop-color="rgb(63.935852%, 63.935852%, 63.935852%)" offset="0.832031"/><stop stop-opacity="1" stop-color="rgb(63.598633%, 63.598633%, 63.598633%)" offset="0.839844"/><stop stop-opacity="1" stop-color="rgb(63.261414%, 63.261414%, 63.261414%)" offset="0.847656"/><stop stop-opacity="1" stop-color="rgb(62.92572%, 62.92572%, 62.92572%)" offset="0.855469"/><stop stop-opacity="1" stop-color="rgb(62.588501%, 62.588501%, 62.588501%)" offset="0.863281"/><stop stop-opacity="1" stop-color="rgb(62.251282%, 62.251282%, 62.251282%)" offset="0.871094"/><stop stop-opacity="1" stop-color="rgb(61.997986%, 61.997986%, 61.997986%)" offset="0.878906"/><stop stop-opacity="1" stop-color="rgb(61.830139%, 61.830139%, 61.830139%)" offset="0.882812"/><stop stop-opacity="1" stop-color="rgb(61.662292%, 61.662292%, 61.662292%)" offset="0.886719"/><stop stop-opacity="1" stop-color="rgb(61.49292%, 61.49292%, 61.49292%)" offset="0.890625"/><stop stop-opacity="1" stop-color="rgb(61.325073%, 61.325073%, 61.325073%)" offset="0.894531"/><stop stop-opacity="1" stop-color="rgb(61.155701%, 61.155701%, 61.155701%)" offset="0.898438"/><stop stop-opacity="1" stop-color="rgb(60.987854%, 60.987854%, 60.987854%)" offset="0.902344"/><stop stop-opacity="1" stop-color="rgb(60.818481%, 60.818481%, 60.818481%)" offset="0.90625"/><stop stop-opacity="1" stop-color="rgb(60.565186%, 60.565186%, 60.565186%)" offset="0.910156"/><stop stop-opacity="1" stop-color="rgb(60.229492%, 60.229492%, 60.229492%)" offset="0.917969"/><stop stop-opacity="1" stop-color="rgb(59.892273%, 59.892273%, 59.892273%)" offset="0.925781"/><stop stop-opacity="1" stop-color="rgb(59.555054%, 59.555054%, 59.555054%)" offset="0.933594"/><stop stop-opacity="1" stop-color="rgb(59.301758%, 59.301758%, 59.301758%)" offset="0.941406"/><stop stop-opacity="1" stop-color="rgb(59.133911%, 59.133911%, 59.133911%)" offset="0.945312"/><stop stop-opacity="1" stop-color="rgb(58.966064%, 58.966064%, 58.966064%)" offset="0.949219"/><stop stop-opacity="1" stop-color="rgb(58.796692%, 58.796692%, 58.796692%)" offset="0.953125"/><stop stop-opacity="1" stop-color="rgb(58.543396%, 58.543396%, 58.543396%)" offset="0.957031"/><stop stop-opacity="1" stop-color="rgb(58.206177%, 58.206177%, 58.206177%)" offset="0.964844"/><stop stop-opacity="1" stop-color="rgb(57.954407%, 57.954407%, 57.954407%)" offset="0.972656"/><stop stop-opacity="1" stop-color="rgb(57.785034%, 57.785034%, 57.785034%)" offset="0.976562"/><stop stop-opacity="1" stop-color="rgb(57.533264%, 57.533264%, 57.533264%)" offset="0.980469"/><stop stop-opacity="1" stop-color="rgb(57.279968%, 57.279968%, 57.279968%)" offset="0.988281"/><stop stop-opacity="1" stop-color="rgb(57.026672%, 57.026672%, 57.026672%)" offset="0.992188"/><stop stop-opacity="1" stop-color="rgb(56.858826%, 56.858826%, 56.858826%)" offset="1"/></radialGradient></defs><path fill="#43565c" d="M 47.042969 39.328125 C 44.078125 35.320312 40.546875 33.070312 36.914062 31.265625 C 36.324219 30.972656 35.734375 30.691406 35.140625 30.414062 C 36.859375 31.089844 38.523438 31.863281 41.183594 33.378906 C 44.097656 35.039062 46.71875 38.582031 48.375 41.03125 C 48.582031 41.335938 48.789062 41.640625 49 41.941406 C 48.355469 41.105469 47.707031 40.226562 47.042969 39.328125 " fill-opacity="1" fill-rule="nonzero"/><path fill="#657681" d="M 17.660156 45.816406 C 17.785156 46.875 17.941406 47.929688 18.121094 48.980469 C 25.371094 73.183594 33.804688 74.984375 54.527344 75.898438 C 70.628906 76.609375 79.84375 72.621094 85.273438 67.625 C 90.703125 62.625 92.375 56.589844 93.324219 53.132812 C 94.007812 50.648438 94.460938 48.25 94.660156 45.816406 L 106.199219 45.816406 C 105.730469 53.632812 103.269531 61.199219 98.070312 67.898438 C 91.636719 75.808594 81.582031 79.445312 72.878906 81.101562 C 64.171875 82.753906 56.785156 82.433594 55.648438 82.394531 C 54.519531 82.359375 50.378906 82.417969 45.277344 81.976562 C 40.175781 81.535156 34.097656 80.59375 29.097656 78.546875 C 26.898438 77.648438 24.992188 76.722656 23.320312 75.75 C 18.792969 73.027344 14.609375 69.066406 12.5625 66.15625 C 9.992188 62.507812 6.90625 56.113281 6.027344 45.816406 Z M 55.382812 45.816406 C 55.734375 46.300781 56.011719 46.585938 56.164062 46.625 C 56.25 46.609375 56.355469 46.535156 56.507812 46.355469 C 56.625 46.210938 56.753906 46.027344 56.890625 45.816406 L 66.96875 45.816406 C 65.226562 47.117188 63.722656 48.605469 62.304688 50.386719 C 59.988281 53.300781 58.660156 56.167969 58.238281 57.5625 C 57.796875 59.015625 56.957031 60.238281 56.828125 60.421875 C 56.671875 60.636719 55.964844 60.820312 55.726562 60.40625 C 55.480469 60.191406 55.230469 59.738281 55.003906 59.152344 C 54.707031 58.382812 54.332031 57.179688 53.582031 55.667969 C 52.835938 54.160156 51.710938 52.347656 49.902344 50.34375 C 48.339844 48.613281 46.714844 47.09375 45.058594 45.816406 L 55.382812 45.816406 " fill-opacity="1" fill-rule="evenodd"/><path fill="#657681" d="M 6.027344 45.816406 C 5.867188 43.960938 5.78125 41.976562 5.78125 39.859375 L 5.78125 39.601562 C 5.859375 29.835938 10.351562 20.980469 13.625 17.167969 C 14.074219 16.644531 15.722656 14.753906 17.148438 13.410156 C 21.25 9.558594 32.332031 2.253906 57.039062 2.921875 C 71.089844 2.953125 79.644531 4.796875 85.433594 7.304688 C 88.332031 8.558594 90.53125 9.976562 92.375 11.414062 C 94.210938 12.847656 95.699219 14.296875 97.175781 15.617188 L 97.214844 15.652344 L 97.230469 15.703125 C 97.242188 15.730469 104.226562 24.121094 105.808594 35.996094 C 106.246094 39.285156 106.394531 42.570312 106.199219 45.8125 L 94.660156 45.8125 C 94.863281 43.328125 94.800781 40.804688 94.453125 38.117188 C 94.207031 36.714844 93.949219 35.597656 93.761719 34.859375 C 93.804688 34.832031 93.515625 35.082031 93.515625 35.082031 C 93.515625 35.082031 91.464844 36.347656 81.539062 39.335938 C 74.941406 41.320312 70.480469 43.1875 66.96875 45.8125 L 56.890625 45.8125 C 56.917969 45.769531 56.945312 45.726562 56.976562 45.679688 C 57.316406 45.136719 57.679688 44.46875 58.011719 43.925781 C 58.753906 42.71875 61.003906 39.519531 64.203125 36.527344 C 67.324219 33.605469 74.816406 30.164062 80.351562 28.109375 C 81.28125 27.765625 82.199219 27.402344 83.113281 27.015625 C 85.390625 25.96875 87.644531 24.636719 89.667969 23.304688 C 89.535156 22.789062 89.386719 22.457031 89.304688 22.289062 C 89.304688 22.289062 89.207031 22.039062 88.980469 21.613281 C 88.75 21.183594 88.386719 20.566406 87.847656 19.835938 C 86.769531 18.371094 84.988281 16.433594 82.191406 14.550781 C 80.890625 13.65625 79.007812 12.660156 76.542969 11.570312 C 71.632812 9.558594 64.933594 8.066406 55.867188 8.066406 C 41.824219 8.066406 33.609375 11.601562 28.910156 15.117188 C 26.5625 16.878906 25.085938 18.632812 24.203125 19.945312 C 23.761719 20.601562 23.464844 21.148438 23.277344 21.527344 C 23.097656 21.902344 22.828125 22.4375 22.828125 22.4375 C 22.558594 23.1875 22.863281 23.503906 23.410156 23.859375 C 24.511719 24.574219 26.164062 25.558594 26.46875 25.738281 C 27.808594 26.402344 29.65625 27.234375 32.019531 28.109375 C 37.554688 30.164062 45.050781 33.605469 48.171875 36.527344 C 51.371094 39.523438 53.46875 42.785156 54.203125 43.984375 C 54.539062 44.527344 54.933594 45.175781 55.304688 45.707031 C 55.332031 45.742188 55.359375 45.78125 55.382812 45.816406 L 45.058594 45.8125 C 42.863281 44.121094 40.605469 42.839844 38.355469 42.023438 C 34.367188 40.582031 30.277344 39.683594 28.484375 39.136719 C 27.628906 38.875 26.597656 38.546875 25.753906 38.277344 C 25.292969 38.128906 24.835938 37.980469 24.378906 37.832031 L 24.164062 37.757812 C 22.226562 37.082031 20.238281 36.230469 18.363281 35.148438 C 18.289062 35.105469 18.242188 35.09375 18.21875 35.09375 C 18.199219 35.09375 18.179688 35.097656 18.164062 35.109375 C 18.144531 35.121094 18.121094 35.144531 18.089844 35.183594 C 18.054688 35.230469 18.027344 35.277344 17.996094 35.324219 C 17.886719 35.484375 17.464844 38.9375 17.394531 43.019531 C 17.402344 43.019531 17.457031 44.105469 17.660156 45.816406 L 6.027344 45.8125 " fill-opacity="1" fill-rule="evenodd"/><path fill="#cccccc" d="M 17.820312 48.59375 C 25.132812 73.355469 33.640625 75.199219 54.550781 76.125 C 86.824219 77.550781 91.644531 60.132812 93.546875 53.210938 C 95.648438 45.574219 94.472656 35.585938 94.472656 35.585938 L 97.75 46.75 L 91.277344 67.730469 L 82.203125 74.445312 L 72.535156 77.382812 L 57.070312 79.144531 L 37.320312 77.382812 L 26.140625 71.757812 L 20.511719 63.703125 L 18.324219 56.066406 C 18.324219 56.066406 17.402344 50.609375 17.820312 48.59375 Z M 17.820312 48.59375 " fill-opacity="1" fill-rule="nonzero"/><path fill="#666666" d="M 93.886719 32.980469 C 93.886719 32.980469 97.421875 47.585938 91.785156 59.253906 C 86.148438 70.921875 80.785156 78.050781 55.730469 78.136719 C 30.679688 78.21875 25.476562 67.808594 21.605469 60.59375 C 17.734375 53.382812 17.238281 43.054688 17.238281 43.054688 L 16.78125 55.1875 L 23.953125 68.652344 L 29.925781 74.113281 L 38.410156 77.796875 L 61.105469 79.222656 L 71.109375 77.796875 L 81.777344 75.117188 L 91.953125 66.636719 L 95.980469 52.117188 L 95.570312 36.011719 C 94.945312 33.539062 94.382812 32.527344 93.886719 32.980469 Z M 93.886719 32.980469 " fill-opacity="1" fill-rule="nonzero"/><path fill="#808080" d="M 12.796875 25.332031 L 15.121094 26.851562 C 15.121094 26.851562 14.757812 43.75 14.683594 44.035156 C 14.609375 44.320312 14.683594 53.457031 14.683594 53.457031 L 17.660156 65.050781 L 16.351562 66.140625 L 10.039062 49.46875 L 10.695312 35.699219 L 12 27.070312 Z M 12.796875 25.332031 " fill-opacity="1" fill-rule="nonzero"/><g clip-path="url(#bbd47e0c7d)"><g clip-path="url(#379a9b148b)"><path fill="url(#40466bda74)" d="M 10.761719 81.050781 L 10.761719 25.347656 L 102.457031 25.347656 L 102.457031 81.050781 Z M 10.761719 81.050781 " fill-rule="nonzero"/></g></g><g clip-path="url(#c4e4158102)"><g clip-path="url(#afdb269e75)"><path fill="url(#03ba819aab)" d="M 10.480469 76.230469 L -20.023438 35.476562 L 14.011719 10.074219 L 44.515625 50.828125 Z M 10.480469 76.230469 " fill-rule="nonzero"/></g></g><path fill="#121113" d="M 6.777344 44.328125 C 6.777344 44.328125 7.082031 55.542969 11.28125 62.65625 C 15.476562 69.773438 19.265625 74.320312 29.203125 78.390625 C 39.144531 82.457031 53.425781 82.152344 55.6875 82.222656 C 57.949219 82.292969 85.167969 83.511719 97.945312 67.800781 C 105.261719 58.375 107.167969 47.210938 105.640625 36.050781 C 104.117188 24.886719 98.445312 18.367188 98.445312 18.367188 C 98.445312 18.367188 99.234375 20.390625 98.300781 25.980469 C 99.683594 28.382812 101.925781 36.355469 101.496094 42.734375 C 101.066406 49.113281 99.894531 57.765625 95.035156 64.539062 C 91.914062 68.894531 89.4375 71.9375 82.621094 75.128906 C 75.800781 78.316406 65.359375 79.914062 55.921875 79.769531 C 46.484375 79.625 37.40625 78.890625 29.777344 75.414062 C 22.152344 71.9375 18.097656 66.65625 15.191406 62.441406 C 12.285156 58.230469 14.527344 60.367188 10.972656 56.871094 C 7.421875 53.375 6.777344 44.328125 6.777344 44.328125 " fill-opacity="1" fill-rule="nonzero"/><path fill="#c9cdd1" d="M 13.984375 17.128906 C 13.984375 17.128906 23.832031 2.246094 57.0625 3.144531 C 85.136719 3.210938 91.179688 10.515625 97.070312 15.792969 C 97.199219 16.175781 94.738281 18.171875 94.738281 18.171875 L 90.695312 19.6875 L 79.121094 10.613281 L 58.558594 6.136719 C 58.558594 6.136719 39.210938 8.425781 38.40625 8.324219 C 37.601562 8.226562 24.925781 15.296875 24.925781 15.296875 L 22.558594 22.554688 L 15.046875 16.890625 L 13.984375 17.128906 " fill-opacity="1" fill-rule="nonzero"/><path fill="#e6e6e6" d="M 15.746094 16 C 15.746094 16 24.757812 2.542969 57.035156 3.414062 C 84.300781 3.476562 90.921875 11.273438 96.644531 16.398438 C 94.820312 17.957031 92.898438 17.738281 92.898438 17.738281 L 89.699219 19.476562 L 78.457031 10.667969 L 58.488281 6.320312 C 58.488281 6.320312 39.695312 8.542969 38.914062 8.445312 C 38.132812 8.347656 25.824219 15.21875 25.824219 15.21875 L 19.292969 19.269531 L 15.347656 16.898438 Z M 15.746094 16 " fill-opacity="1" fill-rule="nonzero"/><path fill="#808080" d="M 15.746094 17.496094 C 15.746094 17.496094 26.625 5.335938 55.667969 5.335938 C 84.710938 5.335938 95.324219 15.152344 96.4375 16.636719 C 95.175781 18.257812 92.898438 19.988281 92.898438 19.988281 C 85.457031 15.316406 78.46875 11.628906 71.9375 8.925781 L 54.371094 6.332031 C 54.371094 6.332031 33.613281 11.117188 33.210938 11.117188 C 32.8125 11.117188 22.035156 18.691406 22.035156 18.691406 C 22.035156 18.691406 21.152344 20.171875 20.332031 19.988281 C 18.101562 18.183594 15.746094 17.496094 15.746094 17.496094 Z M 15.746094 17.496094 " fill-opacity="1" fill-rule="nonzero"/><path fill="#2a2e33" d="M 89.507812 22.238281 C 89.507812 22.238281 84.058594 7.894531 55.898438 7.894531 C 27.738281 7.894531 22.867188 22.078125 22.867188 22.078125 L 21.519531 19.722656 L 26.308594 13.175781 L 39 7.382812 L 47.816406 6.035156 L 56.234375 5.621094 L 67.023438 6.207031 L 75.515625 8.015625 L 87.242188 13.9375 L 93.59375 18.964844 L 94.046875 19.472656 L 89.507812 22.238281 " fill-opacity="1" fill-rule="nonzero"/><path fill="#b3b3b3" d="M 88.710938 24.460938 C 88.710938 24.460938 85.992188 26.269531 80.453125 28.324219 C 74.914062 30.378906 67.457031 33.808594 64.367188 36.699219 C 61.1875 39.679688 58.949219 42.863281 58.214844 44.054688 C 57.480469 45.246094 56.613281 47.015625 56.152344 46.84375 C 56.097656 47.863281 55.867188 53.953125 55.867188 53.953125 L 56.210938 54.183594 L 59.117188 49.167969 L 68.757812 38.695312 L 73.144531 34.027344 L 88.089844 26.902344 Z M 88.710938 24.460938 " fill-opacity="1" fill-rule="nonzero"/><path fill="#121113" d="M 79.902344 28.6875 C 78.101562 29.476562 69.660156 32.132812 65.476562 37.234375 C 64.050781 38.972656 61.554688 43.550781 60.871094 44.660156 C 60.1875 45.765625 56.882812 52.828125 56.078125 53.800781 C 55.273438 54.773438 60.371094 49.6875 60.371094 49.6875 C 60.371094 49.6875 74.195312 37.417969 74.5 37.234375 C 74.804688 37.050781 79.714844 32.632812 79.714844 32.632812 C 79.714844 32.632812 81.3125 28.070312 79.902344 28.6875 " fill-opacity="1" fill-rule="nonzero"/><path fill="#333333" d="M 97.539062 17.671875 C 97.539062 17.671875 90.296875 24.050781 82.921875 27.363281 C 75.546875 30.671875 66.347656 33.839844 60.839844 45.9375 C 56.652344 53.316406 67.378906 39.316406 67.378906 39.316406 L 73.023438 35.273438 L 86.117188 29.441406 L 92.808594 25.160156 Z M 97.539062 17.671875 " fill-opacity="1" fill-rule="nonzero"/><path fill="#e6e6e6" d="M 97.660156 17.550781 C 97.660156 17.550781 92.507812 22.730469 85.25 26.8125 C 82.847656 28.164062 76.464844 30.957031 73.523438 32.511719 C 67.046875 35.933594 63.699219 41.957031 62.648438 43.1875 C 61.601562 44.414062 56.203125 54.105469 56.203125 54.105469 L 58.53125 53.605469 L 67.5 41.773438 L 74.804688 37.355469 L 91.457031 32.144531 L 96.917969 27.605469 C 96.917969 27.605469 98.238281 28.273438 98.636719 22.089844 C 98.878906 18.28125 97.660156 17.550781 97.660156 17.550781 Z M 97.660156 17.550781 " fill-opacity="1" fill-rule="nonzero"/><path fill="#333333" d="M 85.410156 37.875 L 74.382812 41.414062 L 68.195312 43.957031 L 60.359375 49.785156 C 60.359375 49.785156 58.511719 53.074219 58.363281 53.773438 C 58.214844 54.46875 57.066406 58.257812 57.066406 58.257812 L 56.917969 59.503906 L 56.515625 60 L 56.167969 57.757812 L 56.363281 54.699219 L 57.894531 51.871094 L 59.660156 48.839844 L 62.953125 45.300781 L 67.496094 42.609375 L 75.179688 40.21875 L 81.570312 38.574219 Z M 85.410156 37.875 " fill-opacity="1" fill-rule="nonzero"/><path fill="#999999" d="M 93.425781 34.945312 C 93.425781 34.945312 91.398438 36.195312 81.511719 39.171875 C 71.628906 42.144531 66.492188 44.863281 62.179688 50.289062 C 59.847656 53.21875 58.507812 56.109375 58.078125 57.53125 C 57.644531 58.953125 56.824219 60.15625 56.695312 60.332031 C 56.566406 60.511719 55.902344 60.589844 55.894531 60.203125 C 55.890625 60.066406 56.464844 60.5625 56.65625 59.136719 C 56.652344 57.484375 56.804688 54.554688 57.777344 52.832031 C 59.113281 50.460938 61.140625 47.617188 64.421875 45.679688 C 67.703125 43.738281 71.933594 42.058594 74.695312 41.066406 C 77.457031 40.074219 84.363281 38.179688 87.339844 37.101562 C 90.316406 36.023438 94.074219 34.386719 94.074219 34.386719 Z M 93.425781 34.945312 " fill-opacity="1" fill-rule="nonzero"/><path fill="#b3b3b3" d="M 56.445312 54.46875 C 56.445312 54.46875 56.605469 59.015625 56.445312 59.492188 C 56.285156 59.972656 55.492188 59.253906 55.492188 59.253906 L 52.257812 51.722656 L 47.707031 47.015625 L 40.796875 42.707031 L 37.765625 41.511719 L 32.894531 40 L 30.898438 39.398438 L 30.496094 38.242188 L 40.679688 40.71875 L 48.300781 44.703125 L 52.21875 48.371094 L 55.128906 52.355469 Z M 56.445312 54.46875 " fill-opacity="1" fill-rule="nonzero"/><path fill="#cccccc" d="M 23.722656 24.460938 C 23.722656 24.460938 26.441406 26.269531 31.980469 28.324219 C 37.519531 30.378906 44.976562 33.808594 48.066406 36.699219 C 51.246094 39.679688 53.332031 42.921875 54.0625 44.113281 C 54.796875 45.304688 55.820312 47.015625 56.28125 46.84375 C 56.335938 47.863281 56.566406 53.953125 56.566406 53.953125 L 56.222656 54.183594 L 53.316406 49.167969 L 43.675781 38.695312 L 39.289062 34.027344 L 24.339844 26.902344 Z M 23.722656 24.460938 " fill-opacity="1" fill-rule="nonzero"/><path fill="#e6e6e6" d="M 55.230469 52.472656 L 51.28125 47.546875 L 44.105469 41.402344 L 21.308594 32.519531 L 14.363281 26.25 C 14.363281 26.25 12.738281 20.933594 13.753906 18.957031 C 13.71875 18.339844 14.875 15.117188 15.308594 16.121094 C 16.484375 17.316406 17.902344 19.089844 22.730469 22.238281 C 22.316406 23.21875 22.707031 23.644531 23.332031 24.050781 C 24.550781 24.84375 26.445312 25.964844 26.445312 25.964844 L 30.515625 28.207031 L 38.4375 32.195312 L 42.632812 34.835938 L 46.734375 39.148438 L 49.804688 42.933594 L 53.121094 47.246094 L 56.519531 54.019531 Z M 55.230469 52.472656 " fill-opacity="1" fill-rule="nonzero"/><path fill="#1a1a1a" d="M 22 63.757812 C 20.242188 62.523438 18.035156 61.503906 15.878906 60.125 C 14.148438 59.015625 12.785156 54.425781 12.105469 50.609375 C 9.691406 37.019531 14.460938 27.027344 14.460938 27.027344 C 14.460938 27.027344 14.542969 26.792969 14.453125 26.707031 C 14.105469 26.390625 14.355469 25.820312 14.898438 26.183594 C 20.988281 30.222656 22.550781 30.257812 27.320312 32.480469 C 34.152344 35.660156 41.3125 35.632812 48.910156 43.277344 C 52.527344 46.917969 56.121094 54.082031 56.539062 53.996094 C 56.507812 54.707031 56.398438 58.078125 56.398438 58.078125 C 56.398438 58.078125 56.59375 54.835938 55.558594 53.210938 C 51.359375 46.617188 45.210938 43.871094 45.210938 43.871094 C 45.210938 43.871094 39.914062 41.117188 31.613281 39.523438 C 28.035156 38.835938 22.9375 37.566406 18.492188 35 C 18.125 34.789062 17.988281 35.046875 17.859375 35.238281 C 17.621094 35.601562 16.664062 44.734375 17.65625 50.609375 C 18.574219 56.066406 19.839844 59.015625 22 63.757812 Z M 22 63.757812 " fill-opacity="1" fill-rule="nonzero"/><path fill="#3c444b" d="M 15.355469 16.15625 C 15.355469 16.15625 18.027344 19.3125 22.582031 22.253906 C 20.675781 21.546875 19.824219 21.4375 18.101562 20.125 C 16.945312 19.246094 15.355469 16.15625 15.355469 16.15625 " fill-opacity="1" fill-rule="nonzero"/><path fill="#121113" d="M 97.007812 16.015625 C 97.007812 16.015625 94.890625 18.292969 93.472656 19.355469 C 92.054688 20.414062 89.675781 22.152344 89.675781 22.152344 L 94.007812 20.011719 L 97.007812 16.015625 " fill-opacity="1" fill-rule="nonzero"/><path fill="#1a1a1a" d="M 18.816406 18.992188 C 18.816406 18.992188 22.632812 13.710938 29.023438 10.613281 C 35.410156 7.519531 39.671875 6.859375 43.613281 6.277344 C 47.402344 5.722656 55.082031 5.578125 55.683594 5.566406 L 55.722656 5.566406 C 56.34375 5.578125 64.457031 5.722656 68.25 6.277344 C 72.195312 6.859375 76.488281 7.394531 82.875 10.488281 C 89.261719 13.582031 93.761719 19.144531 93.761719 19.144531 C 93.761719 19.144531 92.160156 19.519531 91.179688 20.320312 C 90.203125 21.121094 89.835938 20.761719 89.835938 20.761719 C 89.835938 20.761719 89.746094 18.550781 86.773438 15.316406 C 83.800781 12.082031 79.207031 10.175781 73.261719 8.050781 C 67.511719 5.996094 56.453125 5.929688 55.722656 5.925781 L 55.683594 5.925781 C 54.972656 5.929688 44.347656 5.996094 38.605469 8.050781 C 32.65625 10.175781 29.199219 12.613281 26.226562 15.847656 C 23.253906 19.078125 22.632812 22.355469 22.632812 22.355469 C 22.632812 22.355469 21.664062 21.121094 20.683594 20.320312 C 19.707031 19.519531 18.816406 18.992188 18.816406 18.992188 Z M 18.816406 18.992188 " fill-opacity="1" fill-rule="nonzero"/><path fill="#3c444b" d="M 48.988281 41.949219 C 48.34375 41.070312 47.699219 40.195312 47.050781 39.320312 C 44.085938 35.308594 40.554688 33.058594 36.921875 31.253906 C 36.332031 30.960938 35.742188 30.679688 35.144531 30.402344 C 36.855469 31.101562 38.519531 31.875 41.175781 33.390625 C 44.089844 35.046875 46.707031 38.589844 48.363281 41.039062 C 48.570312 41.34375 48.777344 41.648438 48.988281 41.949219 Z M 14.527344 17.742188 C 15.046875 18.316406 19.164062 21.785156 25.933594 26.195312 C 32.855469 30.703125 40.90625 31.679688 46.730469 39.558594 C 51.269531 45.695312 51.734375 45.039062 55.824219 52.621094 C 55.0625 50.457031 54.261719 48.953125 53.234375 47.34375 C 52.207031 45.738281 50.347656 43.257812 48.695312 40.8125 C 47.042969 38.371094 44.378906 34.75 41.375 33.039062 C 38.367188 31.328125 36.625 30.558594 34.660156 29.773438 C 32.699219 28.992188 29.5 27.75 26.402344 25.984375 C 23.308594 24.222656 17.988281 20.589844 14.527344 17.742188 " fill-opacity="1" fill-rule="evenodd"/><path fill="#1a1a1a" d="M 56.726562 54.070312 C 59.789062 47.453125 62.742188 43.652344 68.875 39.222656 C 72.425781 36.65625 74.988281 36.183594 79.039062 34.578125 C 81.722656 33.515625 83.335938 33.175781 86.011719 32.085938 C 90.898438 30.101562 93.074219 29.121094 98.101562 26.027344 C 98.449219 27.207031 95.851562 31.851562 93.996094 34.578125 C 88.773438 36.875 84.566406 38.152344 78.3125 39.613281 C 74.558594 40.492188 71.796875 41.398438 67.984375 42.9375 C 61.597656 45.515625 59.75 48.6875 56.726562 54.070312 Z M 56.726562 54.070312 " fill-opacity="1" fill-rule="nonzero"/><path fill="#cccccc" d="M 55.019531 53.773438 C 56.011719 55.730469 56.46875 57.460938 56.46875 59.203125 C 56.46875 60.949219 55.820312 60.648438 55.21875 59.105469 C 54.621094 57.558594 53.722656 54.269531 50.078125 50.234375 C 46.4375 46.199219 42.445312 43.308594 38.453125 41.863281 C 34.460938 40.417969 30.367188 39.519531 28.570312 38.972656 C 26.773438 38.425781 24.207031 37.582031 24.207031 37.582031 L 28.722656 38.722656 C 28.722656 38.722656 38.953125 41.015625 44.789062 44.453125 C 50.628906 47.890625 53.453125 50.679688 55.019531 53.773438 Z M 55.019531 53.773438 " fill-opacity="1" fill-rule="nonzero"/><path fill="#c9cdd1" d="M 13.753906 18.929688 C 13.53125 19.203125 7.824219 26.238281 6.011719 39.886719 C 6.011719 29.320312 11.421875 19.527344 14.710938 16.265625 C 14.25 16.949219 13.75 18.480469 13.753906 18.929688 " fill-opacity="1" fill-rule="nonzero"/><path fill="#121113" d="M 22.613281 22.324219 C 22.613281 22.324219 21.171875 20.429688 19.363281 19.015625 C 17.558594 17.601562 16.183594 17.027344 16.183594 17.027344 C 16.183594 17.027344 17.183594 18.25 19.21875 19.851562 C 21.25 21.453125 22.613281 22.324219 22.613281 22.324219 " fill-opacity="1" fill-rule="nonzero"/><path fill="#c9cdd1" d="M 16.191406 17.039062 C 16.191406 17.039062 17.347656 17.394531 19.03125 18.753906 C 19.03125 18.753906 22.648438 13.851562 27.996094 11.132812 C 33.347656 8.414062 38.632812 6.71875 45.890625 6 C 45.890625 6 36.9375 6.304688 27.84375 10.921875 C 22.6875 13.539062 18.988281 18.363281 18.988281 18.363281 C 18.085938 17.699219 17.15625 17.257812 16.191406 17.039062 " fill-opacity="1" fill-rule="nonzero"/><path fill="#e6e6e6" d="M 98.171875 25.78125 C 98.171875 25.78125 99.15625 27.0625 100.375 31.992188 C 101.304688 35.738281 101.507812 39.417969 101.507812 39.417969 C 101.507812 39.417969 100.71875 31.757812 98.101562 26.03125 Z M 98.171875 25.78125 " fill-opacity="1" fill-rule="nonzero"/><path fill="#f2f2f2" d="M 55.722656 5.339844 C 56.382812 5.324219 64.484375 5.453125 68.289062 6.011719 C 70.269531 6.304688 72.335938 6.582031 74.710938 7.179688 C 77.09375 7.777344 79.777344 8.6875 82.992188 10.246094 C 86.21875 11.808594 88.964844 13.992188 90.898438 15.78125 C 91.707031 16.53125 92.484375 17.3125 93.226562 18.132812 C 93.472656 18.402344 93.714844 18.679688 93.953125 18.960938 L 93.761719 19.144531 C 93.761719 19.144531 89.261719 13.582031 82.875 10.488281 C 76.488281 7.394531 72.195312 6.859375 68.25 6.277344 C 64.457031 5.722656 55.722656 5.339844 55.722656 5.339844 Z M 55.722656 5.339844 " fill-opacity="1" fill-rule="nonzero"/><path fill="#e6e6e6" d="M 32.125 72.757812 C 44.738281 78.738281 70.066406 78.382812 80.910156 72.757812 C 69.507812 79.621094 44.597656 79.976562 32.125 72.757812 Z M 32.125 72.757812 " fill-opacity="1" fill-rule="nonzero"/><path fill="#cccccc" d="M 93.261719 59.339844 L 97.636719 59.339844 C 97.636719 59.339844 92.851562 71.785156 79.457031 76.117188 C 73.855469 77.929688 65.460938 78.027344 65.460938 78.027344 C 80.777344 77.132812 88.652344 72.242188 93.261719 59.339844 Z M 93.261719 59.339844 " fill-opacity="1" fill-rule="nonzero"/><path fill="#ffffff" d="M 58.78125 50.007812 C 58.78125 50.007812 62.785156 41.609375 72.269531 36.863281 C 74.769531 35.609375 78.949219 34.609375 78.949219 34.609375 L 76.515625 35.523438 C 73.792969 36.5 71.632812 37.230469 68.875 39.222656 C 64.144531 42.640625 61.304688 45.683594 58.847656 49.9375 L 58.78125 50.007812 " fill-opacity="1" fill-rule="nonzero"/><path fill="#b3b3b3" d="M 57.371094 53.710938 C 57.371094 53.710938 59.214844 45.53125 72.410156 41.613281 C 64 44.789062 60.253906 47.5625 57.371094 53.710938 Z M 57.371094 53.710938 " fill-opacity="1" fill-rule="nonzero"/><path fill="#e6e6e6" d="M 56.003906 59.75 C 55.90625 59.59375 55.773438 59.339844 55.621094 58.949219 C 55.320312 58.167969 54.941406 56.949219 54.179688 55.414062 C 53.40625 53.859375 52.25 51.996094 50.402344 49.945312 C 48.863281 48.242188 47.261719 46.738281 45.621094 45.457031 C 50.714844 48.585938 53.214844 51.167969 54.636719 53.96875 C 55.601562 55.875 56.035156 57.542969 56.035156 59.203125 C 56.035156 59.4375 56.023438 59.617188 56.003906 59.75 Z M 56.003906 59.75 " fill-opacity="1" fill-rule="nonzero"/><path fill="#ececec" d="M 89.519531 22.304688 L 89.828125 23.210938 C 89.828125 23.210938 91.347656 22.375 94.089844 20.265625 C 96.828125 18.15625 97.675781 17.527344 97.675781 17.527344 C 97.675781 17.527344 98.460938 18.132812 101.234375 22.648438 C 101.234375 22.648438 100.371094 19.992188 97.230469 16.054688 L 94.042969 19.984375 Z M 89.519531 22.304688 " fill-opacity="1" fill-rule="nonzero"/><path fill="#666666" d="M 46.425781 39.15625 C 42.015625 34.414062 38.902344 33.339844 33.253906 31.320312 C 27.828125 29.378906 25.589844 26.332031 25.164062 25.691406 C 25.421875 25.859375 25.675781 26.027344 25.933594 26.195312 C 32.734375 30.625 40.625 31.644531 46.425781 39.15625 Z M 46.425781 39.15625 " fill-opacity="1" fill-rule="nonzero"/><path fill="#0080c5" d="M 72.121094 105.144531 L 77.238281 105.144531 C 77.238281 105.144531 79.476562 105.128906 79.476562 101.621094 C 79.476562 98.046875 77.238281 98.042969 77.238281 98.042969 L 72.121094 98.042969 Z M 40.195312 102.753906 C 39.652344 102.753906 39.210938 103.257812 39.210938 103.878906 C 39.210938 104.5 39.652344 105.003906 40.195312 105.003906 L 46.164062 105.003906 L 46.164062 102.753906 Z M 88.765625 102.753906 C 88.222656 102.753906 87.78125 103.257812 87.78125 103.878906 C 87.78125 104.5 88.222656 105.003906 88.765625 105.003906 L 94.734375 105.003906 L 94.734375 102.753906 Z M 86.679688 99.847656 L 94.820312 99.847656 C 94.820312 99.058594 94.765625 97.804688 92.90625 97.804688 C 90.988281 97.800781 84.558594 97.804688 84.558594 97.804688 L 84.558594 94.234375 C 84.558594 94.234375 90.765625 94.234375 94.734375 94.234375 C 97.210938 94.234375 99.167969 95.242188 99.167969 98.199219 L 99.167969 108.898438 L 86.707031 108.898438 L 86.851562 108.90625 C 85.199219 108.90625 83.8125 107.457031 83.425781 105.496094 C 82.316406 108.894531 79.632812 108.894531 77.558594 108.890625 L 67.527344 108.890625 L 67.527344 97.402344 L 53.414062 108.898438 L 38.140625 108.898438 L 38.28125 108.90625 C 36.910156 108.90625 35.722656 107.90625 35.136719 106.441406 L 35.132812 108.898438 L 30.773438 108.898438 L 30.773438 99.457031 C 30.773438 99.457031 30.761719 98.199219 29.421875 98.199219 L 26.199219 98.199219 L 26.199219 108.898438 L 21.886719 108.898438 L 21.886719 98.199219 L 17.367188 98.199219 L 17.367188 108.898438 L 12.894531 108.898438 L 12.902344 94.234375 L 31.097656 94.234375 C 33.105469 94.234375 35.140625 95.550781 35.140625 98.199219 L 35.136719 102.296875 C 35.726562 100.839844 36.910156 99.84375 38.277344 99.84375 L 38.113281 99.847656 L 46.25 99.847656 C 46.25 99.058594 46.195312 97.804688 44.335938 97.804688 C 42.417969 97.800781 35.988281 97.804688 35.988281 97.804688 L 35.988281 94.234375 C 35.988281 94.234375 42.195312 94.234375 46.164062 94.234375 C 48.640625 94.234375 50.597656 95.242188 50.597656 98.199219 L 50.597656 105.554688 L 64.847656 94.234375 L 77.59375 94.234375 C 80.242188 94.234375 83.9375 94.234375 83.9375 101.542969 L 83.9375 101.804688 C 84.574219 100.621094 85.640625 99.84375 86.847656 99.84375 L 86.679688 99.851562 Z M 52.160156 94.234375 L 62.332031 94.234375 L 57.828125 98.199219 L 52.160156 98.199219 Z M 66.207031 108.886719 L 56.035156 108.886719 L 60.539062 104.921875 L 66.210938 104.921875 L 66.207031 108.886719 " fill-opacity="1" fill-rule="nonzero"/><path fill="#808080" d="M 32.507812 39.699219 C 32.507812 39.699219 33.421875 39.894531 33.710938 39.964844 C 37.050781 40.726562 39.796875 41.636719 41.765625 42.386719 C 43.449219 43.148438 45.339844 44.148438 47.390625 45.457031 C 55.800781 50.820312 55.847656 55.296875 55.847656 55.296875 C 55.847656 55.296875 55.726562 52.214844 50.59375 47.933594 C 45.421875 43.617188 36.628906 40.882812 34.027344 40.136719 C 33.550781 40 32.507812 39.699219 32.507812 39.699219 Z M 32.507812 39.699219 " fill-opacity="1" fill-rule="nonzero"/></svg>