<svg xmlns="http://www.w3.org/2000/svg" xmlns:xlink="http://www.w3.org/1999/xlink" width="150" zoomAndPan="magnify" viewBox="0 0 112.5 112.499997" height="150" preserveAspectRatio="xMidYMid meet" version="1.0"><path fill="#1a171b" d="M 55.871094 92.722656 C 35.808594 92.722656 19.171875 76.066406 19.171875 55.984375 C 19.171875 54.9375 19.21875 53.902344 19.304688 52.878906 L 50.015625 54.796875 L 36.730469 63.984375 C 36.535156 64.121094 36.433594 64.3125 36.433594 64.554688 C 36.433594 64.746094 36.503906 64.910156 36.636719 65.046875 C 36.773438 65.183594 36.9375 65.25 37.128906 65.25 L 91.359375 65.25 C 87.191406 80.941406 72.742188 92.722656 55.871094 92.722656 M 55.871094 19.242188 C 75.933594 19.242188 92.570312 35.898438 92.570312 55.984375 C 92.570312 57.019531 92.523438 58.046875 92.4375 59.0625 L 61.757812 57.113281 L 75.070312 47.980469 C 75.269531 47.84375 75.371094 47.652344 75.371094 47.410156 C 75.371094 47.023438 75.058594 46.710938 74.675781 46.710938 L 20.378906 46.710938 C 24.550781 31.023438 39 19.242188 55.871094 19.242188 M 108.503906 60.085938 L 98.464844 59.445312 C 98.554688 58.304688 98.605469 57.148438 98.605469 55.984375 C 98.605469 32.355469 79.472656 13.203125 55.871094 13.203125 C 35.449219 13.203125 18.375 27.542969 14.144531 46.710938 L 6.261719 46.710938 C 5.734375 46.710938 5.3125 46.921875 4.992188 47.339844 L 2.644531 50.582031 C 2.53125 50.726562 2.476562 50.890625 2.476562 51.074219 C 2.476562 51.296875 2.554688 51.484375 2.710938 51.644531 C 2.867188 51.800781 3.054688 51.878906 3.277344 51.878906 L 13.277344 52.503906 C 13.183594 53.660156 13.136719 54.820312 13.136719 55.984375 C 13.136719 79.609375 32.269531 98.761719 55.871094 98.761719 C 76.292969 98.761719 93.363281 84.421875 97.597656 65.25 L 105.519531 65.25 C 106.046875 65.253906 106.472656 65.042969 106.792969 64.625 L 109.140625 61.382812 C 109.34375 61.117188 109.375 60.835938 109.226562 60.535156 C 109.078125 60.234375 108.839844 60.085938 108.507812 60.085938 " fill-opacity="1" fill-rule="nonzero"/></svg>