<svg width="193" height="64" viewBox="0 0 193 64" fill="none" xmlns="http://www.w3.org/2000/svg">
<path d="M192.551 28.6293C192.703 27.5236 192.237 26.488 191.424 25.9698C190.337 25.2784 188.723 25.5613 187.8 26.7757L186.189 28.8711C185.604 29.8567 183.934 30.8052 183.934 30.8052L180.874 32.3364C178.115 33.2825 176.687 35.157 176.687 35.157C176.048 38.0776 174.667 40.7717 172.66 42.9742C170.27 45.5965 167.116 47.3856 163.641 48.1319C161.969 49.8428 159.856 54.2567 159.856 54.2567C159.634 56.1699 157.521 57.6414 157.521 57.6414C156.796 58.125 156.071 58.6085 155.346 59.092C154.225 59.9543 153.895 61.4452 154.461 62.5574C155.13 63.8734 156.941 64.4456 158.406 63.605L159.131 63.2827C160.197 62.8991 161.386 63.5244 161.386 63.5244C173.606 65.5988 175.318 57.4802 175.318 57.4802C175.69 56.7042 176.334 56.3415 176.886 56.1731C177.213 56.0732 177.549 56.0159 177.895 56.0296C178.704 55.9402 179.496 55.8338 180.31 55.7073C181.587 55.5082 182.471 55.3043 183.21 54.579C183.997 53.8062 184.213 52.8367 184.417 51.3555C184.511 50.6785 184.59 50.0177 184.659 49.3407C184.558 47.6669 186.109 46.6813 186.109 46.6813L187.558 45.956C194.1 42.3488 192.148 32.5782 192.148 32.5782C191.604 31.8311 191.987 30.5634 191.987 30.5634C192.175 29.9187 192.363 29.274 192.551 28.6293ZM156.876 62.5574C156.165 62.5574 155.588 62.0158 155.588 61.3485C155.588 60.6812 156.165 60.1397 156.876 60.1397C157.588 60.1397 158.165 60.6812 158.165 61.3485C158.165 62.0158 157.588 62.5574 156.876 62.5574ZM181.478 54.0955C180.789 54.0955 180.23 53.5539 180.23 52.8867C180.23 52.2194 180.789 51.6778 181.478 51.6778C182.167 51.6778 182.726 52.2194 182.726 52.8867C182.726 53.5539 182.167 54.0955 181.478 54.0955ZM190.014 29.3546C189.325 29.3546 188.766 28.7953 188.766 28.1055C188.766 27.4156 189.325 26.8563 190.014 26.8563C190.704 26.8563 191.262 27.4156 191.262 28.1055C191.262 28.7953 190.704 29.3546 190.014 29.3546Z" fill="#628F15"/>
<path fill-rule="evenodd" clip-rule="evenodd" d="M152.206 46.6813C144.454 45.1485 135.778 50.7913 135.778 50.7913C142.562 59.2524 152.286 61.3485 152.286 61.3485C151.863 58.4465 155.508 56.1908 155.508 56.1908C157.58 55.2834 157.843 53.6119 157.843 53.6119L160.5 48.3736C156.554 48.8572 152.206 46.6813 152.206 46.6813Z" fill="#383838"/>
<path fill-rule="evenodd" clip-rule="evenodd" d="M142.703 32.2558C142.703 32.2558 139.965 24.7207 130.785 20.0062C129.087 24.6167 128.478 29.552 129.013 34.4317C129.584 39.6378 131.441 44.6174 134.409 48.9378C135.751 48.0279 137.169 47.2559 138.644 46.5958C141.243 45.4321 144.807 44.2837 148.663 44.3442C148.663 44.3442 143.488 40.1938 142.703 32.2558Z" fill="#383838"/>
<path fill-rule="evenodd" clip-rule="evenodd" d="M155.105 0.342468C137.126 3.52574 131.751 17.9109 131.751 17.9109C139.501 21.5777 142.945 28.0652 142.945 28.0652C144.354 20.4898 150.273 16.7827 150.273 16.7827C155.486 11.0608 155.105 0.342468 155.105 0.342468Z" fill="#383838"/>
<path fill-rule="evenodd" clip-rule="evenodd" d="M180.391 7.51489C174.007 1.99614 165.661 -0.554507 157.279 0.100683C156.232 4.99003 155.185 9.87858 154.138 14.7679C159.159 13.0884 164.706 13.6711 169.197 16.5409C174.337 19.8249 177.344 25.6249 177.25 31.7723L182.807 28.7905C183.994 28.3472 184.418 27.5816 184.418 27.5816C185.937 25.1438 187.367 24.0961 188.416 23.6577C188.952 23.4337 189.546 23.3926 190.135 23.391C188.552 17.2154 185.198 11.6693 180.391 7.51489Z" fill="#383838"/>
<path d="M159.957 16.7827C151.94 16.7827 145.441 23.2862 145.441 31.3089C145.441 39.3315 151.94 45.8351 159.957 45.8351C167.974 45.8351 174.472 39.3315 174.472 31.3089C174.472 23.2862 167.974 16.7827 159.957 16.7827ZM162.393 20.0868C163.527 20.0868 164.446 21.0426 164.446 22.2224C164.446 23.4023 163.527 24.3581 162.393 24.3581C161.259 24.3581 160.339 23.4023 160.339 22.2224C160.339 21.0426 161.259 20.0868 162.393 20.0868ZM150.877 35.8823C149.743 35.8823 148.824 34.9265 148.824 33.7467C148.824 32.5669 149.743 31.6111 150.877 31.6111C152.011 31.6111 152.931 32.5669 152.931 33.7467C152.931 34.9265 152.011 35.8823 150.877 35.8823ZM151.32 24.7207C151.32 23.5409 152.24 22.5851 153.374 22.5851C154.507 22.5851 155.427 23.5409 155.427 24.7207C155.427 25.9005 154.507 26.8563 153.374 26.8563C152.24 26.8563 151.32 25.9005 151.32 24.7207ZM157.481 42.4906C156.347 42.4906 155.427 41.5349 155.427 40.355C155.427 39.1752 156.347 38.2194 157.481 38.2194C158.614 38.2194 159.534 39.1752 159.534 40.355C159.534 41.5349 158.614 42.4906 157.481 42.4906ZM159.937 36.6076C157.001 36.6076 154.622 34.2262 154.622 31.2887C154.622 28.3513 157.001 25.9698 159.937 25.9698C162.872 25.9698 165.252 28.3513 165.252 31.2887C165.252 34.2262 162.872 36.6076 159.937 36.6076ZM166.58 40.073C165.447 40.073 164.527 39.1172 164.527 37.9373C164.527 36.7575 165.447 35.8017 166.58 35.8017C167.714 35.8017 168.634 36.7575 168.634 37.9373C168.634 39.1172 167.714 40.073 166.58 40.073ZM168.996 30.9664C167.862 30.9664 166.943 30.0106 166.943 28.8308C166.943 27.6509 167.862 26.6951 168.996 26.6951C170.13 26.6951 171.05 27.6509 171.05 28.8308C171.05 30.0106 170.13 30.9664 168.996 30.9664Z" fill="#38510C"/>
<path d="M171.01 42.3695C177.191 36.183 177.191 26.1528 171.01 19.9663C164.828 13.7798 154.805 13.7798 148.623 19.9663C142.441 26.1528 142.441 36.183 148.623 42.3695C154.805 48.5559 164.828 48.5559 171.01 42.3695Z" stroke="#38510C" stroke-width="2" stroke-miterlimit="100"/>
<path d="M62.5594 16.5669C60.9021 16.5669 59.207 16.6048 57.569 16.6048C57.4925 16.6427 57.4925 16.6813 57.4925 16.7571C57.4925 17.0617 58.3115 16.9481 58.4258 17.0053C59.2448 17.0053 59.397 18.0159 59.397 18.6445C59.397 19.5979 59.3592 22.9907 59.3592 29.0147C59.3592 35.0388 58.5595 36.0872 56.1968 37.9932C58.6537 37.1929 60.4447 35.3813 61.035 33.1135C61.2822 32.1795 61.3966 30.0253 61.3966 27.5278C61.3966 26.0031 61.3772 24.3446 61.3772 22.7811V18.6066C61.3772 17.6154 61.6059 16.9287 62.6722 16.9287C62.7865 16.9287 62.9009 16.9094 62.9009 16.7377C62.9009 16.6427 62.8815 16.5661 62.5578 16.5661L62.5594 16.5669ZM68.4268 25.85C68.4268 22.3427 68.4646 13.5932 68.4646 8.99876C68.4646 8.12195 68.7884 7.7601 70.1219 7.7601C70.217 7.7601 70.3128 7.66501 70.3128 7.58845C70.3128 7.41679 70.1413 7.41679 69.9512 7.41679H65.208C64.9608 7.41679 64.865 7.45467 64.865 7.58845C64.865 7.79798 65.8555 7.8552 66.0463 8.00751C66.4079 8.33148 66.3894 8.94154 66.3894 9.95213V23.525C66.3894 28.2523 66.5416 32.8846 72.8656 33.3996V32.5606C68.8085 32.2746 68.4276 28.6335 68.4276 25.8508L68.4268 25.85ZM80.3516 34.9235C79.4183 34.9235 78.675 35.6674 78.675 36.6014C78.675 37.5354 79.4175 38.2793 80.3516 38.2793C81.2857 38.2793 82.0282 37.5548 82.0282 36.6014C82.0282 35.648 81.2849 34.9235 80.3516 34.9235ZM79.3039 25.8306C79.3418 18.6445 79.3418 18.5107 79.3418 18.3769C79.3418 17.729 79.4368 16.9666 80.5231 16.9666C80.5996 16.9666 81.2278 16.9666 81.2278 16.7756C81.2278 16.6805 81.1513 16.5846 80.8662 16.5846H75.7614C75.5706 16.5846 75.3998 16.6225 75.3998 16.7756C75.3998 16.9094 75.7042 16.9666 76.1045 16.9666C77.1715 16.9666 77.2858 17.6718 77.2858 18.6058V25.7734C77.248 28.4997 76.7141 32.3503 72.8664 32.5405V33.398C75.8379 33.1691 77.438 32.0062 78.2949 30.367C79.1904 32.0062 80.7905 33.1691 83.762 33.398V32.5405C82.9809 32.5212 82.1998 32.2737 81.4951 31.816C79.4569 30.5387 79.3047 28.1556 79.3047 25.8306H79.3039ZM76.2937 34.9235C75.3604 34.9235 74.6171 35.6674 74.6171 36.6014C74.6171 37.5354 75.3596 38.2793 76.2937 38.2793C77.2279 38.2793 77.9703 37.5548 77.9703 36.6014C77.9703 35.648 77.2271 34.9235 76.2937 34.9235ZM97.3425 14.1073C98.2759 14.1073 99.0192 13.3635 99.0192 12.4294C99.0192 11.4954 98.2759 10.7516 97.3425 10.7516C96.4092 10.7516 95.6659 11.5333 95.6659 12.4294C95.6659 13.3256 96.3899 14.1073 97.3425 14.1073ZM91.2472 32.5413C88.3901 31.9119 86.8093 29.0913 86.8093 26.232C86.8093 22.1147 89.8187 21.943 93.1333 21.943C97.1718 21.943 101.839 22.6296 105.801 21.619C108.81 20.8567 110.048 17.8636 110.601 16.7772C109.306 19.0071 106.773 19.5793 104.391 19.751C99.9533 20.0556 95.9912 19.8848 92.067 19.8848C88.1428 19.8848 84.9998 22.9157 84.9998 26.614C84.9998 29.3403 86.409 31.4558 88.4666 32.5421H83.762V33.3996H111.173V32.5421H91.2481L91.2472 32.5413Z" fill="#383838"/>
<path d="M40.5732 29.0332C39.7164 25.3729 35.3162 24.8394 32.3447 24.8394C25.4683 24.8394 18.8012 24.9345 12.1914 24.9345C9.98164 24.9345 7.7719 24.9345 5.5815 24.8966C3.29607 24.6298 0.857639 23.4669 0.857639 21.6182C0.857639 20.3981 1.98183 19.045 3.50545 18.721C4.55314 18.5115 5.60083 18.435 6.64852 18.435C8.66739 18.435 10.6677 18.7017 12.6488 18.7017C15.2201 18.7017 17.5248 18.8734 19.7346 18.3012C22.7826 17.5388 23.9825 14.5457 24.5349 13.4594C22.6304 16.7377 18.0394 16.5282 14.8585 16.5282C10.8199 16.5282 4.19156 15.6321 1.3529 18.5679C0.496062 19.4641 0.000805295 20.4739 0.000805295 21.5038C0.000805295 22.2662 0.305207 23.0672 0.819791 23.9247C2.43924 26.2505 5.5058 26.6317 8.4395 26.6317C19.3545 26.6317 32.5162 26.4028 32.5162 26.4028C34.6688 26.4407 39.5642 26.7461 39.5642 29.491C39.5642 30.4822 38.1549 32.4269 35.8115 32.5413H0V33.3988H36.2681C38.3256 33.1699 39.2396 32.6743 40.0586 31.4928C41.0298 32.5034 42.4777 33.2086 44.7446 33.3988V32.5413C42.5921 32.389 41.0491 31.0923 40.5732 29.0341V29.0332ZM48.1744 14.1073C49.1077 14.1073 49.851 13.3828 49.851 12.4294C49.851 11.4761 49.1077 10.7516 48.1744 10.7516C47.241 10.7516 46.4978 11.4954 46.4978 12.4294C46.4978 13.3635 47.2789 14.1073 48.1744 14.1073ZM52.3845 16.5854C50.7465 16.5854 49.0699 16.6233 47.394 16.6233C47.3175 16.6612 47.2797 16.6999 47.2797 16.7756C47.2797 16.9473 47.3175 16.9666 47.9843 16.9666C49.0699 16.9666 49.1842 17.8434 49.1842 18.5873V25.8306C49.1842 28.0799 49.032 30.5395 46.9938 31.816C46.2892 32.2544 45.5274 32.5212 44.7462 32.5405V33.398C51.4133 32.8645 51.2224 27.7551 51.2224 22.7803V18.1859C51.2224 16.5653 52.746 17.1568 52.746 16.7756C52.746 16.6418 52.6317 16.5846 52.3845 16.5846V16.5854ZM52.2701 10.7524C51.3368 10.7524 50.5935 11.4962 50.5935 12.4302C50.5935 13.3643 51.336 14.1081 52.2701 14.1081C53.2043 14.1081 53.9467 13.3836 53.9467 12.4302C53.9467 11.4769 53.1656 10.7524 52.2701 10.7524Z" fill="#628F15"/>
<path d="M10.7371 49.4296C10.7371 49.378 10.7226 49.3345 10.6936 49.299C10.6646 49.2636 10.6243 49.2458 10.5728 49.2458H10.4761C10.431 49.2458 10.394 49.2636 10.365 49.299C10.336 49.3345 10.3215 49.378 10.3215 49.4296C10.328 49.7004 10.3328 49.9405 10.336 50.1501C10.3392 50.3596 10.3408 50.5643 10.3408 50.7641V52.0987C10.3408 52.189 10.336 52.2599 10.3264 52.3115C10.3167 52.363 10.2958 52.4017 10.2635 52.4275C10.2313 52.4533 10.1846 52.4678 10.1234 52.471C10.0622 52.4742 9.97685 52.4759 9.86733 52.4759H6.81365C6.24673 52.4759 5.79737 52.4194 5.46559 52.3066C5.13381 52.1938 4.88095 52.0407 4.707 51.8473C4.53306 51.6538 4.42193 51.4266 4.37361 51.1655C4.32529 50.9044 4.30113 50.6288 4.30113 50.3386C4.30113 50.2226 4.30596 50.1178 4.31563 50.0243C4.32529 49.9308 4.33657 49.8035 4.34945 49.6423C4.35589 49.507 4.3108 49.4393 4.21416 49.4393H4.13685C4.08531 49.4393 4.04666 49.4521 4.02089 49.4779C3.99512 49.5037 3.97579 49.5521 3.96291 49.623C3.9307 49.7906 3.91137 49.9405 3.90493 50.0727C3.89849 50.2049 3.89526 50.3257 3.89526 50.4353C3.89526 50.8028 3.93553 51.1381 4.01606 51.4411C4.09659 51.7441 4.24476 52.0036 4.46058 52.2196C4.6764 52.4356 4.97275 52.6032 5.34963 52.7225C5.72651 52.8417 6.21129 52.9014 6.80399 52.9014H9.20055C9.94142 52.9014 10.3731 52.8756 10.4955 52.824C10.5728 52.7918 10.6243 52.7515 10.6501 52.7031C10.6758 52.6548 10.6952 52.5951 10.7081 52.5242C10.7145 52.4597 10.7209 52.3792 10.7274 52.2824C10.7338 52.1857 10.7387 52.081 10.7419 51.9681C10.7451 51.8553 10.7467 51.7393 10.7467 51.62V50.3821C10.7467 50.2629 10.7451 50.1323 10.7419 49.9905C10.7387 49.8486 10.7371 49.6617 10.7371 49.4296ZM8.00227 48.3948H8.07958C8.13756 48.3948 8.18749 48.3755 8.22936 48.3368C8.27124 48.2981 8.29218 48.2498 8.29218 48.1917V47.921C8.29218 47.8565 8.27124 47.8049 8.22936 47.7662C8.18749 47.7275 8.13756 47.7082 8.07958 47.7082H8.00227C7.94429 47.7082 7.89275 47.7275 7.84765 47.7662C7.80256 47.8049 7.78001 47.8565 7.78001 47.921V48.1917C7.78001 48.2498 7.80256 48.2981 7.84765 48.3368C7.89275 48.3755 7.94429 48.3948 8.00227 48.3948ZM6.65904 48.3948H6.73635C6.79433 48.3948 6.84587 48.3755 6.89096 48.3368C6.93606 48.2981 6.95861 48.2498 6.95861 48.1917V47.921C6.95861 47.8565 6.93767 47.8049 6.89579 47.7662C6.85392 47.7275 6.80077 47.7082 6.73635 47.7082H6.65904C6.60106 47.7082 6.55113 47.7275 6.50925 47.7662C6.46738 47.8049 6.44644 47.8565 6.44644 47.921V48.1917C6.44644 48.2498 6.46738 48.2981 6.50925 48.3368C6.55113 48.3755 6.60106 48.3948 6.65904 48.3948ZM12.8244 45.716H12.7471C12.6955 45.716 12.6553 45.7338 12.6263 45.7692C12.5973 45.8047 12.5828 45.8482 12.5828 45.8998V52.7176C12.5828 52.7692 12.5973 52.8127 12.6263 52.8482C12.6553 52.8836 12.6955 52.9014 12.7471 52.9014H12.8244C12.8759 52.9014 12.9162 52.8836 12.9452 52.8482C12.9742 52.8127 12.9887 52.7692 12.9887 52.7176V45.8998C12.9887 45.8482 12.9742 45.8047 12.9452 45.7692C12.9162 45.7338 12.8759 45.716 12.8244 45.716ZM15.4625 49.2458H15.3756C15.324 49.2458 15.2837 49.2636 15.2548 49.299C15.2258 49.3345 15.2113 49.378 15.2113 49.4296V53.6557C15.2113 53.8878 15.1952 54.0731 15.163 54.2117C15.1307 54.3504 15.076 54.4567 14.9987 54.5309C14.9214 54.605 14.8167 54.6518 14.6846 54.6711C14.5525 54.6905 14.3899 54.7001 14.1966 54.7001H14.071C13.9615 54.7001 13.9067 54.7388 13.9067 54.8162V54.9419C13.9067 54.9806 13.918 55.0112 13.9405 55.0338C13.9631 55.0563 14.0098 55.0741 14.0806 55.0869C14.1257 55.0934 14.1644 55.0966 14.1966 55.0966H14.2642C14.5735 55.0966 14.8215 55.0612 15.0083 54.9902C15.1952 54.9193 15.3433 54.8001 15.4529 54.6324C15.5237 54.5164 15.5688 54.3761 15.5882 54.2117C15.6075 54.0473 15.6171 53.8717 15.6171 53.6847V49.4296C15.6171 49.378 15.6026 49.3345 15.5737 49.299C15.5447 49.2636 15.5076 49.2458 15.4625 49.2458ZM33.8812 53.8491H33.8039C33.7459 53.8491 33.696 53.8684 33.6541 53.9071C33.6123 53.9458 33.5913 53.9974 33.5913 54.0619V54.3326C33.5913 54.3907 33.6123 54.439 33.6541 54.4777C33.696 54.5164 33.7459 54.5357 33.8039 54.5357H33.8812C33.9392 54.5357 33.9908 54.5164 34.0359 54.4777C34.081 54.439 34.1035 54.3907 34.1035 54.3326V54.0619C34.1035 53.9974 34.0826 53.9458 34.0407 53.9071C33.9988 53.8684 33.9457 53.8491 33.8812 53.8491ZM35.2245 53.8491H35.1472C35.0892 53.8491 35.0376 53.8684 34.9925 53.9071C34.9474 53.9458 34.9249 53.9974 34.9249 54.0619V54.3326C34.9249 54.3907 34.9474 54.439 34.9925 54.4777C35.0376 54.5164 35.0892 54.5357 35.1472 54.5357H35.2245C35.2825 54.5357 35.3324 54.5164 35.3743 54.4777C35.4161 54.439 35.4371 54.3907 35.4371 54.3326V54.0619C35.4371 53.9974 35.4161 53.9458 35.3743 53.9071C35.3324 53.8684 35.2825 53.8491 35.2245 53.8491ZM46.6468 45.7257H46.5695C46.5179 45.7257 46.4777 45.7434 46.4487 45.7789C46.4197 45.8143 46.4052 45.8579 46.4052 45.9094V52.0987C46.4052 52.189 46.4004 52.2599 46.3907 52.3115C46.381 52.363 46.3601 52.4017 46.3279 52.4275C46.2957 52.4533 46.249 52.4678 46.1878 52.471C46.1266 52.4742 46.0412 52.4759 45.9317 52.4759H44.9557C44.8912 52.4759 44.8123 52.4726 44.7189 52.4662C44.6255 52.4597 44.5337 52.4452 44.4435 52.4227C44.3533 52.4001 44.2728 52.3695 44.2019 52.3308C44.131 52.2921 44.0859 52.2405 44.0666 52.1761V49.1878C44.0666 49.1362 44.0521 49.0927 44.0231 49.0573C43.9941 49.0218 43.9571 49.0041 43.912 49.0041H43.825C43.7799 49.0041 43.7413 49.0218 43.7091 49.0573C43.6769 49.0927 43.6607 49.1362 43.6607 49.1878V52.089C43.6607 52.1793 43.6318 52.2486 43.5738 52.2969C43.5158 52.3453 43.4449 52.384 43.3612 52.413C43.2774 52.442 43.1888 52.4597 43.0954 52.4662C43.002 52.4726 42.9231 52.4759 42.8587 52.4759H42.7041C42.601 52.4759 42.4979 52.4726 42.3948 52.4662C42.2917 52.4597 42.1967 52.4452 42.1097 52.4227C42.0228 52.4001 41.9487 52.3695 41.8875 52.3308C41.8263 52.2921 41.786 52.2405 41.7667 52.1761V49.5553C41.7667 49.5037 41.7522 49.4602 41.7232 49.4248C41.6942 49.3893 41.6539 49.3716 41.6024 49.3716H41.5251C41.4736 49.3716 41.4333 49.3893 41.4043 49.4248C41.3753 49.4602 41.3608 49.5037 41.3608 49.5553V52.089C41.3608 52.1664 41.3334 52.2309 41.2787 52.2824C41.2239 52.334 41.1579 52.3743 41.0806 52.4033C41.0033 52.4323 40.9227 52.4517 40.839 52.4614C40.7552 52.471 40.6812 52.4759 40.6167 52.4759H40.3558C40.2914 52.4759 40.2125 52.4726 40.1191 52.4662C40.0256 52.4597 39.9322 52.4452 39.8388 52.4227C39.7454 52.4001 39.6633 52.3695 39.5924 52.3308C39.5215 52.2921 39.4764 52.2405 39.4571 52.1761V49.8744C39.4571 49.8229 39.4426 49.7793 39.4136 49.7439C39.3846 49.7084 39.3444 49.6907 39.2928 49.6907H39.2155C39.164 49.6907 39.1237 49.7084 39.0947 49.7439C39.0657 49.7793 39.0512 49.8229 39.0512 49.8744V52.089C39.0512 52.1793 39.0222 52.2486 38.9643 52.2969C38.9063 52.3453 38.8338 52.384 38.7468 52.413C38.6599 52.442 38.5697 52.4597 38.4763 52.4662C38.3828 52.4726 38.3039 52.4759 38.2395 52.4759H35.756C35.6915 52.4759 35.6126 52.4726 35.5192 52.4662C35.4258 52.4597 35.334 52.4452 35.2438 52.4227C35.1536 52.4001 35.0731 52.3695 35.0022 52.3308C34.9313 52.2921 34.8862 52.2405 34.8669 52.1761V49.4296C34.8669 49.378 34.8524 49.3345 34.8234 49.299C34.7944 49.2636 34.7542 49.2458 34.7026 49.2458H34.6253C34.5738 49.2458 34.5335 49.2636 34.5045 49.299C34.4755 49.3345 34.4611 49.378 34.4611 49.4296V52.089C34.4611 52.1793 34.4321 52.2486 34.3741 52.2969C34.3161 52.3453 34.2436 52.384 34.1566 52.413C34.0697 52.442 33.9795 52.4597 33.8861 52.4662C33.7927 52.4726 33.7137 52.4759 33.6493 52.4759H18.5645C18.4486 52.4759 18.3439 52.4694 18.2505 52.4565C18.157 52.4436 18.0781 52.4146 18.0137 52.3695C17.9493 52.3243 17.8993 52.2583 17.8639 52.1712C17.8285 52.0842 17.8108 51.9665 17.8108 51.8183V45.8998C17.8108 45.8482 17.7979 45.8047 17.7721 45.7692C17.7463 45.7338 17.7077 45.716 17.6561 45.716H17.5788C17.5273 45.716 17.4854 45.7338 17.4532 45.7692C17.421 45.8047 17.4049 45.8482 17.4049 45.8998V51.8183C17.4049 52.2244 17.4935 52.5065 17.6706 52.6644C17.8478 52.8224 18.12 52.9014 18.4872 52.9014H33.601C33.7556 52.9014 33.9312 52.882 34.1277 52.8433C34.3242 52.8047 34.4965 52.7208 34.6447 52.5919C34.7735 52.7208 34.9394 52.8047 35.1423 52.8433C35.3453 52.882 35.524 52.9014 35.6787 52.9014H38.1912C38.3458 52.9014 38.5214 52.882 38.7178 52.8433C38.9143 52.8047 39.0867 52.7208 39.2348 52.5919C39.3637 52.7208 39.5296 52.8047 39.7325 52.8433C39.9354 52.882 40.1142 52.9014 40.2688 52.9014H40.4718C40.7037 52.9014 40.9115 52.8756 41.0951 52.824C41.2787 52.7724 41.4252 52.6951 41.5348 52.5919C41.6829 52.7208 41.8424 52.8047 42.0131 52.8433C42.1838 52.882 42.3852 52.9014 42.6171 52.9014H42.8007C42.878 52.9014 42.9634 52.8965 43.0568 52.8869C43.1502 52.8772 43.2452 52.8611 43.3419 52.8385C43.4385 52.8159 43.5303 52.7837 43.6173 52.7418C43.7042 52.6999 43.7799 52.6499 43.8444 52.5919C43.9796 52.7208 44.1471 52.8047 44.3469 52.8433C44.5466 52.882 44.727 52.9014 44.888 52.9014H45.6514C45.8254 52.9014 46.0025 52.8965 46.1829 52.8869C46.3633 52.8772 46.4889 52.8562 46.5598 52.824C46.6371 52.7918 46.6887 52.7515 46.7144 52.7031C46.7402 52.6548 46.7595 52.5951 46.7724 52.5242C46.7788 52.4597 46.7853 52.3792 46.7917 52.2824C46.7982 52.1857 46.803 52.0858 46.8062 51.9827C46.8094 51.8795 46.8111 51.7796 46.8111 51.6829V45.9094C46.8111 45.8579 46.7966 45.8143 46.7676 45.7789C46.7386 45.7434 46.6983 45.7257 46.6468 45.7257ZM48.8887 45.716H48.8114C48.7599 45.716 48.7196 45.7338 48.6906 45.7692C48.6616 45.8047 48.6471 45.8482 48.6471 45.8998V52.7176C48.6471 52.7692 48.6616 52.8127 48.6906 52.8482C48.7196 52.8836 48.7599 52.9014 48.8114 52.9014H48.8887C48.9403 52.9014 48.9805 52.8836 49.0095 52.8482C49.0385 52.8127 49.053 52.7692 49.053 52.7176V45.8998C49.053 45.8482 49.0385 45.8047 49.0095 45.7692C48.9805 45.7338 48.9403 45.716 48.8887 45.716ZM53.5369 49.2458H53.4499C53.3984 49.2458 53.3581 49.2636 53.3291 49.299C53.3001 49.3345 53.2856 49.378 53.2856 49.4296V53.6557C53.2856 53.8878 53.2695 54.0731 53.2373 54.2117C53.2051 54.3504 53.1455 54.4567 53.0585 54.5309C52.9716 54.605 52.854 54.6518 52.7058 54.6711C52.5576 54.6905 52.3644 54.7001 52.126 54.7001C52.0938 54.7001 52.06 54.6985 52.0245 54.6953C51.9891 54.6921 51.9553 54.6905 51.9231 54.6905C51.8136 54.6905 51.7588 54.7291 51.7588 54.8065V54.9322C51.7588 54.9709 51.7685 54.9999 51.7878 55.0193C51.8071 55.0386 51.8522 55.0547 51.9231 55.0676C51.9746 55.0805 52.0374 55.0886 52.1115 55.0918C52.1856 55.095 52.2291 55.0966 52.242 55.0966C52.5899 55.0966 52.8637 55.0612 53.0634 54.9902C53.2631 54.9193 53.4177 54.8001 53.5272 54.6324C53.5981 54.5164 53.6432 54.3761 53.6625 54.2117C53.6818 54.0473 53.6915 53.8717 53.6915 53.6847V49.4296C53.6915 49.378 53.677 49.3345 53.648 49.299C53.619 49.2636 53.582 49.2458 53.5369 49.2458ZM69.1918 53.8491H69.1145C69.0565 53.8491 69.005 53.8684 68.9599 53.9071C68.9148 53.9458 68.8923 53.9974 68.8923 54.0619V54.3326C68.8923 54.3907 68.9148 54.439 68.9599 54.4777C69.005 54.5164 69.0565 54.5357 69.1145 54.5357H69.1918C69.2498 54.5357 69.2997 54.5164 69.3416 54.4777C69.3835 54.439 69.4044 54.3907 69.4044 54.3326V54.0619C69.4044 53.9974 69.3835 53.9458 69.3416 53.9071C69.2997 53.8684 69.2498 53.8491 69.1918 53.8491ZM67.8486 53.8491H67.7713C67.7133 53.8491 67.6634 53.8684 67.6215 53.9071C67.5796 53.9458 67.5587 53.9974 67.5587 54.0619V54.3326C67.5587 54.3907 67.5796 54.439 67.6215 54.4777C67.6634 54.5164 67.7133 54.5357 67.7713 54.5357H67.8486C67.9066 54.5357 67.9581 54.5164 68.0032 54.4777C68.0483 54.439 68.0709 54.3907 68.0709 54.3326V54.0619C68.0709 53.9974 68.0499 53.9458 68.008 53.9071C67.9662 53.8684 67.913 53.8491 67.8486 53.8491ZM72.5451 47.4858H72.6127C72.6771 47.4858 72.7303 47.4664 72.7722 47.4277C72.814 47.3891 72.835 47.3407 72.835 47.2827V47.0119C72.835 46.9474 72.814 46.8959 72.7722 46.8572C72.7303 46.8185 72.6804 46.7991 72.6224 46.7991H72.5451C72.4871 46.7991 72.4356 46.8185 72.3905 46.8572C72.3454 46.8959 72.3228 46.9474 72.3228 47.0119V47.2827C72.3228 47.3407 72.3438 47.3891 72.3856 47.4277C72.4275 47.4664 72.4807 47.4858 72.5451 47.4858ZM74.0236 52.5145C73.9849 52.4888 73.9398 52.4759 73.8883 52.4759H71.859C71.7494 52.4372 71.6448 52.3679 71.5449 52.2679C71.445 52.168 71.3581 52.0455 71.284 51.9005C71.2099 51.7554 71.1503 51.5926 71.1052 51.4121C71.0601 51.2316 71.0376 51.0414 71.0376 50.8415V50.6964C71.0376 50.1484 71.1922 49.7503 71.5014 49.5021C71.8106 49.2539 72.2165 49.1298 72.719 49.1298H72.9848C73.0589 49.1298 73.1329 49.133 73.207 49.1395C73.2811 49.1459 73.3584 49.1524 73.4389 49.1588C73.5195 49.1653 73.6177 49.1749 73.7337 49.1878C73.7788 49.1943 73.8271 49.1894 73.8786 49.1733C73.9302 49.1572 73.9559 49.1137 73.9559 49.0428V48.9654C73.9559 48.9009 73.9366 48.859 73.898 48.8397C73.8593 48.8203 73.8046 48.8042 73.7337 48.7913C73.6306 48.7784 73.5404 48.7671 73.4631 48.7575C73.3858 48.7478 73.3117 48.7414 73.2409 48.7381C73.17 48.7349 73.0927 48.7317 73.0089 48.7285C72.9252 48.7252 72.8285 48.7236 72.719 48.7236C72.4033 48.7236 72.1167 48.7671 71.859 48.8542C71.6013 48.9412 71.3822 49.0685 71.2018 49.2362C71.0215 49.4038 70.8813 49.6101 70.7815 49.8551C70.6816 50.1001 70.6317 50.3805 70.6317 50.6964V50.7932C70.6317 51.2187 70.6832 51.5684 70.7863 51.8424C70.8894 52.1164 71.0215 52.3276 71.1825 52.4759H69.7233C69.6589 52.4759 69.58 52.4726 69.4866 52.4662C69.3932 52.4597 69.3013 52.4452 69.2112 52.4227C69.121 52.4001 69.0404 52.3695 68.9696 52.3308C68.8987 52.2921 68.8536 52.2405 68.8343 52.1761V49.4296C68.8343 49.378 68.8198 49.3345 68.7908 49.299C68.7618 49.2636 68.7215 49.2458 68.67 49.2458H68.5927C68.5411 49.2458 68.5009 49.2636 68.4719 49.299C68.4429 49.3345 68.4284 49.378 68.4284 49.4296V52.089C68.4284 52.1793 68.3994 52.2486 68.3414 52.2969C68.2835 52.3453 68.211 52.384 68.124 52.413C68.037 52.442 67.9468 52.4597 67.8534 52.4662C67.76 52.4726 67.6811 52.4759 67.6167 52.4759H56.6872C56.5712 52.4759 56.4666 52.4694 56.3731 52.4565C56.2797 52.4436 56.2008 52.4146 56.1364 52.3695C56.072 52.3243 56.022 52.2583 55.9866 52.1712C55.9512 52.0842 55.9334 51.9665 55.9334 51.8183V45.8998C55.9334 45.8482 55.9206 45.8047 55.8948 45.7692C55.869 45.7338 55.8304 45.716 55.7788 45.716H55.7015C55.65 45.716 55.6081 45.7338 55.5759 45.7692C55.5437 45.8047 55.5276 45.8482 55.5276 45.8998V51.8183C55.5276 52.2244 55.6162 52.5065 55.7933 52.6644C55.9705 52.8224 56.2427 52.9014 56.6099 52.9014H67.5683C67.723 52.9014 67.8985 52.882 68.095 52.8433C68.2915 52.8047 68.4638 52.7208 68.612 52.5919C68.7409 52.7208 68.9068 52.8047 69.1097 52.8433C69.3126 52.882 69.4914 52.9014 69.646 52.9014H73.8883C73.9398 52.9014 73.9849 52.8901 74.0236 52.8675C74.0623 52.845 74.0816 52.8079 74.0816 52.7563V52.6306C74.0816 52.579 74.0623 52.5403 74.0236 52.5145ZM101.623 47.4858H101.7C101.758 47.4858 101.81 47.4664 101.855 47.4277C101.9 47.3891 101.922 47.3407 101.922 47.2827V47.0119C101.922 46.9474 101.901 46.8959 101.859 46.8572C101.818 46.8185 101.764 46.7991 101.7 46.7991H101.623C101.565 46.7991 101.515 46.8185 101.473 46.8572C101.431 46.8959 101.41 46.9474 101.41 47.0119V47.2827C101.41 47.3407 101.431 47.3891 101.473 47.4277C101.515 47.4664 101.565 47.4858 101.623 47.4858ZM102.966 47.4858H103.043C103.101 47.4858 103.151 47.4664 103.193 47.4277C103.235 47.3891 103.256 47.3407 103.256 47.2827V47.0119C103.256 46.9474 103.235 46.8959 103.193 46.8572C103.151 46.8185 103.101 46.7991 103.043 46.7991H102.966C102.908 46.7991 102.856 46.8185 102.811 46.8572C102.766 46.8959 102.744 46.9474 102.744 47.0119V47.2827C102.744 47.3407 102.766 47.3891 102.811 47.4277C102.856 47.4664 102.908 47.4858 102.966 47.4858ZM106.411 45.7789C106.382 45.7434 106.342 45.7257 106.29 45.7257H106.213C106.161 45.7257 106.121 45.7434 106.092 45.7789C106.063 45.8143 106.049 45.8579 106.049 45.9094V52.0987C106.049 52.189 106.044 52.2599 106.034 52.3115C106.024 52.363 106.003 52.4017 105.971 52.4275C105.939 52.4533 105.892 52.4678 105.831 52.471C105.77 52.4742 105.685 52.4759 105.575 52.4759H103.913V48.9847C103.913 48.9332 103.903 48.8961 103.884 48.8735C103.865 48.851 103.829 48.8332 103.778 48.8203C103.584 48.7688 103.38 48.7349 103.164 48.7188C102.948 48.7027 102.711 48.6946 102.454 48.6946C101.816 48.6946 101.326 48.8719 100.985 49.2265C100.643 49.5811 100.473 50.0517 100.473 50.6384V50.9189C100.473 51.2928 100.527 51.6087 100.637 51.8666C100.747 52.1245 100.904 52.3276 101.111 52.4759H96.8296C96.8553 52.4114 96.8763 52.3308 96.8924 52.2341C96.9085 52.1374 96.9214 52.0374 96.931 51.9343C96.9407 51.8311 96.9455 51.7264 96.9455 51.62V51.122C96.9455 50.2774 96.7313 49.6665 96.3029 49.2894C95.8745 48.9122 95.2512 48.7236 94.433 48.7236C94.3235 48.7236 94.1801 48.7317 94.003 48.7478C93.8258 48.7639 93.6358 48.7945 93.4328 48.8397C93.2299 48.8848 93.0253 48.9493 92.8192 49.0331C92.613 49.1169 92.423 49.2265 92.249 49.3619V45.9094C92.249 45.8579 92.2345 45.8143 92.2056 45.7789C92.1766 45.7434 92.1363 45.7257 92.0848 45.7257H92.0075C91.9559 45.7257 91.9156 45.7434 91.8867 45.7789C91.8577 45.8143 91.8432 45.8579 91.8432 45.9094V52.4759H80.6914C80.9813 52.334 81.2036 52.0939 81.3582 51.7554C81.5128 51.4169 81.5901 51.0414 81.5901 50.6288V50.4837C81.5901 49.8712 81.4114 49.4167 81.0538 49.1201C80.6963 48.8236 80.205 48.6753 79.5801 48.6753C79.1936 48.6753 78.8248 48.7317 78.4737 48.8445C78.1225 48.9573 77.8439 49.1137 77.6378 49.3135C77.5862 49.3651 77.5508 49.407 77.5315 49.4393C77.5121 49.4715 77.5025 49.5102 77.5025 49.5553V49.623C77.5025 49.6488 77.5089 49.6746 77.5218 49.7004L78.6138 52.4759H77.7972C77.6394 52.4759 77.525 52.4791 77.4542 52.4855C77.3833 52.4855 77.3366 52.5049 77.314 52.5436C77.2915 52.5822 77.2738 52.6306 77.2609 52.6886C77.2544 52.7273 77.248 52.7773 77.2416 52.8385C77.2351 52.8998 77.2303 52.9642 77.2271 53.0319C77.2238 53.0996 77.2222 53.1641 77.2222 53.2253V53.3752C77.2222 53.6847 77.2577 53.9619 77.3285 54.2069C77.3994 54.4519 77.5154 54.6598 77.6764 54.8307C77.8375 55.0015 78.0469 55.1337 78.3045 55.2272C78.5622 55.3207 78.8779 55.3674 79.2516 55.3674H79.353C79.4014 55.3674 79.4545 55.3642 79.5125 55.3577C79.5834 55.3513 79.6317 55.3344 79.6574 55.3062C79.6832 55.2779 79.6961 55.2385 79.6961 55.1885V55.1127C79.6961 55.0184 79.6284 54.9709 79.4932 54.9709H79.3869C78.7297 54.9709 78.2723 54.8363 78.0146 54.568C77.757 54.2988 77.6281 53.8894 77.6281 53.339C77.6281 53.2938 77.6297 53.2237 77.6329 53.1302C77.6362 53.036 77.641 52.9634 77.6474 52.9118C77.757 52.9054 77.8987 52.9022 78.0726 52.9022H105.295C105.469 52.9022 105.646 52.8973 105.826 52.8877C106.007 52.878 106.132 52.857 106.203 52.8248C106.281 52.7926 106.332 52.7523 106.358 52.7039C106.384 52.6556 106.403 52.5959 106.416 52.525C106.422 52.4605 106.429 52.38 106.435 52.2833C106.442 52.1865 106.446 52.0866 106.45 51.9835C106.453 51.8803 106.454 51.7804 106.454 51.6837V45.9102C106.454 45.8587 106.44 45.8152 106.411 45.7797V45.7789ZM79.9473 52.4759H79.0776L77.9083 49.5569C78.063 49.4409 78.2208 49.3482 78.3819 49.2805C78.5429 49.2128 78.6975 49.1644 78.8457 49.1346C78.9939 49.1056 79.1308 49.0879 79.2564 49.0814C79.382 49.075 79.4899 49.0718 79.5801 49.0718C80.0762 49.0718 80.4676 49.1838 80.7542 49.4062C81.0409 49.6294 81.1843 49.9865 81.1843 50.4781V50.5949C81.1843 51.0607 81.0748 51.4645 80.8557 51.807C80.6367 52.1495 80.3339 52.3727 79.9473 52.4759ZM96.5397 51.5281C96.5397 51.7344 96.5348 51.8988 96.5252 52.0213C96.5155 52.1438 96.501 52.2389 96.4817 52.3066C96.4623 52.3743 96.435 52.4194 96.3995 52.442C96.3641 52.4646 96.3206 52.4759 96.2691 52.4759H92.7467C92.6597 52.4759 92.576 52.4742 92.4955 52.471C92.4149 52.4678 92.3328 52.4662 92.249 52.4662V49.7487C92.4037 49.6262 92.584 49.5263 92.7902 49.4489C92.9964 49.3716 93.2009 49.3103 93.4038 49.2652C93.6068 49.22 93.7968 49.1894 93.974 49.1733C94.1511 49.1572 94.2848 49.1491 94.375 49.1491C94.7165 49.1491 95.0225 49.1798 95.2931 49.241C95.5636 49.3023 95.7907 49.4135 95.9743 49.5746C96.1579 49.7358 96.2981 49.9518 96.3947 50.2226C96.4913 50.4934 96.5397 50.8415 96.5397 51.267V51.5281ZM103.507 52.4759H102.357C101.855 52.4759 101.483 52.3389 101.241 52.0641C100.999 51.7892 100.879 51.3968 100.879 50.8858V50.6336C100.879 50.1227 101.014 49.7382 101.284 49.4795C101.555 49.2209 101.945 49.0919 102.454 49.0919C102.673 49.0919 102.861 49.0951 103.019 49.1016C103.177 49.108 103.34 49.1242 103.507 49.1499V52.4767V52.4759Z" fill="#262626"/>
</svg>
