<svg xmlns="http://www.w3.org/2000/svg" height="800" width="1200" viewBox="-93.74805 -125 812.4831 750"><path d="M312.37 464.706c-117.362 0-214.702-97.34-214.702-214.702 0-6.103.28-12.15.796-18.133l179.647 11.21-77.701 53.681a4.082 4.082 0 00-1.745 3.338 4.074 4.074 0 004.071 4.071H519.99c-24.395 91.693-108.924 160.535-207.62 160.535m0-429.412c117.362 0 214.703 97.348 214.703 214.71 0 6.055-.267 12.062-.78 18.005L346.82 256.601l77.878-53.363a4.063 4.063 0 001.744-3.338c0-2.247-1.817-4.072-4.055-4.072H104.75c24.403-91.692 108.924-160.534 207.62-160.534m307.924 238.69l-58.74-3.736c.534-6.676.82-13.432.82-20.244C562.373 111.928 450.445 0 312.368 0 192.905 0 93.022 83.805 68.277 195.828H22.148a9.36 9.36 0 00-7.433 3.665L.988 218.447A4.674 4.674 0 000 221.323a4.686 4.686 0 004.693 4.692l58.51 3.65a252.44 252.44 0 00-.83 20.339C62.374 388.072 174.303 500 312.37 500c119.466 0 219.348-83.805 244.101-195.829h46.36a9.35 9.35 0 007.434-3.664L624 281.553a4.69 4.69 0 00-3.705-7.569" fill="#1a171b"/></svg>