<svg xmlns="http://www.w3.org/2000/svg" height="800" width="1200" viewBox="-50.0862 -41.8675 434.0804 251.205"><path d="M157.744 167.349c-11.073-.292-23.284-1.267-34.093-2.721-46.02-6.191-84.582-21.972-106.05-43.397C8.497 112.146 2.728 102.163.783 92.13.149 88.862 0 87.26 0 83.736c0-3.525.15-5.126.783-8.394 1.279-6.596 4.316-13.396 8.797-19.699C19.716 41.39 37.5 28.7 60.834 19.073 99.726 3.024 150.65-3.333 200.238 1.67c58.213 5.872 106.1 27.115 125.103 55.494 8.687 12.974 10.815 27.066 6.167 40.838-2.684 7.953-7.899 15.901-15.24 23.228-20.34 20.3-56.138 35.608-99.105 42.38-19.216 3.03-39.027 4.275-59.42 3.738zm25.387-10.712c23.3-1.442 42.976-4.867 62.15-10.818 15.213-4.722 29.393-11.258 40.28-18.568 5.487-3.683 9.293-6.792 13.597-11.106 5.112-5.123 8.41-9.618 11.096-15.12 3.004-6.156 4.168-10.981 4.168-17.29 0-6.344-1.24-11.426-4.283-17.561-2.631-5.305-5.988-9.844-10.98-14.848-7.333-7.348-16.044-13.409-27.556-19.172-21.551-10.788-48.515-17.846-78.553-20.562-16.638-1.504-35.54-1.505-52.231-.002-42.231 3.803-78.483 16.339-100.914 34.896-2.845 2.354-7.916 7.474-10.042 10.14-7.601 9.528-11.19 19.81-10.372 29.716.89 10.794 5.751 20.312 15.22 29.803 7.172 7.19 15.7 13.166 26.79 18.774 25.255 12.77 56.287 20.088 92.785 21.882 4.122.203 24.828.085 28.845-.163zM64.747 126.061c-.2-.084-.528-.334-.728-.556-.361-.402-.364-.694-.41-39.368l-.047-38.964-.482-.503c-.456-.476-.582-.506-2.32-.554l-1.837-.052V41.15l13.225-.046 13.224-.047.561.472.562.473v14.047c0 15.434-.042 14.856 1.068 14.856.689 0 .927-.287 4.764-5.732C102.49 50.747 108.08 42.9 108.585 42.356c1.242-1.342.679-1.288 13.543-1.293l11.519-.004.439.44c.54.54.743 1.276.498 1.803-.156.334-5.14 7.735-22.544 33.475-1.9 2.81-2.431 3.726-2.427 4.186.005.477 1.241 2.332 6.518 9.78 23.32 32.911 23.395 33.019 23.467 33.684.054.5-.036.777-.385 1.183l-.455.53-12.03.049c-11.862.048-12.043.044-12.916-.332-.487-.21-1.089-.6-1.337-.868s-5.732-7.9-12.186-16.958c-6.454-9.058-11.866-16.578-12.026-16.71-.448-.372-1.27-.195-1.534.331-.179.356-.23 4.064-.231 16.96l-.003 16.506-.44.51-.439.511-10.252.037c-5.64.02-10.417-.032-10.617-.115zm91.354-.082c-.302-.133-.65-.463-.773-.732-.174-.382-.223-9.04-.223-39.259V47.22l-.532-.532c-.514-.514-.591-.532-2.275-.532h-1.743V41.06h26.929l.594.531.595.531v83.009l-.505.505-.504.504-10.506.041c-8.415.033-10.616-.008-11.057-.201zm39.133.032c-.566-.325-.807-.73-.814-1.364-.003-.32 2.58-8.306 5.741-17.744l11.171-33.359a9745.82 9745.82 0 016.993-20.822c.862-2.544 1.568-4.848 1.568-5.121 0-.273-.156-.689-.347-.925-.311-.385-.533-.44-2.138-.52l-1.792-.092-.05-2.502-.05-2.503 16.156.002c10.606 0 16.39.066 16.837.19.374.104.77.358.881.564.228.425 2.04 5.782 10.579 31.276 13.892 41.473 17.069 51.046 17.069 51.437 0 .64-.36 1.28-.848 1.501-.308.14-3.538.202-10.58.202-9.292 0-10.19-.027-10.762-.318-.343-.175-.774-.524-.959-.776-.184-.251-1.595-4.387-3.137-9.19-14.69-45.785-14.284-44.536-14.614-44.904-.365-.406-.643-.403-1.02.014-.3.332-.866 2.072-8.853 27.239a12410.7 12410.7 0 01-5.555 17.471c-.737 2.302-1.68 5.27-2.098 6.597-.82 2.608-1.184 3.23-2.11 3.616-.8.335-20.69.364-21.268.032z" fill="#c41230"/></svg>