<svg width="164" height="164" viewBox="0 0 164 164" fill="none" xmlns="http://www.w3.org/2000/svg">
<path d="M163.251 73.3409C163.641 70.5084 162.446 67.8555 160.363 66.5281C157.58 64.7567 153.446 65.4814 151.079 68.5926L146.953 73.9602C145.456 76.4851 141.177 78.915 141.177 78.915L133.338 82.8375C126.27 85.2613 122.611 90.0633 122.611 90.0633C120.975 97.545 117.437 104.447 112.296 110.089C106.173 116.807 98.0923 121.39 89.1906 123.302C84.9079 127.684 79.4947 138.992 79.4947 138.992C78.9253 143.893 73.5121 147.663 73.5121 147.663C71.6554 148.901 69.7988 150.14 67.9421 151.379C65.0705 153.588 64.2246 157.407 65.6728 160.256C67.3872 163.627 72.0268 165.093 75.7813 162.94L77.638 162.114C80.3694 161.131 83.4143 162.733 83.4143 162.733C114.718 168.047 119.104 147.25 119.104 147.25C120.057 145.262 121.707 144.333 123.12 143.901C123.958 143.645 124.82 143.498 125.705 143.534C127.778 143.304 129.808 143.032 131.894 142.708C135.164 142.198 137.429 141.676 139.321 139.817C141.338 137.838 141.891 135.354 142.415 131.56C142.654 129.825 142.856 128.132 143.034 126.398C142.774 122.11 146.747 119.585 146.747 119.585L150.461 117.727C167.22 108.487 162.219 83.4569 162.219 83.4569C160.825 81.5431 161.807 78.2957 161.807 78.2957C162.287 76.6441 162.77 74.9925 163.251 73.3409ZM71.8617 160.256C70.0381 160.256 68.561 158.869 68.561 157.159C68.561 155.45 70.0381 154.062 71.8617 154.062C73.6854 154.062 75.1625 155.45 75.1625 157.159C75.1625 158.869 73.6854 160.256 71.8617 160.256ZM134.885 138.579C133.119 138.579 131.688 137.191 131.688 135.482C131.688 133.773 133.119 132.385 134.885 132.385C136.651 132.385 138.083 133.773 138.083 135.482C138.083 137.191 136.651 138.579 134.885 138.579ZM156.753 75.1989C154.987 75.1989 153.555 73.7662 153.555 71.999C153.555 70.2318 154.987 68.799 156.753 68.799C158.518 68.799 159.95 70.2318 159.95 71.999C159.95 73.7662 158.518 75.1989 156.753 75.1989Z" fill="#628F15"/>
<path fill-rule="evenodd" clip-rule="evenodd" d="M59.8966 119.585C40.0385 115.659 17.8122 130.114 17.8122 130.114C35.1906 151.789 60.1029 157.159 60.1029 157.159C59.0177 149.725 68.3547 143.946 68.3547 143.946C73.6648 141.622 74.3373 137.34 74.3373 137.34L81.145 123.921C71.0365 125.16 59.8966 119.585 59.8966 119.585Z" fill="#383838"/>
<path fill-rule="evenodd" clip-rule="evenodd" d="M35.5536 82.6311C35.5536 82.6311 28.5396 63.3281 5.02183 51.2509C0.671048 63.0618 -0.888551 75.7047 0.483318 88.2052C1.94596 101.542 6.70108 114.298 14.3052 125.366C17.7441 123.035 21.3749 121.057 25.1543 119.367C31.8135 116.386 40.9421 113.444 50.8195 113.598C50.8195 113.598 37.563 102.966 35.5536 82.6311Z" fill="#383838"/>
<path fill-rule="evenodd" clip-rule="evenodd" d="M67.3232 0.877258C21.2656 9.03199 7.49738 45.8831 7.49738 45.8831C27.3513 55.2766 36.1725 71.8957 36.1725 71.8957C39.7827 52.4895 54.9455 42.9929 54.9455 42.9929C68.3011 28.335 67.3232 0.877258 67.3232 0.877258Z" fill="#383838"/>
<path fill-rule="evenodd" clip-rule="evenodd" d="M132.1 19.2512C115.745 5.1136 94.3666 -1.42051 72.8932 0.257924C70.2114 12.7832 67.5295 25.3064 64.8477 37.8316C77.7082 33.5292 91.9178 35.0219 103.425 42.3735C116.591 50.7863 124.294 65.6444 124.055 81.3924L138.289 73.7538C141.33 72.6183 142.415 70.657 142.415 70.657C146.308 64.4119 149.97 61.7281 152.658 60.605C154.031 60.0311 155.552 59.9258 157.062 59.9217C153.006 44.1015 144.414 29.8937 132.1 19.2512Z" fill="#383838"/>
<path d="M79.7526 42.9929C59.2158 42.9929 42.5677 59.6533 42.5677 80.2053C42.5677 100.757 59.2158 117.418 79.7526 117.418C100.289 117.418 116.937 100.757 116.937 80.2053C116.937 59.6533 100.289 42.9929 79.7526 42.9929ZM85.993 51.4573C88.8977 51.4573 91.2536 53.9058 91.2536 56.9282C91.2536 59.9506 88.8977 62.3991 85.993 62.3991C83.0884 62.3991 80.7325 59.9506 80.7325 56.9282C80.7325 53.9058 83.0884 51.4573 85.993 51.4573ZM56.4927 91.9213C53.588 91.9213 51.2321 89.4728 51.2321 86.4504C51.2321 83.428 53.588 80.9795 56.4927 80.9795C59.3973 80.9795 61.7532 83.428 61.7532 86.4504C61.7532 89.4728 59.3973 91.9213 56.4927 91.9213ZM57.6273 63.3281C57.6273 60.3057 59.9832 57.8572 62.8879 57.8572C65.7925 57.8572 68.1484 60.3057 68.1484 63.3281C68.1484 66.3505 65.7925 68.799 62.8879 68.799C59.9832 68.799 57.6273 66.3505 57.6273 63.3281ZM73.409 108.85C70.5043 108.85 68.1484 106.402 68.1484 103.379C68.1484 100.357 70.5043 97.9083 73.409 97.9083C76.3136 97.9083 78.6695 100.357 78.6695 103.379C78.6695 106.402 76.3136 108.85 73.409 108.85ZM79.701 93.7793C72.1815 93.7793 66.0854 87.6787 66.0854 80.1537C66.0854 72.6286 72.1815 66.528 79.701 66.528C87.2205 66.528 93.3165 72.6286 93.3165 80.1537C93.3165 87.6787 87.2205 93.7793 79.701 93.7793ZM96.7204 102.657C93.8158 102.657 91.4599 100.208 91.4599 97.1857C91.4599 94.1633 93.8158 91.7148 96.7204 91.7148C99.625 91.7148 101.981 94.1633 101.981 97.1857C101.981 100.208 99.625 102.657 96.7204 102.657ZM102.909 79.3279C100.005 79.3279 97.6487 76.8794 97.6487 73.857C97.6487 70.8346 100.005 68.3861 102.909 68.3861C105.814 68.3861 108.17 70.8346 108.17 73.857C108.17 76.8794 105.814 79.3279 102.909 79.3279Z" fill="#38510C"/>
<path d="M108.067 108.54C123.904 92.6916 123.904 66.9967 108.067 51.1485C92.2308 35.3004 66.555 35.3004 50.7186 51.1485C34.8822 66.9967 34.8822 92.6916 50.7186 108.54C66.555 124.388 92.2308 124.388 108.067 108.54Z" stroke="#38510C" stroke-width="2" stroke-miterlimit="100"/>
</svg>
