<svg width="135" height="135" viewBox="0 0 135 135" fill="none" xmlns="http://www.w3.org/2000/svg">
<g clip-path="url(#clip0_4070_7206)">
<path d="M83.5815 87.0153C103.21 87.0153 119.179 71.0464 119.179 51.4181C119.179 31.7898 103.21 15.821 83.5815 15.821C63.9533 15.821 47.9844 31.7898 47.9844 51.4181C47.9844 71.0464 63.953 87.0153 83.5815 87.0153ZM83.5815 23.7314C98.848 23.7314 111.268 36.1517 111.268 51.4181C111.268 66.6846 98.848 79.1048 83.5815 79.1048C68.3151 79.1048 55.8949 66.6846 55.8949 51.4181C55.8949 36.1517 68.3148 23.7314 83.5815 23.7314Z" fill="#628F15"/>
<path d="M72.8743 62.1255C74.4187 63.6701 76.9232 63.6704 78.4678 62.1255L83.5817 57.0116L88.6955 62.1255C90.2399 63.6701 92.7444 63.6704 94.289 62.1255C95.8337 60.5808 95.8337 58.0766 94.289 56.532L89.1752 51.4181L94.289 46.3043C95.8337 44.7596 95.8337 42.2554 94.289 40.7108C92.7446 39.1661 90.2402 39.1661 88.6955 40.7108L83.5817 45.8246L78.4678 40.7108C76.9234 39.1661 74.419 39.1661 72.8743 40.7108C71.3297 42.2554 71.3297 44.7596 72.8743 46.3043L77.9882 51.4181L72.8743 56.532C71.3297 58.0766 71.3297 60.5808 72.8743 62.1255Z" fill="#628F15"/>
<path d="M3.46973 131.53C8.09605 136.156 15.6237 136.156 20.2502 131.53L56.6068 95.1736C64.4537 100.029 73.6956 102.836 83.5818 102.836C111.934 102.836 135 79.7701 135 51.4181C135 23.0662 111.934 0 83.5818 0C55.2299 0 32.1637 23.0662 32.1637 51.4181C32.1637 61.3044 34.9709 70.5462 39.8263 78.3931L3.46973 114.749C-1.15658 119.376 -1.15658 126.904 3.46973 131.53ZM83.5818 7.91048C107.572 7.91048 127.089 27.428 127.089 51.4181C127.089 75.4082 107.572 94.9258 83.5818 94.9258C59.5917 94.9258 40.0742 75.4082 40.0742 51.4181C40.0742 27.428 59.5914 7.91048 83.5818 7.91048ZM9.06324 120.343L44.5523 84.8539C46.2715 86.8579 48.1421 88.7282 50.1461 90.4476L14.657 125.937C13.1147 127.479 10.6058 127.479 9.0635 125.937C7.52122 124.394 7.52122 121.885 9.06324 120.343Z" fill="#628F15"/>
</g>
<defs>
<clipPath id="clip0_4070_7206">
<rect width="135" height="135" fill="white"/>
</clipPath>
</defs>
</svg>
