<svg width="24" height="18" viewBox="0 0 24 18" fill="none" xmlns="http://www.w3.org/2000/svg">
<rect width="24" height="17.1429" rx="3.42857" fill="#249F58"/>
<path fill-rule="evenodd" clip-rule="evenodd" d="M18.2889 11.4286V10.2857H5.71747L8.00319 11.4286H14.8603C14.8603 12.0594 15.6283 12.5714 16.5746 12.5714C17.5209 12.5714 18.2889 12.0594 18.2889 11.4286ZM9.98033 4.46402C9.96662 4.46402 9.94605 4.47088 9.91976 4.48688C9.85805 4.52802 9.7369 4.65488 9.73233 4.80116C9.7289 4.88459 9.7129 4.88459 9.76662 4.93831C9.80547 4.99316 9.84662 4.98859 9.92433 4.94631C9.97005 4.91202 9.9849 4.89259 10.0009 4.83659C10.0192 4.74516 9.90147 4.88231 9.88662 4.77716C9.86033 4.68116 9.93576 4.64002 10.0066 4.54859C10.0089 4.50288 10.0089 4.46859 9.98033 4.46631V4.46402ZM11.1266 4.46973C11.1038 4.47431 11.0775 4.50402 11.0398 4.57031C11.0135 4.64116 10.898 4.74859 10.9826 4.97031C11.0489 5.11088 11.0775 5.33831 11.0466 5.59316C10.9986 5.66516 10.9895 5.69031 10.9266 5.76231C10.8398 5.85716 10.7438 5.83316 10.6729 5.79659C10.6043 5.75088 10.5518 5.72802 10.5209 5.58402C10.5266 5.35545 10.5403 4.97602 10.498 4.89602C10.4363 4.77259 10.3335 4.81602 10.29 4.85373C10.0809 5.04802 9.9769 5.37145 9.9129 5.63088C9.85576 5.81831 9.7929 5.76345 9.74947 5.68802C9.64319 5.58745 9.63519 4.80802 9.50719 4.93716C9.30147 5.52459 9.6249 6.16802 9.85005 6.10516C10.01 6.17373 10.1129 5.86516 10.1792 5.52802C10.2249 5.43316 10.2592 5.42173 10.282 5.47088C10.2763 5.91888 10.3163 6.01945 10.4306 6.15431C10.6866 6.35316 10.8992 6.17945 10.9163 6.16345L11.1163 5.96459C11.162 5.91888 11.2192 5.91431 11.282 5.95545C11.3438 6.01259 11.3358 6.10745 11.4649 6.17259C11.5769 6.21831 11.8112 6.18402 11.8649 6.08916C11.9392 5.96345 11.9563 5.92002 11.9906 5.87202C12.0432 5.80345 12.1335 5.83431 12.1335 5.85602C12.1255 5.89602 12.0729 5.93602 12.1083 6.00459C12.1712 6.05031 12.186 6.02059 12.2226 6.01031C12.3529 5.94859 12.4512 5.66516 12.4512 5.66516C12.4569 5.56002 12.3975 5.56802 12.3598 5.58973C12.3083 5.62059 12.306 5.63088 12.2569 5.66173C12.1918 5.67088 12.0683 5.71316 12.0078 5.61831C11.9449 5.50402 11.9449 5.34631 11.8969 5.22973C11.8969 5.22288 11.8135 5.05031 11.89 5.04002C11.9278 5.04688 12.0123 5.06859 12.0249 4.99888C12.066 4.93031 11.9369 4.73602 11.8489 4.64002C11.7735 4.55659 11.6683 4.54631 11.5666 4.63088C11.4946 4.69716 11.506 4.77031 11.4912 4.84002C11.474 4.92002 11.4775 5.01945 11.5598 5.12573C11.6306 5.26516 11.7598 5.44573 11.7163 5.69945C11.7163 5.69945 11.642 5.82059 11.5106 5.80459C11.4535 5.79316 11.3643 5.77031 11.3163 5.41602C11.282 5.14973 11.3255 4.77602 11.2135 4.60116C11.1872 4.53602 11.1655 4.47202 11.1289 4.47545L11.1266 4.46973ZM10.7632 4.49945C10.7289 4.50288 10.6912 4.54288 10.6603 4.61945C10.634 4.67888 10.6009 4.98516 10.6066 4.98516C10.5838 5.07659 10.7015 5.11545 10.7552 4.99888C10.8352 4.78173 10.8352 4.69031 10.8398 4.60116C10.8283 4.53259 10.7975 4.49831 10.7632 4.50059V4.49945ZM12.1038 4.52231C12.0695 4.52688 12.0409 4.54745 12.0306 4.60002C12.0158 4.72116 12.0238 4.78859 12.0443 4.89031C12.0592 4.95888 12.1586 5.07088 12.2066 5.13716C12.4386 5.44916 12.6638 5.76231 12.8786 6.08573C12.9129 6.32802 12.9358 6.56345 12.9529 6.79888C12.9895 7.31316 12.9986 7.95316 12.9678 8.49602C13.0638 8.49945 13.2192 8.33945 13.2729 8.10745C13.3072 7.78288 13.2615 7.12459 13.2569 6.93259L13.2455 6.66059C13.4969 7.07202 13.7392 7.50631 13.9769 7.98173C14.0649 7.94059 14.0455 7.45031 13.9952 7.38173C13.8032 6.97031 13.538 6.56345 13.4546 6.40688C13.4238 6.34973 13.3198 6.19316 13.1975 6.01145C13.1746 5.75088 13.1495 5.53145 13.1335 5.46516C13.0935 5.19088 13.2455 5.49602 13.2249 5.33716C13.1746 5.06288 13.0238 4.87773 12.8455 4.62631C12.7883 4.54631 12.7883 4.52802 12.7003 4.64688C12.6489 4.76688 12.6489 4.86745 12.666 4.96116C12.6409 4.92688 12.6123 4.88802 12.5712 4.83773L12.2798 4.59088C12.2398 4.56231 12.162 4.51888 12.1038 4.52231V4.52231ZM16.0763 4.56459C16.0592 4.56231 16.042 4.57031 16.0192 4.60116C15.9792 4.63545 15.9369 4.70059 15.9392 4.78402C15.9472 4.92688 15.9735 5.07431 15.9826 5.21831L15.994 5.27545C15.978 5.25716 15.9643 5.24116 15.9563 5.23431C15.674 4.93716 16.0855 5.18402 15.9015 4.95659C15.7472 4.78516 15.7015 4.73259 15.57 4.62973C15.5015 4.58859 15.4626 4.50631 15.4409 4.64573C15.4318 4.76802 15.4226 4.91088 15.4295 5.01373C15.4295 5.07088 15.49 5.17945 15.5415 5.24231C15.7289 5.47431 15.9209 5.72002 16.1129 5.97602C16.154 6.49831 16.1643 6.97716 16.2043 7.50059C16.1998 7.72459 16.1312 8.02173 16.0672 8.04916C16.0672 8.04916 15.9666 8.10631 15.9003 8.04345C15.8512 8.02402 15.658 7.72002 15.658 7.72002C15.5586 7.62859 15.4923 7.65488 15.4226 7.72002C15.2283 7.90745 15.1392 8.25945 15.0078 8.50173C14.9735 8.55545 14.8786 8.60231 14.7723 8.49716C14.5015 8.12688 14.658 7.60002 14.626 7.73602C14.386 8.00802 14.4912 8.45831 14.546 8.55545C14.626 8.71545 14.69 8.81831 14.8432 8.89488C14.986 8.99773 15.0946 8.93488 15.1563 8.86059C15.298 8.71431 15.3003 8.33831 15.3666 8.26402C15.4123 8.12688 15.53 8.14973 15.5872 8.21145C15.6443 8.29145 15.7083 8.34288 15.7895 8.38631C15.922 8.50288 16.0798 8.52345 16.2352 8.41716C16.3415 8.35773 16.4112 8.28002 16.4729 8.12688C16.5415 7.94859 16.5072 7.01145 16.4923 6.49031L16.7895 6.92002C16.8306 7.37716 16.85 7.82859 16.8352 8.26059C16.826 8.34631 17.1358 8.00459 17.1323 7.84231C17.1323 7.70173 17.1346 7.57259 17.1323 7.45373C17.2843 7.69373 17.4295 7.93716 17.5666 8.18516C17.6523 8.13945 17.6238 7.65602 17.57 7.59088C17.426 7.34859 17.2409 7.08802 17.098 6.88459C17.0695 6.62973 17.0318 6.32916 17.0135 6.23659C16.9872 6.09259 16.9598 5.87659 16.9186 5.70631C16.9072 5.64116 16.8729 5.42859 16.8843 5.40916C16.9003 5.36002 16.9643 5.40916 16.9952 5.35431C17.0409 5.30288 16.8329 4.76002 16.7266 4.60688C16.6889 4.53831 16.6192 4.56116 16.5346 4.67545C16.4546 4.74859 16.4843 4.91773 16.514 5.07888C16.5918 5.49031 16.6626 5.90631 16.7175 6.32459C16.6146 6.17031 16.4889 5.98516 16.3655 5.80802L16.3495 5.72802C16.3495 5.71888 16.3335 5.39088 16.3186 5.31316C16.3152 5.28116 16.3072 5.27202 16.3415 5.27659C16.3758 5.30631 16.3803 5.30745 16.402 5.31773C16.4386 5.32231 16.4706 5.26288 16.4478 5.20688L16.1163 4.59659C16.1049 4.58173 16.0889 4.56802 16.0706 4.56573L16.0763 4.56459ZM5.8249 4.57602C5.76205 4.57373 5.69576 4.61031 5.72205 4.68459C5.70605 4.72459 5.8409 4.85945 5.8649 4.93373C5.88433 4.98745 5.84205 5.15659 5.88776 5.17373C5.92776 5.19088 5.98376 5.05488 6.00433 4.93031C6.01576 4.86173 6.00776 4.62631 5.84776 4.57831C5.83976 4.57602 5.83176 4.57602 5.82262 4.57488L5.8249 4.57602ZM17.5049 4.57602C17.49 4.57831 17.4729 4.59888 17.4478 4.65602C17.3849 4.75888 17.3632 4.94173 17.3883 5.10173C17.5369 6.11888 17.6512 7.10402 17.674 8.00459C17.6603 8.09145 17.6558 8.13716 17.6169 8.24459C17.5278 8.35888 17.4295 8.50059 17.3369 8.56916C17.2455 8.63773 17.0489 8.70402 16.9849 8.75431C16.7792 8.87088 16.7792 9.00573 16.9438 9.01145C17.2272 8.97716 17.5632 8.95431 17.794 8.60573C17.8558 8.50859 17.9289 8.24345 17.9312 8.08002C17.954 7.13145 17.9198 6.20002 17.7769 5.51316C17.7678 5.44459 17.738 5.29259 17.7495 5.27316C17.7666 5.22516 17.8592 5.27659 17.8923 5.22288C17.9415 5.17259 17.6523 4.80345 17.5518 4.64573C17.5312 4.60688 17.5175 4.57373 17.5015 4.57716L17.5049 4.57602ZM14.53 4.59202C14.5186 4.59431 14.5026 4.61259 14.4706 4.65488C14.3906 4.91316 14.3632 5.12345 14.394 5.28573C14.5998 6.34859 14.8055 7.31431 14.7735 8.32573C14.8695 8.32573 14.9815 8.10516 15.0295 7.88573C15.0558 7.58288 15.0112 7.39888 15.0043 7.22288C14.9963 7.04459 14.8032 5.60459 14.7643 5.47088C14.7163 5.21716 14.9518 5.43659 14.9266 5.29031C14.8443 5.10288 14.6409 4.83316 14.5792 4.66973C14.5563 4.62631 14.5518 4.58631 14.5335 4.58973L14.53 4.59202ZM7.29119 4.61259C7.26833 4.61716 7.24205 4.63773 7.23405 4.66973C7.22833 4.69259 7.24319 4.73031 7.22262 4.74173C7.21119 4.75316 7.16776 4.74516 7.17005 4.68459C7.17005 4.66402 7.15519 4.64345 7.14719 4.63088C7.13805 4.62631 7.13233 4.62516 7.11633 4.62516C7.0969 4.62516 7.0969 4.63088 7.08662 4.64802C7.08205 4.66402 7.07519 4.68002 7.07519 4.69831C7.0729 4.72116 7.06376 4.72688 7.0489 4.73031C7.03062 4.73031 7.03405 4.73259 7.02033 4.72231C7.0089 4.71431 6.99976 4.71088 6.99976 4.69488C6.99976 4.67773 6.99519 4.64916 6.99062 4.64002C6.98262 4.62859 6.97005 4.62402 6.95633 4.62059C6.8809 4.62059 6.87633 4.70973 6.87976 4.74173C6.87405 4.74859 6.87176 4.90173 6.97462 4.94516C7.11176 5.01145 7.37233 4.98288 7.36319 4.76002C7.36319 4.74059 7.35747 4.67431 7.35519 4.65716C7.34147 4.62288 7.31519 4.61145 7.29005 4.61488L7.29119 4.61259ZM9.14947 4.61488C9.10147 4.61716 9.05805 4.63088 9.02376 4.64916C8.93233 4.73716 8.90947 4.87773 8.98262 4.96573C9.05119 5.00002 9.12319 5.06859 9.07633 5.10859C8.87747 5.32002 8.35976 5.67545 8.33347 5.74059V5.74745H8.33805V5.74973C8.36433 5.76688 8.6889 5.76688 8.72433 5.74973H8.72662C8.83862 5.70745 9.36662 5.10402 9.36662 5.10402C9.33919 5.08116 9.31405 5.06288 9.28662 5.03888C9.2569 5.01373 9.26033 4.98859 9.28662 4.96345C9.4169 4.88802 9.37576 4.72002 9.30719 4.64345C9.25005 4.61831 9.19747 4.60916 9.14947 4.61259V4.61488ZM14.0066 4.61488C13.9929 4.61831 13.9758 4.63773 13.9495 4.69488C13.8866 4.79773 13.8443 4.97488 13.85 5.14059C13.9849 6.07773 14.026 6.89716 14.1152 7.83431C14.122 7.92573 14.1083 8.05602 14.0489 8.10859C13.8249 8.34173 13.5038 8.62745 13.154 8.76002C13.1163 8.80231 13.2478 8.98173 13.4169 8.98173C13.7003 8.94745 13.9495 8.78973 14.1826 8.37031C14.2432 8.27316 14.3518 8.06402 14.354 7.90173C14.3769 6.95088 14.3083 6.21031 14.1643 5.52459C14.1563 5.45602 14.162 5.37602 14.1735 5.35773C14.1918 5.33488 14.2535 5.35773 14.2878 5.30402C14.3358 5.25373 14.1575 4.84345 14.0569 4.68688C14.0363 4.64688 14.0249 4.61488 14.0066 4.61602V4.61488ZM6.48205 4.64573C6.44319 4.65031 6.40662 4.68002 6.38833 4.72573C6.38262 4.87431 6.38147 5.02288 6.39976 5.16231C6.46833 5.40573 6.48776 5.61945 6.5209 5.86745C6.53233 6.20116 6.3289 6.01145 6.33805 5.84688C6.38376 5.63202 6.37233 5.29488 6.33119 5.20916C6.2969 5.12345 6.26033 5.10288 6.18033 5.11773C6.11747 5.11316 5.95405 5.28916 5.90833 5.58631C5.90833 5.58631 5.86947 5.73716 5.85347 5.87202C5.83062 6.02402 5.73005 6.13259 5.65919 5.85145C5.59862 5.64573 5.56205 5.14288 5.46033 5.25945C5.43062 5.65259 5.39633 6.34516 5.73005 6.41602C6.13462 6.45488 5.91062 5.73259 6.0569 5.60116C6.08547 5.53831 6.1369 5.53716 6.14033 5.61831V6.23202C6.13576 6.43088 6.26605 6.49031 6.3689 6.53145C6.47519 6.52345 6.5449 6.52688 6.58605 6.62973L6.63747 7.69259C6.63747 7.69259 6.88205 7.76116 6.89347 7.09488C6.9049 6.70288 6.81347 6.37488 6.86719 6.29831C6.86947 6.22288 6.96547 6.21831 7.03176 6.25602C7.13805 6.33031 7.1849 6.42173 7.34947 6.38516C7.6009 6.31659 7.74947 6.19545 7.7529 6.00345C7.74147 5.82059 7.71862 5.63773 7.63862 5.45488C7.65005 5.42288 7.5929 5.33716 7.60433 5.30402C7.64776 5.37259 7.71633 5.36802 7.73005 5.30402C7.6889 5.16345 7.62262 5.02973 7.51519 4.97259C7.42719 4.89259 7.29805 4.90973 7.25005 5.07202C7.22719 5.25945 7.31862 5.48116 7.45576 5.66288C7.48319 5.73373 7.52433 5.85145 7.50605 5.95773C7.43405 5.99888 7.36205 5.98059 7.30033 5.91773C7.30033 5.91773 7.10262 5.76916 7.10262 5.73488C7.15633 5.39773 7.11405 5.35773 7.08547 5.26631C7.0649 5.13602 7.00319 5.09488 6.95405 5.00573C6.90376 4.95202 6.83633 4.95202 6.80547 5.00573C6.71633 5.15773 6.75747 5.48573 6.82147 5.63088C6.86719 5.76573 6.93805 5.85031 6.9049 5.85031C6.87747 5.92459 6.82033 5.90745 6.77919 5.81945C6.72205 5.63659 6.70833 5.36688 6.70833 5.24459C6.69119 5.09373 6.67176 4.77031 6.57119 4.68802C6.5449 4.65145 6.51405 4.63888 6.48319 4.64231L6.48205 4.64573ZM7.90147 4.64573C7.88205 4.65031 7.85919 4.66173 7.8329 4.66859C7.74719 4.69488 7.66719 4.76916 7.69233 4.91316C7.79519 5.53031 7.86033 6.00231 7.96205 6.61945C7.9769 6.69259 7.91633 6.78745 7.83862 6.77945C7.70605 6.68802 7.6729 6.50516 7.44662 6.51431C7.28205 6.51431 7.09462 6.69488 7.07176 6.86631C7.04433 7.00345 7.03519 7.15202 7.07176 7.27088C7.18605 7.40802 7.32547 7.39431 7.44662 7.36231C7.54605 7.32231 7.62947 7.22516 7.66376 7.24802C7.68662 7.28573 7.66147 7.60688 7.19519 7.85373C6.90719 7.98402 6.67862 8.01373 6.55519 7.78059C6.47976 7.63431 6.56205 7.07659 6.37462 7.20459C5.81919 8.63545 7.67405 8.83431 7.8809 7.26402C7.89462 7.21831 7.93462 7.17488 7.96433 7.18631C7.97576 7.19202 7.98719 7.20916 7.99176 7.24116C7.94833 8.66288 6.55633 8.76116 6.3209 8.31316C6.26147 8.20802 6.24433 7.97259 6.23862 7.83316C6.22719 7.74745 6.20662 7.69831 6.18147 7.67888C6.12433 7.63659 6.0489 7.74745 6.0329 7.93831C6.01005 8.09259 6.01576 8.13488 6.01576 8.28345C6.09119 9.40688 7.88205 8.92345 8.17347 7.99773C8.31747 7.51773 8.17005 7.15545 8.21919 7.11088L8.22262 7.10859H8.22605L8.23176 7.10631C8.41005 7.29831 8.65919 7.12916 8.71405 7.06402C8.7369 7.02973 8.79633 7.00688 8.83747 7.05259C8.97462 7.15088 9.21919 7.10402 9.26947 6.92688C9.29919 6.75545 9.32433 6.57945 9.33005 6.39545C9.23862 6.42402 9.16547 6.44459 9.13576 6.47545C9.1289 6.48345 9.12433 6.49259 9.12205 6.50173L9.09919 6.65373C9.09919 6.65945 9.0969 6.66288 9.09462 6.66516C9.09119 6.67316 9.08319 6.67888 9.07862 6.68231C9.04662 6.69945 8.99062 6.69031 8.98719 6.64345C8.9449 6.44916 8.76776 6.42402 8.66033 6.72688C8.58833 6.78402 8.45462 6.79545 8.44319 6.70859C8.46033 6.50516 8.37805 6.47773 8.21462 6.57373L8.0569 5.38516C8.12547 5.38173 8.18719 5.43088 8.25119 5.35316C8.18262 5.14288 8.03976 4.71545 7.95862 4.67431H7.95633L7.9449 4.66288C7.9449 4.66059 7.94147 4.65945 7.93919 4.65831L7.93462 4.65145C7.93005 4.65145 7.92547 4.64916 7.92319 4.64802C7.91519 4.64573 7.90833 4.64573 7.90033 4.64573H7.90147ZM13.4352 4.65031C13.3643 4.64802 13.2866 4.69259 13.3163 4.78173C13.298 4.83088 13.4683 4.99545 13.4958 5.08459C13.5449 5.22173 13.458 5.35545 13.5095 5.37488C13.5575 5.39545 13.6238 5.23202 13.6466 5.08002C13.6763 4.95659 13.5895 4.70516 13.4638 4.65373L13.4352 4.65145V4.65031ZM9.12319 4.80002C9.15519 4.79773 9.19405 4.82745 9.21462 4.86859C9.23405 4.91431 9.22376 4.95659 9.19176 4.96459C9.15747 4.97259 9.11405 4.94402 9.09347 4.89831C9.0729 4.85259 9.08205 4.81031 9.11633 4.80231H9.12319V4.80002ZM17.1198 5.00802C17.0546 5.00573 16.9826 5.05373 17.0123 5.15088C16.9963 5.20345 17.1495 5.38173 17.1758 5.48002C17.1986 5.54859 17.1415 5.77259 17.1872 5.79316C17.2306 5.81602 17.29 5.63773 17.3129 5.47316C17.3266 5.38173 17.2603 5.06745 17.1472 5.01145C17.1392 5.00916 17.13 5.00688 17.1209 5.00688L17.1198 5.00802ZM12.6969 5.11773C12.7049 5.14402 12.7106 5.17031 12.714 5.19773C12.7278 5.25488 12.7392 5.31202 12.7506 5.37145C12.7003 5.30059 12.6592 5.24345 12.6398 5.22288C12.5255 5.08573 12.642 5.13373 12.6969 5.11773V5.11773ZM13.7175 5.61831C13.6923 5.62288 13.6683 5.64459 13.6603 5.67888C13.6535 5.69945 13.6695 5.73602 13.6489 5.74745C13.6375 5.75888 13.5918 5.75202 13.5952 5.69031C13.5952 5.66973 13.5803 5.64802 13.5723 5.63659C13.5632 5.63088 13.5575 5.62859 13.5415 5.62859C13.522 5.62859 13.522 5.63431 13.5118 5.65145C13.5072 5.66745 13.5003 5.68345 13.5003 5.70288C13.5003 5.72573 13.4912 5.73259 13.4752 5.73716C13.4569 5.73716 13.4603 5.73716 13.4455 5.72916C13.4363 5.71773 13.426 5.71545 13.426 5.69945C13.426 5.68231 13.4226 5.65602 13.4169 5.64459C13.4089 5.63316 13.3975 5.62973 13.3826 5.62516C13.3083 5.62516 13.3026 5.71202 13.3072 5.74402C13.3026 5.75088 13.2992 5.90631 13.402 5.94973C13.5415 6.01488 13.802 5.98402 13.7906 5.76231C13.7906 5.74288 13.7849 5.67659 13.7838 5.65945C13.7689 5.62516 13.7426 5.61373 13.7186 5.61716L13.7175 5.61831ZM9.06605 5.66402C9.05005 5.66402 9.02719 5.66859 9.0009 5.68459C8.87862 5.75088 8.83176 5.94745 8.90947 6.06173C8.97805 6.16459 9.09233 6.12688 9.10719 6.12688C9.22719 6.14288 9.29805 5.90288 9.29805 5.90288C9.29805 5.90288 9.30147 5.83431 9.1609 5.96231C9.09919 5.97373 9.09233 5.95088 9.07633 5.91659C9.06262 5.85602 9.0649 5.79088 9.09347 5.73031C9.10719 5.69259 9.09347 5.66859 9.06605 5.66631V5.66402ZM15.6409 5.69488C15.5723 5.69145 15.5003 5.73602 15.4809 5.82859C15.4809 5.88345 15.506 5.91316 15.5015 5.96345C15.4958 5.99202 15.4672 6.00916 15.3963 5.97716C15.4078 5.96573 15.3506 5.88802 15.3506 5.88802C15.2969 5.85373 15.2249 5.88802 15.1769 5.92002C15.1506 5.96802 15.1312 6.04916 15.1609 6.13145C15.2386 6.27659 15.5072 6.52345 15.6352 6.52573C15.6375 6.39545 15.65 6.22173 15.658 6.11431C15.6603 6.07316 15.6695 6.02859 15.7095 6.01831C15.7483 6.00688 15.8158 6.05716 15.8158 6.01488C15.8089 5.93259 15.7929 5.80916 15.7472 5.75202C15.722 5.71773 15.682 5.69716 15.642 5.69488H15.6409ZM10.1975 6.14859L10.194 6.15202C10.194 6.15202 10.1918 6.15202 10.1906 6.15431C10.1769 6.16573 10.1609 6.18859 10.1255 6.21145C10.0649 6.28002 10.0546 6.32916 10.0569 6.46631C10.0615 6.48116 10.1712 6.78973 10.266 7.00573C10.33 7.23088 10.3883 7.48916 10.346 7.73259C10.1975 8.05488 9.90033 8.34402 9.61119 8.50173C9.46262 8.54745 9.3369 8.53145 9.30262 8.49945C9.21805 8.44231 9.2169 8.33945 9.22262 8.32345V8.32002C9.4649 8.15088 9.74262 8.01373 9.95976 7.55773C10.0238 7.38288 10.0443 7.27773 9.98033 7.00916C9.95519 6.90631 9.92319 6.82631 9.85462 6.75316H9.8569C9.89805 6.73373 10.0055 6.81259 10.0226 6.76459C9.99633 6.63431 9.90833 6.46173 9.81119 6.37259C9.72433 6.29259 9.62833 6.28459 9.55062 6.35659C9.46147 6.40688 9.44319 6.58516 9.48547 6.74059C9.53347 6.85716 9.66262 6.87773 9.75405 7.11431C9.75633 7.13031 9.7849 7.29145 9.73919 7.35773C9.70033 7.47431 9.21919 7.85373 9.1849 7.87659L9.18147 7.87888L9.17919 7.88116H9.1769H9.17462V7.87773C9.17233 7.86859 9.17462 7.84345 9.17462 7.80573C9.17119 7.73488 9.2009 7.57373 9.19747 7.54516V7.54288C9.03747 7.64573 8.98376 7.96002 8.95519 8.05373C8.55176 8.33145 8.09462 8.53831 7.83062 8.81945C7.69347 9.03659 8.7769 8.57488 8.90262 8.51888L8.90605 8.52231C8.93119 8.54859 8.93233 8.64002 9.00433 8.72345C9.11862 8.87545 9.35633 8.96916 9.58947 8.91088C9.98033 8.77031 10.2066 8.50402 10.4352 8.20802C10.4672 8.16231 10.5186 8.12345 10.5666 8.16002C10.7232 8.51202 11.178 8.76345 11.7643 8.78859C11.9015 8.62402 11.8363 8.54288 11.7815 8.50859C11.7643 8.49716 11.49 8.38973 11.4466 8.28345C11.4203 8.18516 11.4855 8.09716 11.6158 8.03202C11.9929 7.98631 12.3632 7.93488 12.722 7.81945C12.7255 7.69831 12.7963 7.51888 12.8443 7.44002C12.8786 7.38631 12.898 7.38059 12.906 7.37373V7.37145H12.9083V7.36802V7.35659L12.8466 7.32002L11.6432 7.31545C11.6283 7.30973 11.618 7.30402 11.6112 7.29831L11.6089 7.29488C11.6089 7.29488 11.6066 7.29488 11.6066 7.29259C11.6066 7.29031 11.6043 7.29031 11.6043 7.29031V7.29145V7.28916V7.28688V7.28459L11.6066 7.28116C11.6123 7.27431 11.6272 7.26631 11.6443 7.25831C11.9323 7.22059 12.442 7.13716 12.4763 6.64688C12.4706 6.39088 12.3666 6.22402 12.0535 6.17831C11.8226 6.19545 11.658 6.41831 11.6843 6.66288C11.6729 6.72802 11.7072 6.85716 11.6386 6.87202C11.1975 6.91316 10.7152 7.18973 10.6992 7.38859H10.6969H10.6946H10.6923C10.6923 7.39088 10.69 7.39088 10.6889 7.39088H10.6843H10.682H10.6775C10.6489 7.38173 10.6123 7.33373 10.618 7.26859C10.6009 6.92573 10.4889 6.53716 10.3152 6.24002C10.2523 6.17716 10.2238 6.15202 10.2078 6.14859H10.2043H10.2009H10.1986H10.1975ZM11.3495 6.32916C11.3266 6.33373 11.3003 6.35431 11.2923 6.38859C11.2866 6.41145 11.3038 6.44802 11.2832 6.45945C11.2718 6.47088 11.226 6.46402 11.2283 6.40231C11.2283 6.38288 11.2135 6.36116 11.2055 6.34859C11.1963 6.34288 11.1906 6.34173 11.1758 6.34173C11.1563 6.34173 11.1552 6.34631 11.1449 6.36231C11.1392 6.37831 11.1335 6.39659 11.1335 6.41373C11.1312 6.43659 11.122 6.44345 11.1072 6.44573C11.0889 6.44573 11.0935 6.44916 11.0786 6.44002C11.0695 6.43088 11.058 6.42631 11.058 6.41031C11.058 6.39316 11.0546 6.36459 11.05 6.35316C11.042 6.34516 11.0295 6.34173 11.0158 6.33716C10.9392 6.33716 10.9358 6.42288 10.9392 6.45602C10.9335 6.46173 10.93 6.61602 11.0329 6.65945C11.17 6.72573 11.5015 6.68688 11.4215 6.47316C11.4215 6.45373 11.4158 6.38745 11.4146 6.37031C11.3998 6.33602 11.3735 6.32459 11.3483 6.32802L11.3495 6.32916ZM15.9952 6.52002H15.9838C15.9838 6.52002 15.3415 6.97716 15.3266 6.99316C15.2626 7.05031 15.2946 7.24802 15.3266 7.22516C15.3723 7.24231 16.018 6.80459 16.0055 6.75316C16.034 6.75545 16.0478 6.52802 15.994 6.51888L15.9952 6.52002ZM11.9563 6.58859C11.9815 6.58516 12.0158 6.59431 12.0478 6.61145C12.0969 6.64116 12.1278 6.68231 12.122 6.71431V6.71888C12.1198 6.71888 12.1198 6.71888 12.1198 6.72116V6.72345C12.1198 6.72345 12.1175 6.72345 12.1175 6.72573C12.1175 6.72802 12.114 6.73031 12.1118 6.73259C12.0889 6.75545 12.0363 6.75088 11.986 6.72116C11.938 6.69488 11.9095 6.65259 11.9118 6.62288V6.61945L11.9175 6.60802C11.9175 6.60802 11.9175 6.60573 11.9198 6.60459L11.9255 6.59773C11.9335 6.59202 11.9438 6.58631 11.9563 6.58631V6.58859ZM6.33576 6.70288C6.00433 6.70973 5.51633 7.13945 5.50376 7.37716L6.55519 6.87431C6.49805 6.78745 6.55176 6.70973 6.33576 6.70288V6.70288ZM7.41347 6.85145C7.44547 6.85373 7.47976 6.86973 7.49805 6.91545C7.51405 6.95773 7.49805 7.00116 7.47862 7.02288V7.02631C7.46262 7.04459 7.41462 7.03773 7.37919 7.03773C7.3369 7.03545 7.31633 7.02859 7.29119 6.99431C7.27747 6.95431 7.31405 6.91659 7.33119 6.88916L7.33919 6.87773C7.35062 6.86631 7.37347 6.85716 7.39633 6.85488L7.41119 6.85259L7.41347 6.85145ZM15.8706 6.98516C15.81 6.99202 15.754 7.04802 15.7792 7.13716C15.7632 7.18973 15.8592 7.37373 15.8855 7.47088C15.9083 7.53945 15.8558 7.73716 15.9026 7.75659C15.946 7.77945 16.0592 7.64231 16.0558 7.46631C16.0672 7.37488 16.0238 7.04345 15.9106 6.98859C15.8969 6.98516 15.8832 6.98402 15.8695 6.98516H15.8706ZM8.6889 7.30973C8.63633 7.31316 8.58947 7.34059 8.61119 7.41488C8.60776 7.46745 8.75976 7.53259 8.76776 7.65488C8.78833 7.70745 8.73347 7.87202 8.77919 7.88573C8.82033 7.90288 8.87747 7.77145 8.89919 7.65259C8.91062 7.58631 8.84662 7.35545 8.73919 7.31316C8.72205 7.30859 8.7049 7.30745 8.68776 7.30859L8.6889 7.30973ZM10.8375 7.60231H10.8512C10.986 7.63888 11.1826 7.64345 11.354 7.65945C11.4946 7.67088 11.5632 7.77831 11.434 7.82516C11.3038 7.86859 11.1792 7.90516 11.1792 8.09031C11.1952 8.18173 11.1906 8.22973 11.1769 8.25031C11.1769 8.25373 11.1735 8.25602 11.1723 8.25716C11.1723 8.25716 11.1723 8.25945 11.17 8.25945V8.26173H11.1666L11.1586 8.26516H11.1529C11.122 8.27088 11.0775 8.24231 11.0443 8.22402C10.9643 8.16688 10.7415 8.02973 10.7095 7.73259C10.7049 7.66402 10.7552 7.60688 10.8352 7.60116L10.8375 7.60231ZM5.58719 7.83088C5.57919 7.83088 5.56433 7.85602 5.54147 7.88459C5.34262 8.19888 5.32433 8.66859 5.43405 8.81031C5.49119 8.87545 5.58719 8.90516 5.65805 8.88459C5.78376 8.83088 5.83747 8.57831 5.80662 8.48688C5.76662 8.42173 5.73347 8.41145 5.69233 8.46631C5.60433 8.64345 5.56662 8.52116 5.5609 8.42059C5.54719 8.23431 5.56547 8.06059 5.58605 7.92345C5.59747 7.85488 5.59747 7.82859 5.58605 7.82859L5.58719 7.83088ZM12.3266 8.24459C12.3118 8.24459 12.2969 8.24688 12.2809 8.25602C12.2775 8.25602 12.1392 8.34745 12.0946 8.41373C12.0672 8.43431 12.0718 8.45145 12.0786 8.48802C12.0992 8.53716 12.1358 8.52231 12.1792 8.49945C12.2363 8.49031 12.2626 8.52802 12.2592 8.59545C12.2329 8.68116 12.2706 8.71202 12.2706 8.71773C12.2706 8.72231 12.3243 8.76916 12.3883 8.73259C12.522 8.68116 12.6055 8.62973 12.794 8.58973C12.8432 8.58973 12.8398 8.45716 12.762 8.45259C12.6592 8.45716 12.5678 8.46402 12.4649 8.54402C12.402 8.55773 12.3918 8.51888 12.3769 8.48459C12.3609 8.40002 12.4135 8.34059 12.402 8.27659C12.4043 8.28002 12.37 8.24916 12.3255 8.24688L12.3266 8.24459ZM16.642 8.40459L16.5506 8.41373C16.5095 8.42173 16.4958 8.44002 16.4878 8.49031C16.4912 8.56459 16.5369 8.56116 16.5849 8.59088C16.6123 8.62516 16.6306 8.65716 16.5826 8.71659C16.5369 8.75659 16.506 8.77945 16.4603 8.81945C16.4409 8.85602 16.426 8.91088 16.4923 8.92916C16.6123 8.96345 16.89 8.78288 16.89 8.78059C16.9358 8.74631 16.9198 8.68116 16.9163 8.68116C16.8889 8.65145 16.8295 8.66973 16.7906 8.66402C16.7712 8.66402 16.7106 8.65488 16.738 8.60002C16.7632 8.56573 16.7723 8.54631 16.7895 8.50402C16.8066 8.46288 16.7895 8.43545 16.7232 8.41259C16.6889 8.40573 16.666 8.40345 16.6398 8.40459H16.642ZM14.9815 12.816C15.29 12.8309 15.578 12.8194 15.8843 12.8343C15.9346 12.8754 15.9106 12.9714 15.8786 12.9874L15.8729 12.9897H15.8695H15.8649L15.6066 12.9829V12.968C15.5815 12.8972 15.41 12.9017 15.3689 12.9566V12.96C15.3666 12.96 15.3655 12.9634 15.3655 12.9646L15.3632 12.9703V12.984C15.226 13.0012 15.106 12.9794 14.9712 12.9749C14.9312 12.9257 14.9369 12.8377 14.9826 12.8149L14.9815 12.816Z" fill="white"/>
</svg>
