<svg xmlns="http://www.w3.org/2000/svg" xmlns:xlink="http://www.w3.org/1999/xlink" width="150" zoomAndPan="magnify" viewBox="0 0 112.5 112.499997" height="150" preserveAspectRatio="xMidYMid meet" version="1.0"><path fill="#003478" d="M 55.832031 35.679688 C 25.863281 35.679688 1.839844 44.65625 1.839844 55.90625 C 1.839844 67.089844 26.0625 76.132812 55.832031 76.132812 C 85.601562 76.132812 109.820312 67.058594 109.820312 55.90625 C 109.820312 44.753906 85.601562 35.679688 55.832031 35.679688 " fill-opacity="1" fill-rule="nonzero"/><path fill="#ffffff" d="M 77.097656 60.191406 C 77.109375 60.28125 77.234375 60.371094 77.351562 60.414062 C 77.394531 60.429688 77.414062 60.457031 77.371094 60.554688 C 77.035156 61.273438 76.726562 61.691406 76.304688 62.316406 C 75.914062 62.894531 75.480469 63.34375 74.949219 63.777344 C 74.152344 64.4375 73.046875 65.15625 72.128906 64.671875 C 71.722656 64.460938 71.546875 63.894531 71.554688 63.433594 C 71.574219 62.136719 72.152344 60.808594 73.214844 59.503906 C 74.511719 57.90625 75.945312 57.078125 76.886719 57.53125 C 77.863281 57.996094 77.550781 59.121094 77.117188 60.007812 C 77.082031 60.074219 77.082031 60.132812 77.097656 60.191406 M 87.546875 50.105469 C 87.617188 49.980469 87.542969 49.890625 87.386719 49.890625 C 86.574219 49.890625 85.507812 49.890625 84.660156 49.890625 C 84.457031 49.890625 84.355469 49.917969 84.257812 50.105469 C 83.945312 50.703125 80.132812 56.410156 79.421875 57.519531 C 79.304688 57.691406 79.15625 57.664062 79.140625 57.472656 C 79.070312 56.8125 78.5 56.058594 77.601562 55.695312 C 76.917969 55.417969 76.25 55.367188 75.554688 55.460938 C 74.300781 55.628906 73.183594 56.289062 72.203125 57.035156 C 70.722656 58.160156 69.445312 59.617188 67.796875 60.691406 C 66.894531 61.277344 65.664062 61.789062 64.839844 61.027344 C 64.09375 60.335938 64.175781 58.800781 65.316406 57.613281 C 65.4375 57.488281 65.582031 57.59375 65.558594 57.703125 C 65.453125 58.242188 65.585938 58.773438 65.992188 59.148438 C 66.492188 59.597656 67.203125 59.644531 67.816406 59.347656 C 68.535156 58.992188 68.957031 58.304688 69.082031 57.523438 C 69.273438 56.308594 68.339844 55.242188 67.167969 55.15625 C 66.21875 55.089844 65.308594 55.417969 64.421875 56.148438 C 63.976562 56.519531 63.726562 56.789062 63.339844 57.335938 C 63.246094 57.472656 63.105469 57.484375 63.109375 57.285156 C 63.152344 55.734375 62.507812 54.863281 61.226562 54.832031 C 60.230469 54.808594 59.164062 55.351562 58.332031 56.011719 C 57.425781 56.742188 56.628906 57.707031 55.777344 58.617188 C 55.667969 58.730469 55.578125 58.722656 55.546875 58.507812 C 55.523438 57.480469 55.261719 56.484375 54.785156 55.777344 C 54.617188 55.53125 54.261719 55.40625 53.964844 55.574219 C 53.828125 55.648438 53.347656 55.871094 53 56.148438 C 52.828125 56.292969 52.757812 56.5 52.835938 56.761719 C 53.296875 58.296875 53.195312 60.042969 52.570312 61.519531 C 52 62.871094 50.886719 64.089844 49.578125 64.5 C 48.714844 64.773438 47.820312 64.640625 47.265625 63.878906 C 46.503906 62.824219 46.808594 60.992188 47.945312 59.46875 C 48.945312 58.128906 50.394531 57.28125 51.839844 56.730469 C 52.011719 56.664062 52.046875 56.558594 52 56.414062 C 51.921875 56.175781 51.792969 55.851562 51.742188 55.703125 C 51.609375 55.351562 51.238281 55.292969 50.785156 55.34375 C 49.738281 55.464844 48.789062 55.824219 47.851562 56.324219 C 45.402344 57.636719 44.175781 60.175781 43.636719 61.53125 C 43.375 62.183594 43.15625 62.589844 42.867188 62.949219 C 42.480469 63.4375 41.996094 63.878906 41.109375 64.65625 C 41.03125 64.726562 40.96875 64.875 41.039062 65.015625 C 41.128906 65.199219 41.589844 65.851562 41.71875 65.910156 C 41.863281 65.980469 42.03125 65.882812 42.097656 65.832031 C 42.71875 65.414062 43.460938 64.746094 43.824219 64.296875 C 43.953125 64.140625 44.082031 64.207031 44.152344 64.441406 C 44.488281 65.648438 45.378906 66.636719 46.605469 67.046875 C 48.851562 67.804688 51.183594 66.710938 52.941406 64.800781 C 54.058594 63.589844 54.460938 62.808594 54.890625 62.28125 C 55.617188 61.382812 57.050781 59.371094 58.757812 58.078125 C 59.382812 57.601562 60.121094 57.238281 60.496094 57.480469 C 60.792969 57.675781 60.890625 58.125 60.410156 58.996094 C 58.671875 62.167969 56.113281 65.898438 55.640625 66.800781 C 55.554688 66.957031 55.632812 67.082031 55.796875 67.082031 C 56.707031 67.078125 57.609375 67.078125 58.433594 67.078125 C 58.574219 67.074219 58.632812 67.011719 58.703125 66.914062 C 60.039062 64.824219 61.292969 62.839844 62.640625 60.785156 C 62.714844 60.664062 62.785156 60.753906 62.789062 60.808594 C 62.816406 61.285156 62.933594 61.9375 63.21875 62.363281 C 63.726562 63.15625 64.449219 63.496094 65.246094 63.5 C 65.882812 63.511719 66.207031 63.414062 66.894531 63.15625 C 67.453125 62.949219 67.898438 62.675781 68.242188 62.433594 C 68.445312 62.292969 68.480469 62.527344 68.476562 62.5625 C 68.167969 64.21875 68.546875 66.183594 70.195312 66.996094 C 72.167969 67.96875 74.335938 66.601562 75.585938 65.371094 C 75.707031 65.25 75.835938 65.261719 75.851562 65.519531 C 75.878906 65.992188 76.089844 66.550781 76.480469 66.941406 C 77.523438 67.988281 79.632812 67.574219 81.75 65.9375 C 83.109375 64.886719 84.53125 63.40625 85.816406 61.839844 C 85.863281 61.777344 85.898438 61.679688 85.808594 61.582031 C 85.609375 61.378906 85.328125 61.144531 85.132812 60.964844 C 85.046875 60.886719 84.917969 60.910156 84.839844 60.964844 C 83.523438 62.21875 82.339844 63.644531 80.625 64.824219 C 80.050781 65.226562 79.128906 65.550781 78.714844 64.992188 C 78.554688 64.773438 78.570312 64.476562 78.730469 64.082031 C 79.230469 62.835938 87.136719 50.808594 87.546875 50.101562 " fill-opacity="1" fill-rule="nonzero"/><path fill="#ffffff" d="M 50.347656 51.554688 C 50.378906 51.734375 50.449219 51.769531 50.53125 51.753906 C 50.933594 51.671875 51.375 51.34375 51.636719 50.957031 C 51.871094 50.609375 51.984375 50.109375 51.746094 49.90625 C 51.539062 49.726562 51.195312 49.777344 50.941406 50 C 50.433594 50.449219 50.28125 51.082031 50.34375 51.554688 M 30.191406 67.035156 C 27.242188 67.054688 24.648438 65.238281 24.347656 62.085938 C 24.183594 60.339844 24.675781 58.785156 25.664062 57.5 C 26.542969 56.359375 28.027344 55.410156 29.285156 55.179688 C 29.695312 55.105469 30.246094 55.148438 30.472656 55.421875 C 30.828125 55.835938 30.726562 56.292969 30.371094 56.472656 C 29.410156 56.960938 28.257812 57.800781 27.683594 58.941406 C 27.222656 59.875 27.128906 61 27.835938 62.074219 C 29.019531 63.859375 32.320312 63.90625 35.390625 61.058594 C 36.148438 60.363281 36.828125 59.691406 37.519531 58.898438 C 38.871094 57.355469 39.320312 56.792969 41.117188 54.304688 C 41.136719 54.273438 41.148438 54.238281 41.136719 54.21875 C 41.121094 54.183594 41.097656 54.179688 41.046875 54.175781 C 39.84375 54.210938 38.800781 54.566406 37.785156 55.324219 C 37.492188 55.539062 37.070312 55.507812 36.886719 55.226562 C 36.679688 54.910156 36.828125 54.496094 37.164062 54.261719 C 38.800781 53.125 40.585938 52.921875 42.410156 52.613281 C 42.410156 52.613281 42.535156 52.617188 42.640625 52.480469 C 43.390625 51.519531 43.953125 50.65625 44.753906 49.683594 C 45.558594 48.699219 46.597656 47.792969 47.390625 47.117188 C 48.496094 46.164062 49.207031 45.84375 49.929688 45.449219 C 50.121094 45.351562 49.90625 45.234375 49.847656 45.234375 C 45.816406 44.476562 41.625 43.496094 37.621094 44.976562 C 34.851562 46.011719 33.632812 48.207031 34.21875 49.675781 C 34.636719 50.714844 36.003906 50.886719 37.289062 50.257812 C 38.355469 49.738281 39.339844 48.894531 40.039062 47.8125 C 40.429688 47.210938 41.257812 47.644531 40.808594 48.691406 C 39.640625 51.441406 37.402344 53.625 34.675781 53.714844 C 32.355469 53.789062 30.855469 52.085938 30.863281 49.980469 C 30.871094 45.832031 35.496094 43.097656 40.355469 42.691406 C 46.207031 42.207031 51.75 43.765625 57.5625 44.46875 C 62.011719 45.007812 66.28125 45.019531 70.757812 43.992188 C 71.285156 43.875 71.65625 44.214844 71.621094 44.746094 C 71.578125 45.519531 70.980469 46.261719 69.507812 47.066406 C 67.832031 47.984375 66.078125 48.261719 64.246094 48.277344 C 59.816406 48.316406 55.691406 46.589844 51.421875 45.664062 C 51.429688 45.847656 51.476562 46.070312 51.320312 46.191406 C 48.957031 47.933594 46.820312 49.703125 45.386719 52.1875 C 45.339844 52.242188 45.363281 52.296875 45.449219 52.292969 C 46.691406 52.226562 47.808594 52.195312 48.96875 52.101562 C 49.171875 52.082031 49.179688 52.035156 49.164062 51.886719 C 49.058594 51.03125 49.308594 50.054688 50.0625 49.382812 C 50.835938 48.691406 51.800781 48.613281 52.445312 49.109375 C 53.171875 49.675781 53.105469 50.695312 52.710938 51.460938 C 52.304688 52.238281 51.632812 52.652344 50.992188 52.855469 C 50.992188 52.855469 50.855469 52.882812 50.875 53.003906 C 50.898438 53.199219 51.777344 53.6875 51.851562 53.816406 C 51.925781 53.9375 51.886719 54.128906 51.753906 54.273438 C 51.660156 54.382812 51.515625 54.480469 51.328125 54.476562 C 51.179688 54.472656 51.089844 54.421875 50.894531 54.320312 C 50.503906 54.105469 50.011719 53.757812 49.683594 53.34375 C 49.574219 53.203125 49.515625 53.203125 49.238281 53.214844 C 47.980469 53.289062 46.023438 53.476562 44.695312 53.644531 C 44.375 53.683594 44.328125 53.742188 44.261719 53.855469 C 42.148438 57.339844 39.890625 61.097656 37.410156 63.613281 C 34.75 66.308594 32.539062 67.019531 30.191406 67.039062 " fill-opacity="1" fill-rule="nonzero"/><path fill="#ffffff" d="M 55.828125 38.988281 C 28.261719 38.988281 5.914062 46.597656 5.914062 55.914062 C 5.914062 65.226562 28.261719 72.835938 55.828125 72.835938 C 83.398438 72.835938 105.742188 65.226562 105.742188 55.914062 C 105.742188 46.597656 83.398438 38.988281 55.828125 38.988281 M 55.828125 74.371094 C 27.257812 74.371094 4.09375 66.105469 4.09375 55.914062 C 4.09375 45.714844 27.257812 37.453125 55.828125 37.453125 C 84.398438 37.453125 107.558594 45.714844 107.558594 55.914062 C 107.558594 66.105469 84.398438 74.371094 55.828125 74.371094 " fill-opacity="1" fill-rule="nonzero"/></svg>