<svg xmlns="http://www.w3.org/2000/svg" xmlns:xlink="http://www.w3.org/1999/xlink" width="150" zoomAndPan="magnify" viewBox="0 0 112.5 112.499997" height="150" preserveAspectRatio="xMidYMid meet" version="1.0"><path fill="#c41230" d="M 52.976562 83.179688 C 49.398438 83.085938 45.453125 82.769531 41.960938 82.296875 C 27.09375 80.292969 14.636719 75.179688 7.699219 68.238281 C 4.761719 65.292969 2.894531 62.058594 2.269531 58.808594 C 2.0625 57.75 2.015625 57.230469 2.015625 56.089844 C 2.015625 54.949219 2.0625 54.429688 2.269531 53.371094 C 2.679688 51.234375 3.664062 49.03125 5.109375 46.988281 C 8.382812 42.371094 14.128906 38.257812 21.667969 35.140625 C 34.230469 29.941406 50.683594 27.878906 66.703125 29.5 C 85.511719 31.402344 100.980469 38.285156 107.121094 47.480469 C 109.925781 51.683594 110.613281 56.25 109.113281 60.710938 C 108.246094 63.289062 106.558594 65.863281 104.1875 68.238281 C 97.617188 74.816406 86.050781 79.773438 72.171875 81.96875 C 65.964844 82.949219 59.5625 83.351562 52.976562 83.179688 Z M 61.175781 79.710938 C 68.703125 79.242188 75.0625 78.132812 81.253906 76.203125 C 86.171875 74.675781 90.75 72.558594 94.269531 70.1875 C 96.039062 68.996094 97.269531 67.988281 98.660156 66.589844 C 100.3125 64.929688 101.378906 63.472656 102.246094 61.691406 C 103.214844 59.695312 103.59375 58.132812 103.59375 56.089844 C 103.59375 54.035156 103.191406 52.386719 102.207031 50.398438 C 101.359375 48.679688 100.273438 47.210938 98.660156 45.589844 C 96.292969 43.207031 93.476562 41.246094 89.757812 39.378906 C 82.796875 35.882812 74.085938 33.597656 64.382812 32.714844 C 59.007812 32.226562 52.898438 32.226562 47.507812 32.714844 C 33.863281 33.945312 22.152344 38.007812 14.90625 44.019531 C 13.988281 44.785156 12.347656 46.441406 11.664062 47.304688 C 9.207031 50.394531 8.046875 53.726562 8.3125 56.933594 C 8.597656 60.429688 10.167969 63.515625 13.230469 66.589844 C 15.546875 68.917969 18.300781 70.855469 21.882812 72.671875 C 30.042969 76.808594 40.066406 79.179688 51.859375 79.761719 C 53.191406 79.828125 59.878906 79.789062 61.175781 79.710938 Z M 22.933594 69.804688 C 22.867188 69.777344 22.761719 69.695312 22.695312 69.621094 C 22.582031 69.492188 22.578125 69.398438 22.5625 56.867188 L 22.550781 44.242188 L 22.394531 44.082031 C 22.246094 43.925781 22.207031 43.917969 21.644531 43.902344 L 21.050781 43.882812 L 21.050781 42.292969 L 25.324219 42.277344 L 29.59375 42.261719 L 29.777344 42.414062 L 29.957031 42.566406 L 29.957031 47.121094 C 29.957031 52.121094 29.945312 51.933594 30.304688 51.933594 C 30.527344 51.933594 30.601562 51.839844 31.84375 50.074219 C 35.125 45.402344 36.929688 42.859375 37.09375 42.683594 C 37.496094 42.25 37.3125 42.265625 41.46875 42.265625 L 45.191406 42.261719 L 45.332031 42.40625 C 45.507812 42.582031 45.574219 42.820312 45.492188 42.988281 C 45.441406 43.097656 43.832031 45.496094 38.210938 53.835938 C 37.597656 54.746094 37.425781 55.042969 37.425781 55.191406 C 37.429688 55.347656 37.828125 55.945312 39.53125 58.359375 C 47.066406 69.023438 47.089844 69.058594 47.113281 69.273438 C 47.132812 69.433594 47.101562 69.523438 46.988281 69.65625 L 46.84375 69.828125 L 42.957031 69.84375 C 39.125 69.859375 39.066406 69.859375 38.78125 69.738281 C 38.625 69.667969 38.429688 69.542969 38.351562 69.457031 C 38.269531 69.367188 36.5 66.894531 34.414062 63.960938 C 32.328125 61.027344 30.582031 58.589844 30.527344 58.546875 C 30.382812 58.425781 30.117188 58.484375 30.035156 58.65625 C 29.976562 58.769531 29.960938 59.972656 29.957031 64.148438 L 29.957031 69.496094 L 29.816406 69.664062 L 29.675781 69.828125 L 26.363281 69.839844 C 24.539062 69.847656 22.996094 69.828125 22.933594 69.804688 Z M 52.445312 69.777344 C 52.347656 69.734375 52.234375 69.625 52.195312 69.539062 C 52.140625 69.414062 52.125 66.609375 52.125 56.820312 L 52.125 44.257812 L 51.953125 44.085938 C 51.785156 43.921875 51.761719 43.914062 51.214844 43.914062 L 50.652344 43.914062 L 50.652344 42.261719 L 59.351562 42.261719 L 59.542969 42.433594 L 59.738281 42.605469 L 59.738281 69.5 L 59.410156 69.828125 L 56.015625 69.839844 C 53.296875 69.851562 52.585938 69.839844 52.445312 69.777344 Z M 65.085938 69.785156 C 64.90625 69.679688 64.828125 69.550781 64.824219 69.34375 C 64.824219 69.242188 65.65625 66.652344 66.679688 63.597656 L 70.289062 52.789062 C 71.039062 50.539062 71.792969 48.289062 72.546875 46.042969 C 72.824219 45.21875 73.054688 44.472656 73.054688 44.382812 C 73.054688 44.292969 73.003906 44.160156 72.941406 44.082031 C 72.839844 43.957031 72.769531 43.941406 72.25 43.914062 L 71.671875 43.882812 L 71.65625 43.074219 L 71.640625 42.261719 L 76.859375 42.261719 C 80.285156 42.261719 82.152344 42.285156 82.296875 42.324219 C 82.417969 42.359375 82.546875 42.441406 82.582031 42.507812 C 82.65625 42.644531 83.242188 44.382812 86 52.640625 C 90.488281 66.078125 91.515625 69.179688 91.515625 69.304688 C 91.515625 69.511719 91.398438 69.722656 91.242188 69.792969 C 91.140625 69.835938 90.097656 69.859375 87.824219 69.859375 C 84.820312 69.859375 84.53125 69.847656 84.347656 69.753906 C 84.234375 69.699219 84.097656 69.585938 84.035156 69.503906 C 83.976562 69.421875 83.519531 68.082031 83.023438 66.527344 C 78.277344 51.691406 78.410156 52.097656 78.300781 51.976562 C 78.183594 51.847656 78.09375 51.847656 77.972656 51.980469 C 77.875 52.089844 77.691406 52.652344 75.113281 60.808594 C 74.515625 62.695312 73.917969 64.582031 73.316406 66.46875 C 73.078125 67.214844 72.773438 68.175781 72.640625 68.605469 C 72.375 69.449219 72.257812 69.652344 71.957031 69.777344 C 71.699219 69.886719 65.273438 69.894531 65.085938 69.785156 Z M 65.085938 69.785156 " fill-opacity="1" fill-rule="nonzero"/></svg>