<svg xmlns="http://www.w3.org/2000/svg" xmlns:xlink="http://www.w3.org/1999/xlink" width="150" zoomAndPan="magnify" viewBox="0 0 112.5 112.499997" height="150" preserveAspectRatio="xMidYMid meet" version="1.0"><defs><clipPath id="79a546a553"><path d="M 1 24 L 112.003906 24 L 112.003906 88 L 1 88 Z M 1 24 " clip-rule="nonzero"/></clipPath></defs><g clip-path="url(#79a546a553)"><path fill="#000000" d="M 185.953125 34.878906 L 198.28125 34.878906 L 198.28125 64.441406 C 198.28125 67.160156 199.847656 68.257812 202.484375 68.257812 L 223.484375 68.257812 C 226.121094 68.257812 227.691406 67.160156 227.691406 64.441406 L 227.691406 34.878906 L 240.011719 34.878906 L 240.011719 66.378906 C 240.011719 73.066406 234.269531 78.132812 227.6875 78.132812 L 198.277344 78.132812 C 191.722656 78.132812 185.949219 73.039062 185.949219 66.378906 L 185.949219 34.878906 Z M 127.511719 64.789062 L 139.777344 64.789062 C 139.980469 67.25 141.429688 68.261719 143.867188 68.261719 L 166.40625 68.261719 C 168.492188 68.261719 169.652344 66.46875 169.652344 64.527344 C 169.652344 61.921875 167.738281 60.558594 165.273438 60.558594 L 140.703125 60.558594 C 132.613281 60.558594 127.101562 56.621094 127.101562 48.109375 C 127.101562 43.683594 128.84375 38.992188 132.789062 36.617188 C 135.25 35.109375 138.265625 34.878906 141.113281 34.878906 L 170.054688 34.878906 C 176.324219 34.878906 181.367188 39.304688 181.308594 45.675781 L 181.308594 47.960938 L 168.636719 47.960938 C 168.523438 45.992188 167.363281 44.71875 165.277344 44.71875 L 143.898438 44.71875 C 141.726562 44.71875 139.898438 45.816406 139.898438 48.222656 C 139.898438 50.597656 141.753906 51.496094 143.871094 51.496094 L 170.0625 51.496094 C 178.53125 51.496094 182.914062 57.144531 182.914062 65.367188 C 182.914062 73.238281 179.253906 78.128906 171.074219 78.128906 L 139.78125 78.128906 C 132.644531 78.128906 127.597656 75.265625 127.539062 67.679688 Z M 419.257812 34.878906 L 431.613281 34.878906 L 431.613281 64.441406 C 431.613281 67.160156 433.179688 68.257812 435.816406 68.257812 L 456.8125 68.257812 C 459.449219 68.257812 461.019531 67.160156 461.019531 64.441406 L 461.019531 34.878906 L 473.34375 34.878906 L 473.34375 66.378906 C 473.34375 73.035156 467.570312 78.132812 461.019531 78.132812 L 431.605469 78.132812 C 425.023438 78.132812 419.25 73.066406 419.25 66.378906 Z M 315.277344 69.59375 L 310.433594 78.128906 L 296.746094 78.128906 L 320.269531 34.878906 L 336.363281 34.878906 L 359.890625 78.128906 L 346.195312 78.128906 L 341.351562 69.59375 Z M 328.300781 45.824219 L 320.527344 60.242188 L 336.105469 60.242188 Z M 244.714844 34.878906 L 282.710938 34.878906 C 290.859375 34.878906 296.894531 37.71875 296.894531 46.835938 C 296.894531 50.773438 295.332031 54.21875 291.851562 56.160156 C 295.675781 58.1875 297.851562 61.945312 297.851562 66.289062 C 297.851562 72.398438 293.933594 78.128906 287.355469 78.128906 L 244.714844 78.128906 Z M 257.332031 68.257812 L 280.769531 68.257812 C 283.054688 68.257812 285.175781 67.015625 285.175781 64.523438 C 285.175781 62.0625 283.03125 60.789062 280.769531 60.789062 L 257.332031 60.789062 Z M 257.332031 51.847656 L 280.769531 51.847656 C 282.882812 51.847656 284.21875 50.371094 284.21875 48.316406 C 284.21875 46.261719 282.914062 44.730469 280.769531 44.730469 L 257.332031 44.730469 Z M 362.234375 34.878906 L 403.535156 34.878906 C 411.777344 34.878906 415.75 41.597656 415.75 49.097656 C 415.75 53.957031 413.984375 58.503906 409.515625 60.824219 C 413.867188 62.933594 415.867188 66.265625 415.867188 71.132812 L 415.867188 78.132812 L 403.535156 78.132812 L 403.535156 71.136719 C 403.535156 67.023438 401.246094 65.546875 397.269531 65.546875 L 374.945312 65.546875 L 374.945312 78.132812 L 362.238281 78.132812 Z M 374.941406 55.695312 L 398.054688 55.695312 C 401.039062 55.695312 403.042969 53.03125 403.042969 50.222656 C 403.042969 46.632812 400.375 44.722656 396.925781 44.722656 L 374.941406 44.722656 Z M 55.84375 24.054688 C 69.503906 24.054688 84.152344 26.835938 95.808594 34.21875 C 103.378906 39.050781 110.425781 46.378906 110.425781 55.925781 C 110.425781 67.074219 100.886719 75.183594 91.75 79.925781 C 80.875 85.546875 68.023438 87.773438 55.839844 87.773438 C 42.183594 87.773438 27.566406 85.023438 15.90625 77.613281 C 8.335938 72.777344 1.257812 65.453125 1.257812 55.925781 C 1.257812 44.726562 10.773438 36.648438 19.9375 31.898438 C 30.84375 26.285156 43.664062 24.054688 55.84375 24.054688 Z M 55.730469 27.441406 C 43.027344 27.441406 29.335938 29.816406 18.3125 36.441406 C 11.382812 40.582031 4.535156 47.097656 4.535156 55.753906 C 4.535156 65.917969 13.816406 73.035156 22.113281 77.121094 C 32.378906 82.125 44.386719 84.070312 55.730469 84.070312 C 68.457031 84.070312 82.152344 81.691406 93.171875 75.0625 C 100.074219 70.894531 106.949219 64.410156 106.949219 55.757812 C 106.949219 45.570312 97.695312 38.445312 89.375 34.394531 C 79.101562 29.378906 67.097656 27.441406 55.730469 27.441406 Z M 7.785156 48.71875 L 28.695312 45.160156 L 34.992188 31.523438 L 41.257812 45.160156 L 62.167969 48.71875 L 41.257812 52.3125 L 34.992188 65.976562 L 28.695312 52.3125 Z M 53.753906 59.109375 L 62.976562 57.492188 L 65.734375 51.324219 L 68.488281 57.492188 L 77.714844 59.109375 L 68.488281 60.699219 L 65.734375 66.871094 L 62.976562 60.699219 Z M 72.84375 42.667969 L 82.0625 41.078125 L 84.820312 34.882812 L 87.574219 41.078125 L 96.796875 42.667969 L 87.574219 44.289062 L 84.820312 50.457031 L 82.0625 44.289062 Z M 62.976562 71.851562 L 72.171875 70.261719 L 74.925781 64.066406 L 77.710938 70.261719 L 86.933594 71.851562 L 77.710938 73.472656 L 74.925781 79.640625 L 72.171875 73.472656 Z M 34.644531 74.082031 L 43.867188 72.488281 L 46.652344 66.289062 L 49.402344 72.488281 L 58.628906 74.082031 L 49.402344 75.699219 L 46.652344 81.871094 L 43.867188 75.699219 Z M 81.023438 58.855469 L 90.214844 57.234375 L 92.96875 51.066406 L 95.753906 57.234375 L 104.976562 58.855469 L 95.753906 60.449219 L 92.96875 66.609375 L 90.210938 60.445312 Z M 81.023438 58.855469 " fill-opacity="1" fill-rule="nonzero"/></g></svg>