<svg xmlns="http://www.w3.org/2000/svg" xmlns:xlink="http://www.w3.org/1999/xlink" width="150" zoomAndPan="magnify" viewBox="0 0 112.5 112.499997" height="150" preserveAspectRatio="xMidYMid meet" version="1.0"><defs><clipPath id="8a796bcb15"><path d="M 2 20 L 112.003906 20 L 112.003906 92 L 2 92 Z M 2 20 " clip-rule="nonzero"/></clipPath></defs><g clip-path="url(#8a796bcb15)"><path fill="#ff0000" d="M 53.214844 87.445312 C 47.554688 83.910156 43.386719 71.695312 43.386719 57.191406 C 43.386719 56.65625 43.390625 56.132812 43.40625 55.609375 L 43.410156 55.613281 C 27.671875 53.144531 16.296875 46.378906 16.007812 38.378906 L 15.960938 38.472656 C 12.109375 43.25 9.910156 48.773438 9.910156 54.660156 C 9.910156 71.980469 28.953125 86.171875 53.113281 87.425781 Z M 2.632812 55.925781 C 2.632812 36.542969 26.792969 20.832031 56.597656 20.832031 C 86.402344 20.832031 110.5625 36.542969 110.5625 55.925781 C 110.5625 75.304688 86.402344 91.019531 56.597656 91.019531 C 26.792969 91.019531 2.632812 75.304688 2.632812 55.925781 Z M 56.597656 25.894531 C 62.351562 25.894531 67.246094 34.605469 69.058594 46.765625 L 69.066406 46.746094 C 80.261719 45.007812 88.097656 40.992188 88.097656 36.324219 C 88.097656 30.058594 73.996094 24.984375 56.597656 24.984375 C 39.203125 24.984375 25.097656 30.058594 25.097656 36.324219 C 25.097656 40.992188 32.933594 45.003906 44.132812 46.746094 L 44.136719 46.765625 C 45.953125 34.609375 50.847656 25.894531 56.597656 25.894531 Z M 60.082031 87.425781 C 84.242188 86.171875 103.289062 71.980469 103.289062 54.660156 C 103.289062 48.773438 101.085938 43.25 97.238281 38.472656 L 97.191406 38.378906 C 96.898438 46.378906 85.527344 53.144531 69.785156 55.613281 L 69.792969 55.609375 C 69.804688 56.132812 69.808594 56.65625 69.808594 57.191406 C 69.808594 71.695312 65.636719 83.910156 59.980469 87.445312 Z M 56.597656 47.667969 C 59.175781 47.667969 61.683594 47.558594 64.078125 47.34375 L 64.078125 47.347656 C 62.882812 39.554688 59.984375 34.054688 56.597656 34.054688 C 53.210938 34.054688 50.316406 39.554688 49.121094 47.347656 L 49.117188 47.34375 C 51.515625 47.558594 54.019531 47.667969 56.597656 47.667969 Z M 56.597656 76.523438 C 60.929688 76.523438 64.464844 67.527344 64.652344 56.238281 L 64.675781 56.246094 C 62.066406 56.488281 59.363281 56.613281 56.597656 56.613281 C 53.832031 56.613281 51.132812 56.488281 48.523438 56.246094 L 48.546875 56.238281 C 48.734375 67.527344 52.265625 76.523438 56.597656 76.523438 Z M 278 55.925781 C 278 41.113281 290.03125 29.105469 304.871094 29.105469 C 319.714844 29.105469 331.742188 41.113281 331.742188 55.925781 C 331.742188 70.738281 319.710938 82.746094 304.871094 82.746094 C 290.03125 82.746094 278 70.738281 278 55.925781 Z M 304.871094 72.910156 C 313.15625 72.910156 319.875 65.304688 319.875 55.921875 C 319.875 46.542969 313.15625 38.933594 304.871094 38.933594 C 296.585938 38.933594 289.871094 46.542969 289.871094 55.921875 C 289.871094 65.304688 296.585938 72.910156 304.871094 72.910156 Z M 362.230469 40.277344 L 362.230469 81.527344 L 350.910156 81.527344 L 350.910156 40.277344 L 350.949219 40.277344 L 335.117188 40.277344 L 335.117188 30.949219 L 378.023438 30.949219 L 378.023438 40.277344 Z M 391.71875 70.148438 L 391.707031 70.160156 L 387.363281 81.53125 L 374.140625 81.53125 L 395.042969 30.953125 L 409.132812 30.953125 L 430.039062 81.53125 L 416.816406 81.53125 L 412.472656 70.160156 L 412.460938 70.148438 Z M 402.09375 61.613281 L 409.214844 61.613281 L 409.210938 61.613281 L 402.140625 43.105469 L 402.039062 43.105469 L 394.964844 61.613281 Z M 153.539062 40.277344 L 153.539062 81.527344 L 142.21875 81.527344 L 142.21875 40.277344 L 142.257812 40.277344 L 126.421875 40.277344 L 126.421875 30.949219 L 169.332031 30.949219 L 169.332031 40.277344 Z M 172.230469 55.925781 C 172.230469 41.113281 184.261719 29.105469 199.101562 29.105469 C 213.941406 29.105469 225.972656 41.113281 225.972656 55.925781 C 225.972656 70.738281 213.941406 82.746094 199.101562 82.746094 C 184.261719 82.746094 172.230469 70.738281 172.230469 55.925781 Z M 199.101562 72.910156 C 207.386719 72.910156 214.105469 65.304688 214.105469 55.921875 C 214.105469 46.542969 207.390625 38.933594 199.101562 38.933594 C 190.816406 38.933594 184.097656 46.542969 184.097656 55.921875 C 184.097656 65.304688 190.816406 72.910156 199.101562 72.910156 Z M 251.984375 81.527344 L 257.726562 81.527344 L 257.726562 62.324219 L 277.476562 30.949219 L 264.257812 30.949219 L 251.984375 52.210938 L 239.71875 30.949219 L 226.492188 30.949219 L 246.246094 62.324219 L 246.246094 81.523438 L 251.984375 81.523438 Z M 251.984375 81.527344 " fill-opacity="1" fill-rule="nonzero"/></g></svg>